<?xml version="1.0" encoding="utf-8"?>
<svg version="1.1" xmlns:xlink="http://www.w3.org/1999/xlink" width="19px" height="17px" xmlns="http://www.w3.org/2000/svg">
  <g transform="matrix(1 0 0 1 -150 -29 )">
    <path d="M 16.0604506653632 5.74670653940478  C 16.0604506653632 4.58054738493872  15.5788889194437 3.46749871643361  14.7322619462797 2.67682256746139  C 13.932030913754 1.92777552836821  12.8753357968053 1.52336540271431  11.7858127829325 1.54918049050832  L 11.7386649510104 1.54918049050832  C 11.9634185646874 1.77997618114694  12.1611509832174 2.03622929483502  12.3279483318625 2.31286761025641  C 12.3946134846066 2.4250001692167  12.4555852865381 2.54050300289853  12.5106260307162 2.65892580764732  C 13.9819706035899 2.94454931455787  15.0457514689749 4.2477145602312  15.0457514689749 5.76453474653846  C 15.0457514689749 5.97182799890792  15.0256192062818 6.17861897068909  14.9856452634731 6.38192290778228  C 14.674611797398 7.86699847077086  13.3735447090641 8.92482030446059  11.8741948179421 8.91166195447593  L 11.7150910350494 8.91166195447593  C 11.8388420007156 8.97729424525416  11.9625929663818 9.054852265707  12.092241431339 9.13242660044984  C 12.2218898962963 9.21000093519268  12.4575968129331 9.36511697609837  12.628495594408 9.49041054382966  C 12.7614435689803 9.58270887941139  12.8893114033568 9.68229274948692  13.0115273765587 9.78871689596641  C 13.3167622319383 9.70111744606687  13.6112974395632 9.57903723301085  13.8895791186908 9.42477825305143  C 15.2265619778116 8.69661922618387  16.0604506653632 7.28377543138879  16.0604506653632 5.74670653940478  Z M 13.9190344366263 9.42477825305143  C 16.8388800720996 10.3300659142309  18.839093605138 13.0512003870825  18.8572940008746 16.1428951511771  C 18.8262972206963 16.4418294655223  18.5636001004701 16.6599259959086  18.267994490479 16.6321436761134  C 18.0126252729435 16.6036338391027  17.8101341401347 16.4010838377419  17.7788881593321 16.1428951511771  C 17.7736327082456 13.5626039896344  16.1306970101621 11.278118767551  13.7068853225204 10.4808170090868  C 13.4739798141726 10.2345633611484  13.2259870068442 10.0034057659924  12.9643795446366 9.78871689596641  C 12.840813836583 9.67702303268437  12.708807607011 9.57528691076084  12.5695688612204 9.4844395300045  C 12.3927725643411 9.35317494844804  12.2041973661963 9.22191036689159  12.0156221841648 9.10855882681061  C 12.6612487204667 9.12684944299723  13.3014897956568 9.23321455921974  13.9190344366263 9.42477825305143  Z M 15.3215453271318 16.2562793035238  C 15.3155554728162 13.9772272443815  14.301417612404 11.8207628790013  12.5577738465249 10.3793912149948  C 12.4399203962632 10.2839364510421  12.322066929888 10.1884653564852  12.1983159803353 10.0989652920678  C 11.7773868128807 9.79194032800207  11.3273045312315 9.52812023916339  10.8547318069039 9.31141041499475  C 10.5591438267964 9.16686982896027  10.251511973556 9.04907352485567  9.93542974825416 8.95939750175438  C 10.0745236503139 8.88305205938292  10.2083993202848 8.79734002631314  10.3361540443914 8.70283935246664  C 12.3145792514133 7.3256681665774  12.9171541284503 4.64129741006413  11.7209885343404 2.53363225623032  C 11.508799495092 2.16124382650866  11.2448489653899 1.82166562878069  10.9372324560525 1.5253127168691  C 10.0548565249953 0.642887877192645  8.86457070026248 0.148057033212374  7.62432676872091 0.148057033212374  C 5.06009515506862 0.148057033212374  2.96610808580932 2.22314068535741  2.91109634612072 4.81873888331084  C 2.89728251507938 6.55940018632142  3.83333260751265 8.16570239871672  5.34486526236004 8.99519100506823  C 2.18976568626705 9.9762430541036  0.0267712208191061 12.9147069875711  0 16.2562793035238  C 0 16.5857929213548  0.263834767000033 16.8529164873894  0.589291445623799 16.8529164873894  C 0.914748124247566 16.8529164873894  1.1785828912476 16.5857929213548  1.1785828912476 16.2562793035238  C 1.20438320853035 12.6766458301497  4.07780604997068 9.78855706204025  7.6134615646395 9.78855706204025  C 7.62923477912368 9.78855706204025  7.64500794030173 9.78861577850917  7.66078072833764 9.78873321025641  C 7.67654814042027 9.78861585854927  7.69231592526266 9.78855718210121  7.70808376335763 9.78855718210121  C 11.2437392317855 9.78855718210121  14.1171620537851 12.6766458774472  14.1429624358842 16.2562793035238  C 14.1429624358842 16.5857929213548  14.4067972028842 16.8529164873894  14.732253881508 16.8529164873894  C 15.0577105601317 16.8529164873894  15.3215453271318 16.5857929213548  15.3215453271318 16.2562793035238  Z M 7.66079684176771 8.38661992622582  C 5.72632804758359 8.38680322742441  4.15084506629025 6.81297330321735  4.12503205459485 4.85456499889039  C 4.15258958927768 2.89758318700566  5.72733735107039 1.32577490574188  7.66042143207922 1.32577490574188  C 8.38581163591841 1.32577490574188  9.09364887467686 1.55166701094555  9.68792781692175 1.97281303895637  C 10.0097316771931 2.18736775485042  10.2894603377336 2.4604661266142  10.5129342278407 2.77826467584345  C 10.9551389479801 3.37806595341615  11.1948270951708 4.10609379643427  11.1965132725369 4.85456499889039  C 11.1933383899622 6.14909005726305  10.4898117653785 7.33776829166787  9.36382276795866 7.95107796239316  C 9.01690371529756 8.14080572958469  8.64003446487298 8.26799475545347  8.25006410918969 8.32695866558704  C 8.05625260223443 8.36775510531857  7.85873341876349 8.38775268860214  7.66078072833764 8.38661992622582  Z " fill-rule="nonzero" fill="#000000" stroke="none" transform="matrix(1 0 0 1 150 29 )" />
  </g>
</svg>