<?xml version="1.0" encoding="utf-8"?>
<svg version="1.1" xmlns:xlink="http://www.w3.org/1999/xlink" width="12px" height="9px" xmlns="http://www.w3.org/2000/svg">
  <g transform="matrix(1 0 0 1 -41 -33 )">
    <path d="M 11.2878486386719 0.427630061523437  C 11.3992521468289 0.537968697876432  11.4620139047168 0.688204647491705  11.4622075615234 0.845001709960938  C 11.4618227598821 1.00208001172116  11.3991125737432 1.15258445606615  11.2878486386719 1.26346311816406  L 4.93573528710938 8.57128129101562  C 4.69617083905536 8.80868796587523  4.31004361309308 8.80868796587523  4.07047916503906 8.57128129101562  L 0.699903326171874 4.67653895703125  C 0.588168292294959 4.56553046179142  0.525399075526972 4.41449203637143  0.525544403320312 4.25698780566406  C 0.525155815109837 4.099435253839  0.587962436002263 3.94830682474602  0.699903326171874 3.83743665429687  C 0.940661880063319 3.60294929979864  1.32440089435074 3.60294929979864  1.56515944824219 3.83743665429687  L 4.15983810449219 6.06378208789062  C 4.35748856904473 6.23472216121134  4.65515847936916 6.21783651114711  4.83220968652344 6.02564107714844  L 10.4225925166016 0.427630061523437  C 10.6621569646556 0.190223386663828  11.0482841906179 0.190223386663829  11.2878486386719 0.427630061523437  Z " fill-rule="nonzero" fill="#000000" stroke="none" transform="matrix(1 0 0 1 41 33 )" />
  </g>
</svg>