<?xml version="1.0" encoding="utf-8"?>
<svg version="1.1" xmlns:xlink="http://www.w3.org/1999/xlink" width="18px" height="17px" xmlns="http://www.w3.org/2000/svg">
  <g transform="matrix(1 0 0 1 -38 -139 )">
    <path d="M 15.6848998008798 0  C 15.6845364443778 0  15.6841730878822 0  15.6838097314453 0  L 2.31701915136719 0  C 2.31592940929874 0  2.31483966569522 0  2.31374992187264 0  C 1.30745910511823 0  0.491699218747639 0.815760187547843  0.491699218747639 1.8220509593917  L 0.49169921875 15.1768567015662  C 0.491699000325344 15.1772209270668  0.491698891113008 15.1775851526267  0.491698891113008 15.1779493781928  C 0.491698891113008 16.1842401500366  1.3074587774836 17  2.31374959423801 17  C 2.31483944727251 17  2.31592930008736 16.9999990221626  2.31701915136719 17  L 15.6838097314453 17  C 15.6841729791245 16.9999972838723  15.6845362268652 16.999997392564  15.6848994746094 16.999997392564  C 16.6905884428331 16.999997392564  17.5058604345703 16.1847254372122  17.5058604345703 15.1790365138722  L 17.5058604345703 1.82205389231492  C 17.5058606520839 1.82169053589511  17.5058607608408 1.82132717941398  17.5058607608408 1.82096382292906  C 17.5058607608408 0.815274899589086  16.6905887691035 0  15.6848998008798 0  Z M 16 1.82205389231492  L 16 15.1757669584508  C 16.2885115080047 15.509898320465  16.0179411083717 15.7804687080225  15.6838097314453 15.7816641804332  L 2.31701915136719 15.7816641804332  C 1.98337994344811 15.7792894344344  1.71349664844849 15.5094061514796  2 15.1757669584508  L 2 1.82205389231492  C 1.71349664844849 1.48841469928609  1.98337994344811 1.2185314163313  2.31701915136719 1.21615667033255  L 15.6838097314453 1.21615667033255  C 16.0176944948069 1.21794378121135  16.2879198695102 1.48816914385456  16 1.82205389231492  Z " fill-rule="nonzero" fill="#7f7f7f" stroke="none" transform="matrix(1 0 0 1 38 139 )" />
  </g>
</svg>