<?xml version="1.0" encoding="utf-8"?>
<svg version="1.1" xmlns:xlink="http://www.w3.org/1999/xlink" width="18px" height="18px" xmlns="http://www.w3.org/2000/svg">
  <g transform="matrix(1 0 0 1 -264 -138 )">
    <path d="M 8.9664 0.0119999999999997  L 8.9664 0.0107999999999999  C 4.02082733006628 0.0114626789112053  0.0119999556023791 4.02082728566865  0.012 8.9664  C 0.012 13.9124413055847  4.02155869441535 17.922  8.9676 17.922  C 13.9136413055847 17.922  17.9232 13.9124413055847  17.9232 8.9664  C 17.9225373654924 4.02082733005612  13.9131727947214 0.0119999195926049  8.96760008038585 0.0119999195926049  C 8.96720005359163 0.0119999195926049  8.96680002679063 0.0119999463950699  8.9664 0.0119999999999997  Z M 16.5939003296708 8.9664  C 16.5939003296708 13.2011261544069  13.2004716372269 16.6547488505911  8.9664 16.7292  C 4.73232836277308 16.6547488505911  1.3388996703292 13.2011261544069  1.3388996703292 8.9664  C 1.3388996703292 4.73167384559311  4.73232836277308 1.27805114940894  8.9664 1.2036  C 13.2004716372269 1.27805114940894  16.5939003296708 4.73167384559311  16.5939003296708 8.9664  Z M 12.8472 9.5628  L 12.8484 9.5628  L 8.9664 9.5628  L 8.9664 5.682  C 8.96574810321304 5.51771537384942  8.83308067264806 5.38451299396765  8.6688 5.3832  L 8.0712 5.3832  C 7.90691932735195 5.38451299396765  7.77425189678696 5.51771537384942  7.7736 5.682  L 7.7736 10.458  C 7.77425189678696 10.6222846261506  7.90691932735195 10.7554870060324  8.0712 10.7568  L 12.8472 10.7568  C 13.0124179249128 10.7568013217487  13.1465391283056 10.6232166031694  13.1472 10.458  L 13.1472 9.8616  C 13.147201639082 9.86119676961006  13.1472024586255 9.86079353630614  13.1472024586255 9.86039030258487  C 13.1472024586255 9.69603036103522  13.0139624001751 9.56279030258487  12.8496024586255 9.56279030258487  C 12.848801629298 9.56279030258487  12.8480008032321 9.56279353508291  12.8472 9.5628  Z " fill-rule="nonzero" fill="#7f7f7f" stroke="none" transform="matrix(1 0 0 1 264 138 )" />
  </g>
</svg>