<?xml version="1.0" encoding="utf-8"?>
<svg version="1.1" xmlns:xlink="http://www.w3.org/1999/xlink" width="18px" height="21px" xmlns="http://www.w3.org/2000/svg">
  <g transform="matrix(1 0 0 1 -168 -138 )">
    <path d="M 17.1964285714286 16.078125  L 16.3928571428571 16.078125  L 16.3928571428571 9.1875  C 16.3922460347139 5.33742733166157  13.5527253876219 2.10504861455427  9.80357142857143 1.6865625  L 9.80357142857143 0.8203125  C 9.80357142857143 0.367266416154427  9.44380024539974 0  9 0  C 8.55619975460025 0  8.19642857142857 0.367266416154427  8.19642857142857 0.8203125  L 8.19642857142857 1.6865625  C 4.44727461237809 2.10504861455427  1.60775396528614 5.33742733166157  1.60714285714286 9.1875  L 1.60714285714286 16.078125  L 0.803571428571428 16.078125  C 0.359771183171684 16.078125  0 16.4453914161544  0 16.8984375  C 0 17.3514835838456  0.359771183171684 17.71875  0.803571428571428 17.71875  L 5.1975 17.71875  C 5.51292908606863 19.6113326003256  7.11939969674546 20.99582150584  9 20.99582150584  C 10.8806003032545 20.99582150584  12.4870709139314 19.6113326003256  12.8025 17.71875  L 17.1964285714286 17.71875  C 17.6402288168283 17.71875  18 17.3514835838456  18 16.8984375  C 18 16.4453914161544  17.6402288168283 16.078125  17.1964285714286 16.078125  Z M 11.1551785714286 17.71875  C 10.8709910081402 18.6918026629901  9.99465673201273 19.3589102246705  9 19.359375  C 8.00534326798727 19.3589102246705  7.12900899185984 18.6918026629901  6.84482142857143 17.71875  L 11.1551785714286 17.71875  Z M 14.7857142857143 16  L 3.21428571428571 16  L 3.21428571428571 9.1875  C 3.21428571428571 5.92556819631188  5.80463823312184 3.28125  9 3.28125  C 12.1953617668782 3.28125  14.7857142857143 5.92556819631188  14.7857142857143 9.1875  L 14.7857142857143 16  Z " fill-rule="nonzero" fill="#000000" stroke="none" transform="matrix(1 0 0 1 168 138 )" />
  </g>
</svg>