<?xml version="1.0" encoding="utf-8"?>
<svg version="1.1" xmlns:xlink="http://www.w3.org/1999/xlink" width="26px" height="23px" xmlns="http://www.w3.org/2000/svg">
  <g transform="matrix(1 0 0 1 -240 -139 )">
    <path d="M 21.9774588052338 7.77495590625352  C 21.9774588052338 6.19721116785827  21.3184795739756 4.69132179282194  20.1599374001723 3.62158347362423  C 19.0648844082949 2.6081668913217  17.6188805640494 2.06102378014289  16.1279543345392 2.09595007539361  L 16.0634362487511 2.09595007539361  C 16.3709938253617 2.40820306861056  16.6415750296659 2.75489845771797  16.8698240330749 3.12917382564103  C 16.9610500315669 3.28088258188142  17.0444851289468 3.4371511215686  17.1198040420327 3.59737021034638  C 19.1332229312283 3.98380201381359  20.5889230628078 5.74690793443044  20.5889230628078 7.79907642178733  C 20.5889230628078 8.07953199852249  20.5613736507014 8.3593080191676  20.5066724658053 8.63436628699955  C 20.0810477227552 10.643586166337  18.3006401281929 12.0747568825055  16.2488981719208 12.0569544089968  L 16.031177205857 12.0569544089968  C 16.2005206325581 12.1457510376968  16.3698640592593 12.250682477133  16.5472777481482 12.3556359888439  C 16.724691437037 12.4605895005548  17.0472377440138 12.6704523794272  17.2810992344531 12.8399672063578  C 17.4630280417625 12.964841425086  17.6380050782778 13.0995725434235  17.805247988975 13.2435581533663  C 18.2229377910735 13.1250412505611  18.6259859699286 12.9598739034853  19.0067924782084 12.7511705776578  C 20.836347969637 11.7660142471899  21.9774588052338 9.85451970129072  21.9774588052338 7.77495590625352  Z M 19.0470997553833 12.7511705776578  C 23.0426779933994 13.9759715310183  25.7798123017678 17.6575064060528  25.80471810646 21.8403875574749  C 25.7623014599002 22.2448281004125  25.402821190117 22.5398998768176  24.9983082501292 22.5023120323887  C 24.6488556366596 22.4637398999624  24.3717625075528 22.1897016628272  24.3290048496124 21.8403875574749  C 24.3218131797045 18.3494053977407  22.0735853823271 15.2586312737455  18.7567904413437 14.1799288946469  C 18.4380776404467 13.8467621944948  18.0987190619973 13.5340195657544  17.7407299031869 13.2435581533663  C 17.5716399869031 13.092442926573  17.3909998832782 12.9547999380882  17.2004626521964 12.8318887758884  C 16.9585308775194 12.6542955184885  16.7004806063738 12.4767022610886  16.4424303572782 12.3233442950967  C 17.3259193016913 12.3480904228786  18.2020386677409 12.4919961683561  19.0470997553833 12.7511705776578  Z M 20.9663251844961 21.9937896459439  C 20.9581285417485 18.9103662718102  19.5703609432897 15.9927968362958  17.1843221057709 14.0427057614635  C 17.0230489633075 13.9135610808217  16.8617757987941 13.784394305833  16.692432394143 13.6633059833858  C 16.1164240597314 13.2479192672969  15.5005219901063 12.8909862059269  14.8538435252369 12.5977905614635  C 14.4493547103529 12.4022356509462  14.0283848059187 12.2428641806871  13.5958512344531 12.1215377964912  C 13.7861902583243 12.018246903871  13.9693885435476 11.9022835650119  14.1442107975883 11.7744297121607  C 16.8515295019341 9.91119810772237  17.6761056494583 6.27940237832206  16.0392474680448 3.42785540548808  C 15.7488835195996 2.92403576527642  15.387688057902 2.46460643893859  14.9667391503876 2.06365838164643  C 13.7592773499936 0.869789480907696  12.1304651687802 0.200312456699094  10.4332892624602 0.200312456699094  C 6.92434073851495 0.200312456699094  4.05888474900222 3.00777857430709  3.98360552627046 6.51947025389114  C 3.96470238905599 8.8744826050231  5.24561304185941 11.0477150100285  7.31402614849268 12.1699643009747  C 2.99652146541807 13.4972700143755  0.0366343021735136 17.4728388655373  0 21.9937896459439  C 0 22.4396021877153  0.361037049578992 22.8010046594092  0.806398820327304 22.8010046594092  C 1.25176059107562 22.8010046594092  1.61279764065461 22.4396021877153  1.61279764065461 21.9937896459439  C 1.6481033379889 17.1507561231437  5.5801556473283 13.2433419074662  10.418421088454 13.2433419074662  C 10.4400054872219 13.2433419074662  10.4615898130445 13.2434213473948  10.4831736282515 13.243580225641  C 10.5047500868909 13.2434214556843  10.5263270556226 13.2433420699016  10.5479040972262 13.2433420699016  C 15.3861694750749 13.2433420699016  19.3182217578112 17.1507561871345  19.3535275438415 21.9937896459439  C 19.3535275438415 22.4396021877153  19.7145645934205 22.8010046594092  20.1599263641688 22.8010046594092  C 20.6052881349171 22.8010046594092  20.9663251844961 22.4396021877153  20.9663251844961 21.9937896459439  Z M 10.4831956782084 11.3466034295996  C 7.83602785458807 11.3468514253389  5.6801037749235 9.21755211611759  5.64478070628768 6.5679408808517  C 5.6824910169063 3.92025960594883  7.83740900672791 1.7936954607096  10.4826819596873 1.7936954607096  C 11.4753211859936 1.7936954607096  12.4439405653473 2.09931419127927  13.2571643810508 2.66909999388214  C 13.6975275582642 2.95937990362115  14.0803141463724 3.32886593600744  14.3861205223084 3.75882867908232  C 14.9912427709202 4.57032452521009  15.3192370776022 5.55530337164636  15.3215444782084 6.5679408808517  C 15.3171999020535 8.31935713629707  14.3544792578864 9.92756886519771  12.8136522087855 10.7573407726496  C 12.3389208735651 11.0140312812028  11.8232050571946 11.1861105514959  11.2895614125754 11.2658852534413  C 11.0243456662155 11.3210804366075  10.7540562572553 11.3481359904617  10.4831736282515 11.3466034295996  Z " fill-rule="nonzero" fill="#000000" stroke="none" transform="matrix(1 0 0 1 240 139 )" />
  </g>
</svg>