<?xml version="1.0" encoding="utf-8"?>
<svg version="1.1" xmlns:xlink="http://www.w3.org/1999/xlink" width="16px" height="21px" xmlns="http://www.w3.org/2000/svg">
  <g transform="matrix(1 0 0 1 -318 -139 )">
    <path d="M 15.9177715918367 7.81474988629681  C 15.9177715918367 3.50547881026804  12.3652797959184 0  7.99861771428571 0  C 3.6324163877551 0  0.0826891836734701 3.50547881026804  0.0826891632653069 7.81474988629681  C 0.0826891632653069 11.1947519190717  4.95757414285714 17.7630681794064  7.05543344897959 20.5346698315162  C 7.28084768999554 20.8285604990705  7.62936749722278 21.0005061056367  7.99861771428571 20.9999988809382  C 8.36861134693878 20.9999988809382  8.722939 20.8268316596973  8.94410579591837 20.5346698315162  C 11.0401220408163 17.7635311842646  15.9177715918367 11.1947518985638  15.9177715918367 7.81474988629681  Z M 11.380626755102 7.31932492636922  C 11.380626755102 9.1602685001428  9.8647126122449 10.6553406157849  7.99861771428571 10.6553406362927  C 6.13344432653061 10.6553406362927  4.61522636734694 9.1602685001428  4.61522636734694 7.31932492636922  C 4.61522636734694 5.47930738281973  6.13344432653061 3.98192018136349  7.99861771428571 3.9819202018713  C 9.86471263265306 3.9819202018713  11.380626755102 5.47930740332754  11.380626755102 7.31932492636922  Z " fill-rule="nonzero" fill="#333333" stroke="none" transform="matrix(1 0 0 1 318 139 )" />
  </g>
</svg>