<?xml version="1.0" encoding="utf-8"?>
<svg version="1.1" xmlns:xlink="http://www.w3.org/1999/xlink" width="15px" height="15px" xmlns="http://www.w3.org/2000/svg">
  <g transform="matrix(1 0 0 1 -58 -108 )">
    <path d="M 14.8134386383929 14.8252848883929  C 14.9871151674107 14.6511115513393  14.9871494363839 14.3699022154018  14.8134557645089 14.1966710825893  L 10.6521913895089 10.035903515625  C 11.5702717801339 8.97138525669643  12.1458301339286 7.60326713169643  12.1458301339286 6.08821433035714  C 12.1458301339286 2.73604138392857  9.42857529575893 0.0192662276785719  6.07638520647321 0.0192662276785719  C 2.72422940290178 0.0192662276785719  0.0069574218749992 2.73604140066964  0.0069574218749992 6.08821433035714  C 0.0069574218749992 9.44038726004464  2.72421226004464 12.1571624330357  6.07638520647321 12.1571624497768  C 7.5914380078125 12.1571624497768  8.95953900669643 11.5820837779018  10.0230979185268 10.6635237053571  L 14.1848591015625 14.8252848883929  C 14.3585527734375 14.9994582254464  14.639762109375 14.9994582254464  14.8134386383929 14.8252848883929  Z M 11.2121945591518 6.08823145647321  C 11.2121774330357 8.92468548549107  8.91237669642857 11.2240065401786  6.07640234933036 11.2240065569196  C 3.23996544642857 11.2240065569196  0.940627265625 8.92468550223214  0.940627248883929 6.08823145647321  C 0.940627248883929 3.25275391741071  3.23996544642857 0.952439229910714  6.07640234933036 0.952439246651785  C 8.91237669642857 0.952439246651785  11.2121945758929 3.25273679129464  11.2121945591518 6.08823145647321  Z " fill-rule="nonzero" fill="#aaaaaa" stroke="none" transform="matrix(1 0 0 1 58 108 )" />
  </g>
</svg>