<?xml version="1.0" encoding="utf-8"?>
<svg version="1.1" xmlns:xlink="http://www.w3.org/1999/xlink" width="375px" height="667px" xmlns="http://www.w3.org/2000/svg">
  <g>
    <path d="M 0 0  L 375 0  L 375 667  L 0 667  L 0 0  " fill-rule="nonzero" fill="#cccccc" stroke="none" />
    <path d="M 26 26  L 349 26  L 349 641  L 26 641  L 26 26  " fill-rule="nonzero" fill="#ffffff" stroke="none" />
    <path d="M 223.125 156.3  C 207.375 156.3  195 143.925  195 128.175  C 195 112.425  207.375 100.05  223.125 100.05  C 238.875 100.05  251.25 112.425  251.25 128.175  C 251.25 143.925  238.875 156.3  223.125 156.3  " fill-rule="nonzero" fill="#cccccc" stroke="none" />
    <path d="M 36 632  L 36 304.2  L 112 155.2  L 218.4 274.4  L 279.2 244.6  L 340 274.4  L 340 632  L 36 632  " fill-rule="nonzero" fill="#169bd5" stroke="none" />
  </g>
</svg>