<?xml version="1.0" encoding="utf-8"?>
<svg version="1.1" xmlns:xlink="http://www.w3.org/1999/xlink" width="25px" height="33px" xmlns="http://www.w3.org/2000/svg">
  <g transform="matrix(1 0 0 1 -177 -667 )">
    <path d="M 24.6977777777778 16.3489021276596  L 24.6988888888889 16.3567659574468  C 24.7113561622676 15.7944238862008  24.4308037904285 15.2667804098284  23.96 14.967114893617  L 2.57 0.594280851063832  C 2.36271710818646 0.437704203239135  2.11096682930718 0.352990342187369  1.85222222222222 0.352748936170214  C 1.13666666666667 0.352748936170214  0.560000000000002 1.01668085106383  0.524444444444446 1.83788936170213  L 1 1.92776170212766  L 1 30.9778723404255  L 0.583333333333336 30.9834893617021  C 0.615555555555557 31.8148085106383  1.20444444444444 32.4776170212766  1.92222222222222 32.472  C 2.07774181608454 32.4708751798535  2.23147898515432 32.4384126792886  2.37444444444445 32.3765106382979  L 2.39777777777778 32.3978553191489  L 24.0977777777778 17.6644085106383  C 24.4899557927632 17.3446754155732  24.7118959219534 16.8580693212584  24.6977777777778 16.3489021276596  Z " fill-rule="nonzero" fill="#ffffff" stroke="none" transform="matrix(1 0 0 1 177 667 )" />
  </g>
</svg>