<?xml version="1.0" encoding="utf-8"?>
<svg version="1.1" xmlns:xlink="http://www.w3.org/1999/xlink" width="36px" height="40px" xmlns="http://www.w3.org/2000/svg">
  <defs>
    <filter x="-7px" y="-10px" width="36px" height="40px" filterUnits="userSpaceOnUse" id="filter42">
      <feOffset dx="0" dy="0" in="SourceAlpha" result="shadowOffsetInner" />
      <feGaussianBlur stdDeviation="5" in="shadowOffsetInner" result="shadowGaussian" />
      <feComposite in2="shadowGaussian" operator="atop" in="SourceAlpha" result="shadowComposite" />
      <feColorMatrix type="matrix" values="0 0 0 0 0  0 0 0 0 0  0 0 0 0 0  0 0 0 0.313725490196078 0  " in="shadowComposite" />
    </filter>
    <g id="widget43">
      <path d="M 16 19.1521929824561  C 15.9371739130435 19.5815789473684  15.5908695652174 19.930701754386  15.1654347826087 20  L 0.834565217391304 20  C 0.408913043478261 19.930701754386  0.0628260869565214 19.5813596491228  0 19.1521929824561  L 0 7.10899122807018  C 0.0628260869565214 6.67982456140351  0.40891304347826 6.33048245614035  0.834565217391304 6.33048245614035  L 15.1652173913043 6.33048245614035  C 15.5908695652174 6.33048245614035  15.9369565217391 6.67982456140351  16 7.10899122807018  L 16 19.1521929824561  Z M 1.43239130434783 8  L 1.43239130434783 18.5491228070175  L 14.5673913043478 18.5491228070175  L 14.5673913043478 8  L 1.43239130434783 8  Z M 8.68478260869565 14.0947368421053  C 8.68478260869565 14.4763157894737  8.37826086956522 14.7855263157895  8 14.7855263157895  C 7.62173913043478 14.7855263157895  7.31521739130435 14.4763157894737  7.31521739130435 14.0947368421053  L 7.31521739130435 11.2546052631579  C 7.31521739130435 10.8730263157895  7.62173913043478 10.5638157894737  8 10.5638157894737  C 8.37826086956522 10.5638157894737  8.68478260869565 10.8730263157895  8.68478260869565 11.2546052631579  L 8.68478260869565 14.0947368421053  Z M 13.3639130434783 7.02127192982456  C 13.3641304347826 7.40263157894737  13.0576086956522 7.71206140350877  12.679347826087 7.71206140350877  C 12.3010869565217 7.71206140350877  11.9945652173913 7.40285087719298  11.9945652173913 7.02127192982456  C 11.9945652173913 5.85723684210526  11.515652173913 4.43333333333333  10.745 3.30504385964912  C 9.94 2.12675438596491  8.93934782608696 1.45087719298246  8 1.45087719298246  C 7.06065217391304 1.45087719298246  6.06021739130435 2.12675438596491  5.255 3.30504385964912  C 4.48413043478261 4.43311403508772  4.0054347826087 5.85723684210526  4.0054347826087 7.02127192982456  C 4.0054347826087 7.40285087719298  3.69891304347826 7.71206140350877  3.32065217391304 7.71206140350877  C 2.94239130434783 7.71206140350877  2.63586956521739 7.40285087719298  2.63586956521739 7.02127192982456  C 2.63586956521739 6.30811403508772  2.7754347826087 5.51337719298246  3.03934782608696 4.72258771929825  C 3.2995652173913 3.94320175438597  3.67586956521739 3.18179824561404  4.12717391304348 2.52105263157895  C 4.62086956521739 1.79824561403509  5.18173913043478 1.21929824561404  5.79391304347826 0.800219298245615  C 6.50239130434783 0.315131578947369  7.2445652173913 0.069298245614035  8 0.069298245614035  C 8.7554347826087 0.069298245614035  9.49760869565217 0.315131578947369  10.2058695652174 0.800219298245614  C 10.8180434782609 1.21929824561404  11.3786956521739 1.79824561403509  11.8726086956522 2.52105263157895  C 12.3241304347826 3.18179824561403  12.7002173913043 3.94320175438596  12.9604347826087 4.72258771929824  C 13.224347826087 5.51337719298246  13.3639130434783 6.30811403508772  13.3639130434783 7.02127192982456  Z " fill-rule="nonzero" fill="#ffffff" stroke="none" transform="matrix(1 0 0 1 3 0 )" />
    </g>
  </defs>
  <g transform="matrix(1 0 0 1 7 10 )">
    <use xlink:href="#widget43" filter="url(#filter42)" />
    <use xlink:href="#widget43" />
  </g>
</svg>