<?xml version="1.0" encoding="utf-8"?>
<svg version="1.1" xmlns:xlink="http://www.w3.org/1999/xlink" width="9px" height="14px" xmlns="http://www.w3.org/2000/svg">
  <g transform="matrix(1 0 0 1 -64 -623 )">
    <path d="M 2.913136734375 13.244081625  C 2.82485840570311 13.297131870247  2.72388333085662 13.3253372041167  2.620891828125 13.325714296875  C 2.30547747292542 13.3254643461461  2.04991609517599 13.0697003680344  2.04991609517599 12.7542859137978  C 2.04991609517599 12.5537026568037  2.15508571068411 12.3678058504346  2.3270142890625 12.264489796875  L 8.1343612265625 8.7967346953125  C 8.21631666280085 8.75368840677546  8.30750329499755 8.7311977665695  8.40007584214752 8.7311977665695  C 8.715667122834 8.7311977665695  8.97150440464752 8.98703504838301  8.97150440464752 9.3026263290695  C 8.97150440464752 9.49256800964011  8.87712431546882 9.67009496468432  8.71966734375 9.7763265234375  L 2.913136734375 13.244081625  Z M 5.646197953125 2.8163265234375  C 5.64439857617136 4.37099478035342  4.38453968658845 5.6308536804209  2.8298714296875 5.6326530703125  C 1.274457240249 5.6326530703125  0.0135449062500044 4.37174073631351  0.0135449062500044 2.816326546875  C 0.0135449062500044 1.26091235743649  1.274457240249 0  2.8298714296875 0  C 4.38528561912601 0  5.646197953125 1.26091235743649  5.646197953125 2.816326546875  Z M 4.5033408046875 2.8163265234375  C 4.50244079394435 1.89246796177464  3.75372999135035 1.14375715918065  2.8298714296875 1.1428571484375  C 1.90563977818446 1.1428571484375  1.1564020078125 1.89209491880946  1.1564020078125 2.816326546875  C 1.1564020078125 3.74055817494054  1.90563977818446 4.4897959453125  2.82987140625 4.4897959453125  C 3.75410303431554 4.4897959453125  4.5033408046875 3.74055817494054  4.5033408046875 2.816326546875  Z " fill-rule="nonzero" fill="#000000" stroke="none" transform="matrix(1 0 0 1 64 623 )" />
  </g>
</svg>