<?xml version="1.0" encoding="utf-8"?>
<svg version="1.1" xmlns:xlink="http://www.w3.org/1999/xlink" width="29px" height="25px" xmlns="http://www.w3.org/2000/svg">
  <g transform="matrix(1 0 0 1 -22 -8 )">
    <path d="M 26.2496638152267 14.3770622021264  C 29.8484174508127 11.2486251985824  29.8484174508127 5.82599291213491  26.461371257485 2.48900158865942  C 23.0743002566296 -0.639435414884516  17.9937185628742 -0.847989734816082  14.6066723695466 2.28044726872785  C 11.0079187339607 -0.847989734816082  5.9273370402053 -0.639435414884516  2.54029084687767 2.48900158865942  C -0.846755346449957 5.82599291213491  -0.846755346449957 11.0400708786509  2.54029084687767 14.3770622021264  L 12.4897715996578 24.1795062935354  C 13.5482095808383 25.2223023341073  15.241745081266 25.2223023341073  16.3002078699743 24.1795062935354  L 26.2496638152267 14.3770622021264  Z M 25.4029084687767 3.74037639007699  C 27.7315166809239 6.4516803128437  27.7315166809239 10.6229377978736  25.1912258340462 13.1256874007088  L 15.241745081266 22.9281314921178  C 14.8183550042772 23.3452401319809  14.3949897348161 23.3452401319809  13.9715996578272 22.9281314921178  L 3.81043627031651 13.1256874007088  C 1.0584627887083 10.6229377978736  1.0584627887083 6.24312599291214  3.81043627031651 3.74037639007699  C 6.35072711719418 1.23762678724184  10.5845534644996 1.23762678724184  13.3365269461078 3.53182207014542  L 14.6066723695466 4.57461811071734  L 15.8768177929855 3.53182207014542  C 18.6287912745937 1.02907246731028  22.6509349871685 1.23762678724184  25.4029084687767 3.74037639007699  Z " fill-rule="nonzero" fill="#f59a23" stroke="none" transform="matrix(1 0 0 1 22 8 )" />
  </g>
</svg>