<?xml version="1.0" encoding="utf-8"?>
<svg version="1.1" xmlns:xlink="http://www.w3.org/1999/xlink" width="32px" height="32px" xmlns="http://www.w3.org/2000/svg">
  <g transform="matrix(1 0 0 1 -19 -79 )">
    <path d="M 25.5951843261719 30.2176818847656  C 25.0874099732552 30.6203994752083  24.4920883177604 30.830513000599  23.8617477415885 30.830513000599  C 23.4240112304688 30.830513000599  22.9512557982292 30.7079467773438  22.4960098267708 30.4803237916146  L 16.0525283814583 27.2585830689583  L 9.57402801502604 30.4803237916146  C 9.17131042458333 30.6904373170052  8.69855499234375 30.8130035402604  8.20829010020833 30.8130035402604  C 7.57794952403646 30.8130035402604  6.98262786854167 30.6203994752083  6.474853515625 30.2527008058854  C 5.56436157226563 29.5698318482552  5.10911560036458 28.3966979980469  5.31922912575521 27.3286209107552  L 6.64994812033854 20.4474029543229  L 1.57220458984375 15.7198486328125  C 0.784278869739584 14.8969039915885  0.486618041770833 13.7587890625  0.766769408958333 12.6732025144271  L 0.784278869739584 12.63818359375  C 1.1519775390625 11.5350875853385  2.06246948242188 10.7471618652344  3.18307495117188 10.6070861816406  L 10.2393875123177 9.32889556895833  L 13.4085998535156 2.90292358398437  C 13.9163742064323 1.88737487770833  14.9494323730469 1.22201538085937  16.0525283814583 1.22201538085937  C 17.1906433105469 1.22201538085937  18.2587203982812 1.90488433848958  18.6964569089583 2.92043304432291  L 21.8481597902604 9.32889556895833  L 28.9044723509635 10.5545578001823  C 30.0250778197135 10.7121429441146  30.9530792234115 11.517578125  31.2507400513802 12.6031646730729  C 31.6009292603646 13.6712417603646  31.3207778931771 14.8443756105729  30.5153427122917 15.6323013306771  L 30.4978332519531 15.6498107910156  L 25.4551086425781 20.4298934935417  L 26.7332992552604 27.3111114504167  C 26.943412780651 28.4142074588281  26.5056762695312 29.5173034672396  25.5951843261719 30.2176818847656  Z M 9.22383880604166 28.2040939329948  L 16.0525283814583 24.8422775267448  L 22.8111801146354 28.221603393776  C 23.0037841796875 28.3266601566927  23.2314071654167 28.3791885377083  23.3889923097917 28.3791885377083  C 23.6341247563021 28.3791885377083  23.8617477420313 28.3091506959115  24.0193328859635 28.1690750123177  L 24.0543518066406 28.1515655519792  C 24.4395599367448 27.8714141847917  24.6321640013542 27.3986587525521  24.5446166992188 26.9609222414323  L 23.1788787839583 19.624458313099  L 28.5717926027604 14.5467147826042  C 28.9044723514063 14.2140350339583  29.0095291138802 13.7237701413802  28.8694534302865 13.2860336302604  L 28.8519439699479 13.2335052492448  C 28.7293777466927 12.8132781984635  28.3791885377083 12.4981079101563  27.9239425658073 12.4280700683594  L 27.8889236451302 12.4280700683594  L 20.4298934935417 11.1323699953385  L 17.0680770872917 4.32118988026042  C 16.9104919433594 3.93598175015625  16.4552459714583 3.65583038296875  16.0175094603385 3.65583038341146  C 15.5797729492188 3.65583038385417  15.1595458984375 3.93598175059896  14.9494323730469 4.35620880138021  L 11.622634887474 11.1148605345573  L 4.14609527598958 12.4981079101563  C 3.69084930408854 12.5506362916146  3.34066009510417 12.8658065794792  3.18307495117188 13.3210525513802  C 3.06050872791667 13.7587890625  3.20058441151042 14.2665634158594  3.51575469981771 14.5992431640625  L 8.90866851817708 19.624458313099  L 7.49040222190104 26.9609222409896  C 7.40285491976562 27.3811492917708  7.61296844515625 27.871414184349  7.98066711447917 28.1515655519792  C 8.17327117953125 28.2916412355729  8.40089416526042 28.3616790773698  8.66353607166666 28.3616790773698  C 8.85614013671875 28.3616790773698  9.04874420177083 28.3091506959115  9.20632934570312 28.221603393776  L 9.22383880604166 28.2040939329948  Z " fill-rule="nonzero" fill="#f59a23" stroke="none" transform="matrix(1 0 0 1 19 79 )" />
  </g>
</svg>