<?xml version="1.0" encoding="utf-8"?>
<svg version="1.1" xmlns:xlink="http://www.w3.org/1999/xlink" width="29px" height="22px" xmlns="http://www.w3.org/2000/svg">
  <g transform="matrix(1 0 0 1 -23 -45 )">
    <path d="M 27.7941275791016 6.56745989858491  C 27.0561139423828 5.28874710141509  26.0032867558594 4.14306651415094  24.6648582236328 3.16222269103774  C 21.9452551308594 1.16923490801887  18.33888225 0.0716593702830187  14.510027203125 0.0716593702830187  C 10.6796362041016 0.0716593702830187  7.07224900292969 1.16923490801887  4.3524720234375 3.16224923113208  C 3.01395654785156 4.14303994811321  1.96112936132812 5.28877364150943  1.22317369628906 6.56753954481132  C 0.451687772460937 7.90436601650944  0.0605689355468743 9.32638512735849  0.0605689355468743 10.7939872264151  C 0.0605689355468743 12.0955844339623  0.370079082031249 13.3673416509434  0.980463237304687 14.5739234528302  C 1.5087170703125 15.6181905259434  2.24864340429687 16.5878045424528  3.18317279394531 17.4611818938679  C 2.98057114746094 18.0928659221698  2.48263075390625 19.5281855896226  2.01795981738281 20.8344287146226  L 1.65054692285156 21.8673332287736  L 2.82370051855469 21.7088149009434  C 2.83966870019531 21.7066114245283  4.44016655078125 21.4901917948113  6.03869376074219 21.2642945495283  C 7.96501771289063 20.9921771462264  8.81680820507813 20.8634722688679  9.22731487304688 20.7809344174528  C 10.9091895556641 21.2705864457547  12.6851924326172 21.5186778514151  14.5101141464844 21.5186778514151  C 18.3387663066406 21.5186778514151  21.9451971591797 20.4206510023585  24.6649741386719 18.4268136768868  C 26.0033736992188 17.445704375  27.0562588574219 16.2997317688679  27.7942434941406 15.0208065731132  C 28.5657584179688 13.6836880825472  28.9570511132813 12.2615893254717  28.9570511132813 10.7939872264151  C 28.9569931699219 9.32635858726415  28.5657584179688 7.90439255660377  27.7941275791016 6.56745989858491  Z M 14.5100851748047 20.1727188632075  C 12.7677574716797 20.1727188632075  11.0764351894531 19.9268309339623  9.48312446777344 19.4418513632075  L 9.12866579394531 19.3338805  L 8.92887525 19.4645499410377  C 8.40233125585938 19.5683262240566  6.11444844433594 19.8971767759434  3.77987826660156 20.2176912476415  C 3.867630765625 19.9676618183962  3.96381654394532 19.6925179622641  4.05953866210938 19.4166041839623  C 4.73895403222657 17.4585270801887  4.73715725 17.3806616863208  4.73394043066406 17.2393730165094  L 4.72750679199219 16.9594239504717  L 4.5062418046875 16.7662604221698  C 3.55870025097657 15.9389439103774  2.82094744433594 15.010904134434  2.31355945117188 14.0079723632075  C 1.7935360390625 12.9800323254717  1.529843796875 11.8986776367925  1.529843796875 10.7939872264151  C 1.529843796875 5.62383644339623  7.35272088867188 1.41767146462264  14.5099982597656 1.41767146462264  C 21.6658845654297 1.41767146462264  27.4876024501953 5.62383644339623  27.4876024501953 10.7939872264151  C 27.4876893369141 15.9654388632075  21.6659424804688 20.1727188632075  14.5100851748047 20.1727188632075  Z " fill-rule="nonzero" fill="#f59a23" stroke="none" transform="matrix(1 0 0 1 23 45 )" />
  </g>
</svg>