<?xml version="1.0" encoding="utf-8"?>
<svg version="1.1" xmlns:xlink="http://www.w3.org/1999/xlink" width="24px" height="27px" xmlns="http://www.w3.org/2000/svg">
  <g transform="matrix(1 0 0 1 -23 -121 )">
    <path d="M 22.9285714285714 20.671875  L 21.8571428571429 20.671875  L 21.8571428571429 11.8125  C 21.8563280462851 6.86240656927917  18.0703005168292 2.70649107585549  13.0714285714286 2.1684375  L 13.0714285714286 1.0546875  C 13.0714285714286 0.472199677912835  12.591733660533 0  12 0  C 11.408266339467 0  10.9285714285714 0.472199677912835  10.9285714285714 1.0546875  L 10.9285714285714 2.1684375  C 5.92969948317079 2.70649107585549  2.14367195371485 6.86240656927917  2.14285714285714 11.8125  L 2.14285714285714 20.671875  L 1.07142857142857 20.671875  C 0.479694910895578 20.671875  0 21.1440746779128  0 21.7265625  C 0 22.3090503220872  0.479694910895578 22.78125  1.07142857142857 22.78125  L 6.93 22.78125  C 7.35057211475818 25.2145704861329  9.49253292899394 26.9946276503657  12 26.9946276503657  C 14.5074670710061 26.9946276503657  16.6494278852418 25.2145704861329  17.07 22.78125  L 22.9285714285714 22.78125  C 23.5203050891044 22.78125  24 22.3090503220872  24 21.7265625  C 24 21.1440746779128  23.5203050891044 20.671875  22.9285714285714 20.671875  Z M 14.8735714285714 22.78125  C 14.4946546775202 24.0323177095587  13.326208976017 24.8900274317192  12 24.890625  C 10.673791023983 24.8900274317192  9.50534532247978 24.0323177095587  9.12642857142857 22.78125  L 14.8735714285714 22.78125  Z M 19.7142857142857 20.671875  L 4.28571428571429 20.671875  L 4.28571428571428 11.8125  C 4.28571428571428 7.61858768097241  7.73951764416245 4.21875  12 4.21875  C 16.2604823558375 4.21875  19.7142857142857 7.61858768097241  19.7142857142857 11.8125  L 19.7142857142857 20.671875  Z " fill-rule="nonzero" fill="#f59a23" stroke="none" transform="matrix(1 0 0 1 23 121 )" />
  </g>
</svg>