<?xml version="1.0" encoding="utf-8"?>
<svg version="1.1" xmlns:xlink="http://www.w3.org/1999/xlink" width="41px" height="39px" xmlns="http://www.w3.org/2000/svg">
  <g transform="matrix(1 0 0 1 -289 -682 )">
    <path d="M 22.1471069335938 2.3115625  C 22.1050659179688 2.588828125  21.863330078125 2.5355078125  21.695166015625 2.5568359375  C 21.4534301757813 2.588828125  21.2011840820312 2.5675  20.9594482421875 2.5675  C 16.9655517578125 2.5675  12.9716552734375 2.5568359375  8.9777587890625 2.5781640625  C 7.821630859375 2.5781640625  6.67601318359375 2.7274609375  5.5724365234375 3.12203125  C 3.617529296875 3.8151953125  2.440380859375 5.2015234375  1.9569091796875 7.21703125  C 1.77823486328125 7.963515625  1.7046630859375 8.7206640625  1.7046630859375 9.4884765625  C 1.7046630859375 16.6547265625  1.69415283203125 23.8103125  1.71517333984375 30.9765625  C 1.71517333984375 32.448203125  1.809765625 33.91984375  2.36680908203126 35.3275  C 3.09201660156251 37.1510546875  4.43732910156251 38.228125  6.2871337890625 38.7080078125  C 6.94927978515625 38.8786328125  7.6324462890625 38.9426171875  8.31561279296875 39  L 31.2279663085938 39  C 32.1003173828125 38.9426171875  32.9726684570313 38.86796875  33.8345092773437 38.69734375  C 36.3990112304687 38.2174609375  38.0806518554687 36.4898828125  38.55361328125 33.898515625  C 38.595654296875 33.66390625  38.511572265625 33.343984375  38.8584106445312 33.23734375  L 38.8584106445312 8.49671875  C 38.8163696289062 8.4540625  38.805859375 8.4007421875  38.805859375 8.3367578125  C 38.6482055664062 7.8248828125  38.6271850585937 7.2916796875  38.4590209960937 6.769140625  C 37.71279296875 4.5296875  36.1782958984375 3.20734375  33.9606323242188 2.631484375  C 33.2879760742188 2.460859375  32.6153198242188 2.375546875  31.9111328125 2.4075390625  C 31.7744995117188 2.418203125  31.5958251953125 2.5141796875  31.5012329101563 2.3115625  L 22.1471069335938 2.3115625  Z M 8.30510253906249 6.8864453125  C 16.229833984375 6.87578125  24.1545654296875 6.8864453125  32.0687866210938 6.897109375  C 32.4891967773438 6.897109375  32.9201171875 6.9930859375  33.3195068359375 7.1210546875  C 34.0447143554687 7.3556640625  34.4441040039063 7.9315234375  34.4441040039063 8.731328125  C 34.4441040039063 16.708046875  34.4546142578125 24.684765625  34.43359375 32.661484375  C 34.43359375 33.855859375  33.5297119140625 34.581015625  32.2159301757812 34.5916796875  C 28.2010131835937 34.623671875  24.1966064453125 34.60234375  20.181689453125 34  L 8.3051025390625 34  C 7.83214111328125 34.60234375  7.401220703125 34.4637109375  6.97030029296874 34.3144140625  C 6.07692871093749 33.983828125  5.96131591796874 33.1946875  5.95080566406249 32.405546875  C 5.92978515624999 28.4065234375  5.94029541015624 24.4075  6 20.4084765625  L 6 9.157890625  C 5.94029541015624 8.4647265625  6.09794921874999 7.8248828125  6.66550292968749 7.345  C 7.14897460937499 6.939765625  7.74805908203122 6.8864453125  8.30510253906249 6.8864453125  Z " fill-rule="nonzero" fill="#aaaaaa" stroke="none" transform="matrix(1 0 0 1 289 682 )" />
  </g>
</svg>