<?xml version="1.0" encoding="utf-8"?>
<svg version="1.1" xmlns:xlink="http://www.w3.org/1999/xlink" width="87px" height="41px" xmlns="http://www.w3.org/2000/svg">
  <g transform="matrix(1 0 0 1 -243 -682 )">
    <path d="M 68.1531652113971 2.26771240234374  C 68.0272231158088 2.48842773437499  67.8173196231618 2.36230468749999  67.6389016544118 2.3623046875  C 63.4933076746324 2.37281494140625  59.3477136948529 2.37281494140625  55.2126148897059 2.37281494140625  C 54.2260684742647 2.37281494140625  53.2605124080882 2.47791748046875  52.3054515165441 2.6986328125  C 51.0880112591912 2.98240966796875  49.9860179227941 3.50792236328125  49.1568991268382 4.45384521484375  C 48.0444106158088 5.7255859375  47.60361328125 7.281103515625  47.60361328125 8.93121337890625  C 47.5826229319853 16.2463500976562  47.5826229319853 23.5719970703125  47.60361328125 30.8871337890625  C 47.60361328125 31.8435668945313  47.6770795036765 32.8105102539062  47.8974781709559 33.7459228515625  C 48.1913430606618 34.9756225585937  48.6951114430147 36.1107299804687  49.6501723345588 36.9515502929687  C 50.8781077665441 38.0341064453125  52.3684225643382 38.5280883789062  54.0056698069853 38.5280883789062  C 61.7825942095588 38.5385986328125  69.5700137867647 38.5385986328125  77.3469381893382 38.5280883789062  C 78.3229894301471 38.5280883789062  79.3095358455882 38.475537109375  80.2541015625 38.2127807617187  C 82.2481847426471 37.6452270507812  83.7804802389706 36.541650390625  84.4521714154412 34.4501098632812  C 84.6305893841912 33.89306640625  84.6410845588235 33.3044921875  84.8509880514706 32.757958984375  C 84.5151424632353 32.8630615234375  84.5886086856618 33.178369140625  84.5466279871324 33.4095947265625  C 84.0743451286765 35.9740966796875  82.3951171875 37.6662475585937  79.8342945772059 38.139208984375  C 78.9736902573529 38.2968627929687  78.1025907628676 38.3809448242187  77.2314912683824 38  L 54.352010569853 38  C 53.66982421875 38.3809448242187  52.9876378676471 38.3178833007812  52.3264418658088 38.1497192382812  C 50.4897863051471 37.6767578125  49.1359087775735 36.6152221679687  48.4117417279412 34.81796875  C 47.8554974724265 33.4411254882812  47.7610409007353 31.9802001953125  47.7610409007353 30.52978515625  C 47.7400505514706 23.46689453125  47.7505457261029 16.4145141601562  47.7505457261029 9.35162353515624  C 47.7505457261029 8.59488525390625  47.8240119485294 7.84865722656249  48.0024299172794 7.11293945312499  C 48.4852079503677 5.12650146484374  49.6606675091912 3.76016845703124  51.6127699908088 3.07700195312499  C 52.7147633272059 2.68812255859374  53.8587373621324 2.55148925781249  55.0132065716912 2.54097900390624  C 59.0013729319853 2.51995849609374  62.9895392922794 2.53046874999999  66.9777056525735 2.53046874999999  C 67.2190946691176 2.53046874999999  67.4709788602941 2.55148925781249  67.7123678768382 2.51995849609374  C 67.8907858455882 2.49893798828124  68.1216796875 2.54097900390624  68.1531652113971 2.26771240234374  Z M 3 32.3060180664062  C 2.46386718750002 32.4006103515625  2.39040096507355 32.673876953125  2.42188648897059 32.8735717773438  C 2.63178998161765 34.187353515625  2.99912109375 35.4380737304687  3.92269646139706 36.4470581054688  C 5.12964154411765 37.7818603515625  6.70391773897059 38.3389038085938  8.43562155330882 38.3494140625  C 16.3174977022059 38.3809448242188  24.1993738511029 38.3809448242188  32.0917451746324 38.3494140625  C 33.0782915900735 38.3494140625  34.0753331801471 38.2443115234375  35.0408892463235 37.9395141601563  C 37.61220703125 37.130224609375  39.1445025275735 35.07021484375  39.1445025275735 32.3585693359375  C 39.1445025275735 24.5809814453125  39.1445025275735 16.8139038085938  39.1549977022059 9.03631591796875  C 39.1549977022059 8.36365966796875  39.0710363051471 7.71202392578125  38.9031135110294 7.06038818359375  C 38.294393382353 4.70609130859375  36.331795726103 2.95087890625  33.9179055606618 2.61455078125  C 33.4876034007353 2.5514892578125  33.0573012408088 2.49893798828125  32.61650390625 2.49893798828125  C 32.406600413603 2.49893798828125  32.1442210477941 2.56199951171875  32.0707548253677 2.24669189453125  L 22.7300494025735 2.24669189453125  C 22.593612132353 2.4674072265625  22.3837086397059 2.3412841796875  22.2157858455883 2.3412841796875  C 17.9022690716912 2.35179443359375  13.5887522977941 2.320263671875  9.27523552389708 2.3623046875  C 7.72194967830884 2.37281494140625  6.21064453125002 2.6355712890625  4.84627182904414 3.48690185546875  C 3.53437500000002 4.30670166015625  2.76822725183825 5.4943603515625  2.35891544117649 6.95528564453125  C 2.27495404411766 7.2390625  2.33792509191178 7.5543701171875  3 7.81712646484375  L 3 32.3060180664062  Z M 6.56748046874999 32.37958984375  C 6.55698529411764 24.4653686523437  6.55698529411764 16.530126953125  6.56748046875 8.59488525390625  C 6.56748046875 7.7435546875  7.21818129595588 7.06038818359375  8.08928079044118 6.8817138671875  C 8.5510684742647 6.78712158203125  9.01285615808824 6.776611328125  9.47464384191176 7  L 32.4590762867647 7  C 32.9103687959559 6.776611328125  33.3406709558824 6.860693359375  33.7604779411765 6.98681640625  C 34.5476160386029 7.2390625  34.8939568014706 7.71202392578125  35 8.5213134765625  L 35 32.2219360351563  C 34.8939568014706 33.0837768554688  34.4951401654412 33.6197998046875  33.6765165441176 33.89306640625  C 33.2567095588235 34.0296997070313  32.826407398897 34.1137817382813  32.3751148897059 34.103271484375  C 28.4709099264706 34.0927612304687  24.5772001378676 34.0927612304687  20.6729951746323 34.0927612304687  C 16.7163143382353 34.0927612304687  12.7701286764706 34.103271484375  8.81344784007352 34.0822509765625  C 8.15225183823529 34.0822509765625  7.49105583639705 33.9876586914062  6.99778262867646 33.4411254882812  C 6.71441291360293 33.1258178710937  6.56748046874999 32.7789794921875  6.56748046874999 32.37958984375  Z " fill-rule="nonzero" fill="#aaaaaa" stroke="none" transform="matrix(1 0 0 1 243 682 )" />
  </g>
</svg>