<?xml version="1.0" encoding="utf-8"?>
<svg version="1.1" xmlns:xlink="http://www.w3.org/1999/xlink" width="41px" height="84px" xmlns="http://www.w3.org/2000/svg">
  <g transform="matrix(1 0 0 1 -243 -682 )">
    <path d="M 2.16260986328124 32.1433238636364  C 2.29924316406249 32.1537642045455  2.25720214843749 32.2790482954546  2.2572021484375 32.3625710227273  C 2.26771240234375 33.2917613636364  2.53046875 34.16875  2.9298583984375 34.9830965909091  C 4.0229248046875 37.2173295454545  5.96732177734375 38.2196022727273  8.3531494140625 38.2404829545455  C 16.1832885742188 38.303125  24.013427734375 38.2613636363636  31.833056640625 38.2613636363636  C 32.8105102539062 38.2613636363636  33.7879638671875 38.1778409090909  34.7443969726562 37.9481534090909  C 37.59267578125 37.2486505681818  39.3268676757812 35.1919034090909  39.3478881835937 32.2686079545455  C 39.400439453125 24.5636363636364  39.3689086914062 16.8586647727273  39.3689086914062 9.15369318181818  C 39.3689086914062 8.64211647727273  39.3689086914062 8.13053977272727  39.27431640625 7.61896306818182  C 38.9590087890625 5.92762784090909  38.1497192382813 4.54950284090909  36.7308349609375 3.54723011363637  C 35.57470703125 2.73288352272728  34.2609252929688 2.39879261363637  32.8525512695313 2.35703125  C 32.6108154296875 2.34659090909091  32.337548828125 2.48231534090909  32.12734375 2.26306818181818  C 32.2009155273438 2.57627840909091  32.4741821289063 2.51363636363637  32.673876953125 2.51363636363637  C 33.1153076171875 2.51363636363637  33.5462280273438 2.57627840909091  33.9771484375 2.62848011363636  C 36.3945068359375 2.96257102272728  38.3599243164063 4.70610795454546  38.9695190429688 7.04474431818182  C 39.1376831054688 7.69204545454545  39.2217651367187 8.33934659090909  39.2217651367187 9.00752840909091  C 39.2112548828125 16.7333806818182  39.2217651367187 24.4487926136364  39.2112548828125 32.1746448863636  C 39.2112548828125 34.8578125  37.6767578125 36.9041193181818  35.1017456054687 37.7184659090909  C 34.1348022460937 38.0212357954546  33.136328125 38.1256392045455  32.1483642578125 38.1256392045455  C 24.2551635742187 38.1465198863636  16.361962890625 38.1569602272727  8.45825195312499 38.1256392045455  C 6.72406005859374 38.1151988636364  5.15803222656249 37.5618607954545  3.93884277343749 36.2359375  C 3.01394042968749 35.2232244318182  2.64608154296874 33.9912642045455  2.43587646484374 32.6862215909091  C 2.40434570312499 32.4878551136364  2.47791748046874 32.2059659090909  2.16260986328124 32.1433238636364  Z M 9.51978759765625 82.2256392045454  C 9.54080810546875 81.9855113636364  9.7405029296875 81.9959517045454  9.9086669921875 81.9750710227273  C 10.1293823242188 81.94375  10.3606079101563 81.9646306818182  10.5918334960938 82  L 32.2429565429688 82  C 33.1258178710937 81.9646306818182  33.9876586914063 81.8602272727273  34.8389892578125 81.6409801136364  C 37.5191040039063 80.9519176136364  39.190234375 78.8325284090909  39.2007446289063 76.08671875  C 39.2112548828125 73.4453125  39.2007446289063 70.7934659090909  39 68.1520596590909  L 39 52.7003551136364  C 39.2007446289063 49.328125  36.9515502929688 46.8328835227273  33.5672485351562 46.4674715909091  C 32.3690795898438 46.3421875  31.160400390625 46.2899857954545  29.9517211914063 46.2586647727273  C 26.32568359375 46.1855823863636  22.6996459960938 46.3108664772727  19.0841186523438 46.3943892045454  C 15.6157348632813 46.4779119318182  12.1473510742188 46.4152698863636  8.6894775390625 46.4674715909091  C 7.48079833984375 46.4883522727273  6.31416015625 46.7493607954545  5.25262451171875 47.3131392045455  C 3.82322998046875 48.06484375  2.95087890625 49.2446022727273  2.5514892578125 50.8002130681818  C 2.47791748046875 51.0925426136364  2.54097900390625 51.4788352272727  2.16260986328125 51.6354403409091  L 2.16260986328125 76.0658380681818  C 2.37281494140625 76.6400568181818  2.39383544921875 77.2560369318182  2.572509765625 77.8511363636364  C 3.19261474609375 80.0122869318182  4.6114990234375 81.3277698863636  6.7555908203125 81.9124289772727  C 7.43875732421875 82.1003551136364  8.1429443359375 82.1525568181818  8.84713134765625 82.1316761363636  C 8.99427490234375 82.1316761363636  9.1939697265625 82.0168323863636  9.30958251953125 82.2256392045454  L 9.51978759765625 82.2256392045454  Z M 30.3090698242188 77.7467329545455  C 23.1095458984375 77.7258522727273  15.9100219726563 77.7362926136364  8.710498046875 77.7362926136364  C 7.4282470703125 77.7362926136364  6.53487548828125 77.0472301136364  6.5453857421875 75.5960227272727  C 6.5874267578125 67.9432528409091  6.56640625 60.2904829545455  6.55589599609375 52.6272727272727  C 6.55589599609375 51.3953125  7.29161376953125 50.7375710227273  8.4792724609375 50.6958096590909  C 16.319921875 50.4452414772727  24.1500610351563 50.6436079545455  31.9907104492187 50.6122869318182  C 32.6633666992187 50.6122869318182  33.3990844726562 50.5705255681818  34.0507202148438 50.9254971590909  C 34.6182739257812 51.2387073863636  34.944091796875 51.6772017045455  34.944091796875 52.3558238636364  C 34.9335815429687 56.2709517045455  34.944091796875 60.1860795454546  34.944091796875 64.1012073863636  C 34.944091796875 67.9850142045455  34.9230712890625 71.8583806818182  34.9546020507813 75.7421875  C 34.9651123046875 77.00546875  34.1348022460938 77.5796875  32.9891845703125 77.7571732954546  C 32.085302734375 77.8928977272727  31.20244140625 77.7571732954546  30.3090698242188 77.7467329545455  Z " fill-rule="nonzero" fill="#aaaaaa" stroke="none" transform="matrix(1 0 0 1 243 682 )" />
  </g>
</svg>