<?xml version="1.0" encoding="utf-8"?>
<svg version="1.1" xmlns:xlink="http://www.w3.org/1999/xlink" width="41px" height="39px" xmlns="http://www.w3.org/2000/svg">
  <g transform="matrix(1 0 0 1 -243 -727 )">
    <path d="M 9.50927734375 37.176953125  C 9.66693115234375 36.9743359375  9.89815673828125 37.091640625  10.0873413085938 37.091640625  C 17.2132934570313 37.0809765625  24.349755859375 37.0809765625  31.4757080078125 37.091640625  C 32.463671875 37.091640625  33.4411254882812 37.0703125  34.4185791015625 36.8676953125  C 35.7323608398438 36.60109375  36.92001953125 36.0358984375  37.8344116210938 35.044140625  C 38.85390625 33.935078125  39.3583984375 32.54875  39.3583984375 31.034453125  C 39.3794189453125 23.1110546875  39.3689086914063 15.1769921875  39.3689086914063 7.25359375  C 39.3689086914063 6.5817578125  39.3268676757813 5.93125  39.1587036132813 5.2807421875  C 38.60166015625 3.15859375  37.3404296875 1.68695312499999  35.3014404296875 0.876484375000002  C 33.9035766601563 0.321953124999998  32.4321411132813 0.343281250000002  30.992236328125 0.311289062500006  C 28.5643676757813 0.257968750000006  26.1364990234375 0.215312500000007  23.7086303710938 0.364609375000006  C 21.7116821289063 0.492578125000009  19.6937133789063 0.396601562500002  17.6862548828125 0.471250000000006  C 14.7854248046875 0.567226562500004  11.8740844726563 0.503242187500002  8.962744140625 0.492578125000009  C 8.290087890625 0.492578125000009  7.62794189453125 0.556562500000011  6.9657958984375 0.705859375000009  C 5.0319091796875 1.15375000000001  3.54996337890625 2.17750000000001  2.6986328125 4.04371093750001  C 2.4253662109375 4.65156250000001  2.404345703125 5.32339843750001  2.152099609375 5.93125000000001  C 2.54097900390625 5.77128906250001  2.4674072265625 5.37671875000001  2.54097900390625 5.07812500000001  C 2.94036865234375 3.48917968750001  3.82322998046875 2.28414062500001  5.2421142578125 1.51632812500001  C 6.31416015625 0.940468750000013  7.4702880859375 0.673867187500013  8.67896728515625 0.652539062500009  C 12.1473510742188 0.599218750000009  15.605224609375 0.663203125000011  19.0736083984375 0.577890625000006  C 22.6996459960938 0.492578125000009  26.3151733398437 0.364609375000006  29.9412109375 0.439257812500009  C 31.1498901367187 0.460585937500013  32.3585693359375 0.513906250000013  33.55673828125 0.652539062500009  C 36.9410400390625 1.02578125000001  39.1797241210937 3.57449218750001  39 7.01898437500001  L 39 22.801796875  C 39.190234375 25.4998046875  39.2007446289063 28.2084765625  39.190234375 30.906484375  C 39.1692138671875 33.721796875  37.50859375 35.8759375  34.8284790039062 36.579765625  C 33.9771484375 36.8037109375  33.1153076171875 36.9103515625  32.2324462890625 37  L 10.5813232421875 37  C 10.35009765625 36.9103515625  10.1293823242187 36.8996875  9.89815673828125 36.921015625  C 9.72999267578125 36.94234375  9.5302978515625 36.921015625  9.50927734375 37.176953125  Z " fill-rule="nonzero" fill="#aaaaaa" stroke="none" transform="matrix(1 0 0 1 243 727 )" />
  </g>
</svg>