<?xml version="1.0" encoding="utf-8"?>
<svg version="1.1" xmlns:xlink="http://www.w3.org/1999/xlink" width="87px" height="84px" xmlns="http://www.w3.org/2000/svg">
  <g transform="matrix(1 0 0 1 -243 -682 )">
    <path d="M 2.34842026654412 6.92990056818182  C 2.76822725183824 5.47869318181818  3.52387982536765 4.29893465909091  4.83577665441176 3.48458806818182  C 6.20014935661765 2.64936079545455  7.71145450367647 2.37791193181818  9.26474034926471 2.36747159090909  C 13.5782571231618 2.32571022727273  17.8917738970588 2.35703125  22.2052906709559 2.34659090909091  C 22.3732134650735 2.34659090909091  22.5831169577206 2.471875  22.7195542279412 2.25262784090909  C 22.5411362591912 2.35703125  22.3417279411765 2.30482954545454  22.1528147977941 2.30482954545454  C 17.4509765625 2.33615056818182  12.7491383272059 2.22130681818182  8.04730009191177 2.36747159090909  C 6.06371208639706 2.43011363636364  4.38448414522059 3.21313920454545  3.16704388786765 4.83139204545454  C 2.50584788602941 5.70838068181818  2.21198299632353 6.71065340909091  2.14901194852941 7.78600852272727  C 2.33792509191177 7.53544034090909  2.27495404411765 7.22223011363636  2.34842026654412 6.92990056818182  Z M 77.5148609834559 2.2421875  C 77.5988223805147 2.4614346590909  77.787735523897 2.35703125  77.9241727941176 2.34659090909091  C 78.6168543198529 2.31526988636364  79.2990406709559 2.39879261363636  79.9707318474265 2.56583806818182  C 82.1747185202206 3.12961647727273  83.7175091911765 4.42421875  84.4626665900735 6.61669034090909  C 84.6305893841912 7.11782670454545  84.6515797334559 7.65028409090909  84.8090073529412 8.15142045454545  L 84.8090073529412 8.10965909090909  C 84.8509880514706 5.17592329545454  82.248184742647 2.55539772727272  79.2780503216912 2.33615056818181  C 78.6903205422794 2.29438920454545  78.1025907628676 2.38835227272727  77.5148609834559 2.2421875  Z M 9.28573069852941 82.2151988636364  C 9.17028377757353 82.0168323863636  8.97087545955882 82.1212357954546  8.82394301470588 82.1316761363636  C 8.12076631433824 82.1525568181818  7.41758961397059 82.1003551136364  6.73540326286765 81.9124289772727  C 4.59438763786765 81.3277698863636  3.1775390625 80.0122869318182  2.55832375919117 77.8511363636364  C 2.39040096507353 77.2560369318182  2.36941061580882 76.6400568181818  2.14901194852941 76.0658380681818  C 2.26445886948529 76.6191761363636  2.23297334558823 77.1933948863636  2.36941061580882 77.7467329545455  C 2.94664522058823 80.1271306818182  5.04568014705882 81.9855113636364  7.47006548713235 82.1316761363636  C 8.07878561580882 82.1734375  8.68750574448529 82.0690340909091  9.28573069852941 82.2151988636364  Z " fill-rule="nonzero" fill="#aaaaaa" stroke="none" transform="matrix(1 0 0 1 243 682 )" />
  </g>
</svg>