<?xml version="1.0" encoding="utf-8"?>
<svg version="1.1" xmlns:xlink="http://www.w3.org/1999/xlink" width="72px" height="72px" xmlns="http://www.w3.org/2000/svg">
  <g transform="matrix(1 0 0 1 -255 -694 )">
    <path d="M 43.2919084821429 49.3036272321428  C 43.2919084821429 48.0380022321428  42.4059709821429 47.2047991071429  41.0243303571429 47.2258928571429  C 39.7270647321429 47.2469866071429  38.8727678571429 48.1012834821429  38 49.3352678571429  L 38 67.4547991071429  C 38.8727678571429 68.7520647321429  39.7692522321429 69.5747209821429  41.0665178571429 69.5536272321428  C 42.4270647321428 69.5325334821428  43.2813616071429 68.8258928571429  43.2919084821429 67.4758928571428  C 43.3130022321429 61.4219866071429  43.3024553571429 55.3575334821429  43.2919084821429 49.3036272321428  Z M 69.6801897321429 49.7465959821429  C 69.6696428571429 48.2278459821429  69.1950334821429 47.5212053571429  67.7079241071428 47.2469866071429  C 66.6637834821429 47.0571428571429  65.2505022321429 47.7637834821429  65.2505022321429 49.1665178571429  C 65.2294084821428 52.2462053571429  65.2505022321429 55.3153459821429  65.2505022321429 58.3950334821429  L 65.2505022321429 67.5708147321429  C 65.2505022321429 67.7395647321429  65.2399553571429 67.9294084821429  65.2926897321429 68.0876116071429  C 65.6407366071429 69.0790178571428  66.8114397321428 69.7962053571429  67.7712053571429 69.5641741071429  C 68.9735491071428 69.2794084821429  69.6590959821428 68.8047991071429  69.6696428571429 67.3071428571429  C 69.6907366071429 61.4536272321429  69.6801897321429 55.6001116071429  69.6801897321429 49.7465959821429  Z M 57.9626116071429 54.0180803571428  C 57.9626116071429 53.8809709821429  57.9626116071429 53.7122209821428  57.9309709821429 53.5645647321429  C 57.6567522321429 52.5731584821429  56.5598772321429 51.7926897321429  55.6001116071429 51.9719866071428  C 54.2922991071429 52.2251116071428  53.5540178571429 52.6680803571429  53.5434709821429 54.1762834821428  C 53.5118303571429 58.5110491071428  53.5329241071429 62.8563616071428  53.5329241071429 67.1911272321428  C 53.5329241071429 68.6465959821428  54.1340959821429 69.3005022321428  55.3786272321429 69.5325334821428  C 56.5493303571429 69.7540178571429  57.9520647321429 69.0579241071428  57.9626116071429 67.5180803571428  L 57.9626116071429 60.8208147321428  L 57.9626116071429 54.0180803571428  Z M 57.9626116071429 36.4153459821429  C 57.9942522321429 34.4114397321429  56.4227678571429 34.0106584821429  55.0094866071429 34.3165178571429  C 54.0919084821429 34.5169084821429  53.5329241071429 35.3922991071429  53.5329241071429 36.4047991071428  L 53.5329241071429 45.7282366071429  C 53.5329241071429 47.1098772321429  53.9547991071429 47.9430803571429  55.4419084821429 48.2278459821429  C 56.5282366071429 48.4282366071429  57.9731584821429 47.6794084821429  57.9626116071429 46.2766741071429  C 57.9520647321429 44.6102678571429  57.9626116071429 42.9438616071429  57.9626116071429 41.2669084821429  C 57.9626116071429 39.6532366071429  57.9415178571429 38.0395647321429  57.9626116071429 36.4153459821429  Z M 43.2919084821429 36.1833147321429  C 43.2919084821429 35.5399553571428  43.0387834821429 34.9915178571429  42.4587053571429 34.5907366071429  C 41.9419084821429 34.2321428571429  41.3934709821429 34.2426897321429  40.8344866071429 34.2426897321429  C 39.7270647321429 34.2426897321429  38.8833147321429 35.0758928571429  38.8833147321429 36.1727678571429  L 38.8833147321429 38.9149553571429  C 38.8833147321429 39.8641741071429  38.8727678571429 40.8133928571429  38.8833147321429 41.7626116071429  C 38.8938616071429 42.2477678571429  39.0204241071429 42.6801897321429  39.4001116071429 43.0598772321428  C 39.9485491071429 43.6083147321429  40.5813616071429 43.7665178571429  41.3196428571429 43.7454241071428  C 42.3637834821429 43.7137834821429  43.3024553571429 42.8067522321429  43.3024553571429 41.7731584821429  C 43.3130022321429 39.9063616071428  43.3235491071429 38.0501116071428  43.2919084821429 36.1833147321429  Z M 69.6696428571429 36.3309709821428  C 69.6696428571429 36.0251116071429  69.5852678571429 35.7508928571428  69.4903459821429 35.4872209821429  C 69.2583147321428 34.8333147321429  68.4567522321429 34.2426897321429  67.6024553571428 34.2215959821429  C 66.0942522321429 34.1688616071429  65.1133928571429 35.0547991071429  65.2294084821428 36.6262834821428  C 65.2821428571428 37.3645647321428  65.2399553571429 38.1028459821428  65.2399553571429 38.8411272321428  L 65.2399553571429 41.4778459821428  C 65.2399553571429 41.6360491071428  65.2399553571429 41.7942522321428  65.2821428571428 41.9419084821428  C 65.6196428571429 43.0282366071428  66.6426897321429 43.5766741071428  67.8028459821429 43.4184709821428  C 68.9630022321429 43.2497209821429  69.6380022321428 42.5325334821428  69.6590959821428 41.3407366071428  C 69.6907366071428 39.6743303571428  69.6696428571429 37.9973772321428  69.6696428571429 36.3309709821428  Z M 14.0559709821429 4.67979910714285  C 14.0665178571429 4.46886160714285  14.0348772321429 4.25792410714285  13.9821428571429 4.04698660714286  C 13.7817522321429 3.27706473214286  13.1489397321429 2.70753348214286  12.3579241071429 2.60206473214286  C 12.2208147321429 2.58097098214286  12.0731584821429 2.55987723214286  11.9360491071429 2.55987723214286  C 11.8727678571429 2.55987723214286  11.7778459821429 2.58097098214286  11.7567522321429 2.47550223214286  L 8.71925223214286 2.47550223214286  C 8.67706473214286 2.54933035714285  8.60323660714286 2.50714285714286  8.55050223214286 2.50714285714286  C 7.14776785714286 2.50714285714286  5.74503348214285 2.49659598214286  4.34229910714286 2.51768973214286  C 3.83604910714286 2.51768973214286  3.34034598214286 2.61261160714286  2.89737723214286 2.88683035714286  C 2.46495535714286 3.15050223214286  2.22237723214286 3.54073660714286  2.08526785714286 4.01534598214286  C 2.06417410714286 4.11026785714286  2.08526785714286 4.21573660714286  2.02198660714286 4.28956473214286  L 2.02198660714286 12.2524553571429  C 2.12745535714286 12.2735491071429  2.09581473214286 12.3684709821429  2.10636160714286 12.4317522321429  C 2.18018973214286 12.8641741071429  2.29620535714287 13.2649553571429  2.59151785714286 13.5919084821429  C 2.98175223214286 14.0243303571429  3.49854910714286 14.2036272321429  4.05753348214286 14.2141741071429  C 6.62042410714286 14.2247209821429  9.19386160714286 14.2247209821429  11.7567522321429 14.2141741071429  C 12.0837053571429 14.2141741071429  12.4001116071429 14.1825334821429  12.7165178571429 14.0770647321429  C 13.5497209821429 13.8133928571429  14.0559709821429 13.1383928571429  14.0559709821429 12.2630022321429  L 14.0559709821429 4.67979910714285  Z M 59.7766741071428 3.86768973214285  C 59.7977678571428 3.65675223214285  59.7555803571428 3.43526785714285  59.7028459821429 3.23487723214285  C 59.5024553571429 2.46495535714285  58.8696428571429 1.89542410714286  58.0786272321429 1.78995535714286  C 57.9415178571429 1.76886160714286  57.7938616071429 1.74776785714286  57.6567522321429 1.74776785714286  C 57.5934709821429 1.74776785714286  57.4985491071429 1.76886160714286  57.4774553571429 1.66339285714286  L 54.4399553571429 1.66339285714286  C 54.3977678571429 1.73722098214286  54.3239397321429 1.69503348214286  54.2712053571429 1.69503348214286  C 52.8684709821429 1.69503348214286  51.4657366071429 1.68448660714286  50.0630022321429 1.70558035714285  C 49.5567522321429 1.70558035714285  49.0610491071429 1.80050223214286  48.6180803571429 2.07472098214285  C 48.1856584821429 2.33839285714285  47.9430803571429 2.72862723214285  47.8059709821428 3.20323660714285  C 47.7848772321429 3.29815848214286  47.8059709821428 3.40362723214286  47.7426897321428 3.47745535714286  L 47.7426897321428 11.4403459821429  C 47.8481584821428 11.4614397321429  47.8165178571429 11.5563616071429  47.8270647321428 11.6196428571429  C 47.9008928571428 12.0520647321429  48.0169084821428 12.4528459821429  48.3122209821429 12.7797991071429  C 48.7024553571428 13.2122209821429  49.2192522321428 13.3915178571429  49.7782366071428 13.4020647321429  C 52.3411272321428 13.4126116071429  54.9145647321428 13.4126116071429  57.4774553571428 13.4020647321429  C 57.8044084821429 13.4020647321429  58.1208147321429 13.3704241071429  58.4372209821429 13.2649553571429  C 59.2704241071428 13.0012834821429  59.7766741071428 12.3262834821429  59.7766741071428 11.4508928571429  L 59.7766741071428 3.86768973214285  Z M 13.9926897321429 48.8501116071429  C 14.0032366071429 48.6391741071429  13.9715959821429 48.4282366071429  13.9188616071429 48.2172991071429  C 13.7184709821429 47.4473772321429  13.0856584821429 46.8778459821429  12.2946428571429 46.7723772321429  C 12.1575334821429 46.7512834821428  12.0098772321429 46.7301897321429  11.8727678571429 46.7301897321429  C 11.8094866071429 46.7301897321429  11.7145647321429 46.7512834821429  11.6934709821429 46.6458147321429  L 8.65597098214286 46.6458147321429  C 8.61378348214286 46.7196428571429  8.53995535714285 46.6774553571429  8.48722098214285 46.6774553571429  C 7.08448660714286 46.6774553571429  5.68175223214285 46.6669084821429  4.27901785714286 46.6880022321429  C 3.77276785714286 46.6880022321429  3.27706473214286 46.7829241071429  2.83409598214286 47.0571428571429  C 2.40167410714286 47.3208147321429  2.15909598214286 47.7110491071429  2.02198660714286 48.1856584821429  C 2.00089285714286 48.2805803571429  2.02198660714286 48.3860491071429  1.95870535714286 48.4598772321429  L 1.95870535714286 56.4227678571429  C 2.06417410714286 56.4438616071429  2.03253348214286 56.5387834821429  2.04308035714286 56.6020647321429  C 2.11690848214286 57.0344866071429  2.23292410714286 57.4352678571429  2.52823660714286 57.7622209821429  C 2.91847098214286 58.1946428571429  3.43526785714286 58.3739397321429  3.99425223214286 58.3844866071429  C 6.55714285714286 58.3950334821429  9.13058035714286 58.3950334821429  11.6934709821429 58.3844866071429  C 12.0204241071429 58.3844866071429  12.3368303571429 58.3528459821429  12.6532366071429 58.2473772321429  C 13.4864397321429 57.9837053571429  13.9926897321429 57.3087053571429  13.9926897321429 56.4333147321429  L 13.9926897321429 48.8501116071429  Z " fill-rule="nonzero" fill="#aaaaaa" stroke="none" transform="matrix(1 0 0 1 255 694 )" />
  </g>
</svg>