<?xml version="1.0" encoding="utf-8"?>
<svg version="1.1" xmlns:xlink="http://www.w3.org/1999/xlink" width="34px" height="36px" xmlns="http://www.w3.org/2000/svg">
  <g transform="matrix(1 0 0 1 -168 -1246 )">
    <path d="M 17.9122461375 0  L 1.65641026458333 0  L 1.44717947083333 0.0138461484375  C 0.827499510173447 0.119922654630848  0.351903205658227 0.617936695163376  0.27827693125 1.2378461484375  L 0.261538447916667 1.4704615546875  L 0.261538447916667 34.5046153710937  L 0.275487195833333 34.7289230742188  C 0.332480645563561 35.3519945401976  0.795646153129706 35.8635900973956  1.413702575 35.9861538515625  L 1.631302575 36  L 32.3435897354167 36  L 32.5528205291667 35.9861538515625  C 33.1718463361285 35.8778237848531  33.645902478751 35.3791091806549  33.7189333333333 34.7593846289062  L 33.73567178125 34.5267692226562  L 33.73567178125 17.0501538515625  L 33.72172306875 16.8341538515625  C 33.6623250205587 16.2020015643707  33.1913611316415 15.6838077803326  32.5639794708333 15.560307703125  L 32.36032821875 15.543692296875  L 32.1789948854167 15.5575384453125  C 31.5503107731134 15.6633224754542  31.0679696051363 16.1692186015224  30.9961435979167 16.7981538515625  L 31 17.0169230742187  L 31 33  L 3 33  L 3 3  L 17.8843487125 3  L 18.0852102645833 2.95476922265625  C 18.7129934672486 2.84928460850383  19.1950755826722 2.34478882267351  19.2680615520833 1.71692307421875  L 19.2820102645833 1.503692296875  L 19.2736410229167 1.287692296875  C 19.2169803970875 0.655876760805227  18.7459836090248 0.137524307759238  18.1186871958333 0.0166153710937502  L 17.9122461375 0  Z M 29.5761640916667 0  L 29.5789538625 0  C 29.2861954369225 0.00193786039938909  29.003196431438 0.104712779806971  28.778297425 0.29076922265625  L 28.613702575 0.4458461484375  L 9.05202052916666 22.292307703125  L 8.90974359791667 22.472307703125  C 8.54972079196699 23.0153902360031  8.53561749285626 23.7153701551019  8.87347693125 24.272307703125  L 9.01296409166667 24.4550769257812  L 9.17197947083333 24.6129230742187  C 9.64065640208333 25.0172307773437  10.31577435625 25.028307703125  10.7928205291667 24.6378461484375  L 10.9629948854167 24.4744615546875  L 30.5302564020833 2.63076922265625  L 30.6697435979167 2.45076922265625  C 31.0300706949601 1.9064977674308  31.0430957658265 1.20508350978676  30.7032205291667 0.648  L 30.5637333333333 0.4624615546875  L 30.4075076895833 0.3101538515625  C 30.1771896839182 0.110552583505757  29.8819079608332 0.000390234339506464  29.5761640916667 0  Z " fill-rule="nonzero" fill="#ffffff" stroke="none" transform="matrix(1 0 0 1 168 1246 )" />
  </g>
</svg>