<?xml version="1.0" encoding="utf-8"?>
<svg version="1.1" xmlns:xlink="http://www.w3.org/1999/xlink" width="16px" height="14px" xmlns="http://www.w3.org/2000/svg">
  <g transform="matrix(1 0 0 1 -60 -40 )">
    <path d="M 14.85936325 7.87672426470588  L 13.46048825 7.87672426470588  L 13.46048825 12.9067647058824  C 13.46048825 13.2803382352941  13.29898825 13.7463272058824  12.62353825 13.7463272058824  L 9.27526325 13.7463272058824  L 9.27526325 8.71481985294118  L 5.92746325 8.71481985294118  L 5.92746325 13.7463272058824  L 2.57918825 13.7463272058824  C 1.90468825 13.7463272058824  1.74223825 13.2808272058824  1.74223825 12.9067647058824  L 1.74223825 7.87672426470588  L 0.34288825 7.87672426470588  C -0.15776175 7.87672426470588  -0.05041175 7.60485661764706  0.29301325 7.249375  L 7.00856325 0.514783088235294  C 7.16661334185405 0.353152303416677  7.37865728318709 0.259753423714693  7.60136325 0.253672794117647  C 7.81606325 0.261985294117647  8.03076325 0.345110294117647  8.19368825 0.514783088235294  L 14.90876325 7.24839705882353  C 15.25313825 7.60436764705883  15.35953825 7.87623529411765  14.85936325 7.87623529411765  Z " fill-rule="nonzero" fill="#000000" stroke="none" transform="matrix(1 0 0 1 60 40 )" />
  </g>
</svg>