<?xml version="1.0" encoding="utf-8"?>
<svg version="1.1" xmlns:xlink="http://www.w3.org/1999/xlink" width="93px" height="85px" xmlns="http://www.w3.org/2000/svg">
  <g>
    <path d="M 0 0  L 93 0  L 93 85  L 0 85  L 0 0  " fill-rule="nonzero" fill="#cccccc" stroke="none" />
    <path d="M 6 6  L 87 6  L 87 79  L 6 79  L 6 6  " fill-rule="nonzero" fill="#ffffff" stroke="none" />
    <path d="M 54.735 25.5  C 51.165 25.5  48.36 22.695  48.36 19.125  C 48.36 15.555  51.165 12.75  54.735 12.75  C 58.305 12.75  61.11 15.555  61.11 19.125  C 61.11 22.695  58.305 25.5  54.735 25.5  " fill-rule="nonzero" fill="#cccccc" stroke="none" />
    <path d="M 8 77  L 8 39.05  L 27.25 21.8  L 54.2 39.1612903225806  L 69.6 32.15  L 85 39.1612903225806  L 85 77  L 8 77  " fill-rule="nonzero" fill="#169bd5" stroke="none" />
  </g>
</svg>