<?xml version="1.0" encoding="utf-8"?>
<svg version="1.1" xmlns:xlink="http://www.w3.org/1999/xlink" width="15px" height="15px" xmlns="http://www.w3.org/2000/svg">
  <g transform="matrix(1 0 0 1 -2 -2 )">
    <path d="M 9.5 3  C 13.14 3  16 5.86  16 9.5  C 16 13.14  13.14 16  9.5 16  C 5.86 16  3 13.14  3 9.5  C 3 5.86  5.86 3  9.5 3  Z " fill-rule="nonzero" fill="#aaaaaa" stroke="none" />
    <path d="M 9.5 3  C 13.14 3  16 5.86  16 9.5  C 16 13.14  13.14 16  9.5 16  C 5.86 16  3 13.14  3 9.5  C 3 5.86  5.86 3  9.5 3  Z " stroke-width="2" stroke="#ffffff" fill="none" />
  </g>
</svg>