<?xml version="1.0" encoding="utf-8"?>
<svg version="1.1" xmlns:xlink="http://www.w3.org/1999/xlink" width="11px" height="6px" xmlns="http://www.w3.org/2000/svg">
  <g transform="matrix(1 0 0 1 -207 -41 )">
    <path d="M 10.806075 0.8113375  C 10.9790625 0.6314625  10.9734875 0.3454125  10.7935875 0.172425  C 10.6137125 -0.000574999999999903  10.3276625 0.00501249999999942  10.154675 0.1849125  L 5.5248 4.857125  L 0.8302125 0.2046875  C 0.6528625 0.0288375000000002  0.3665625 0.0300624999999997  0.1906875 0.207425  C 0.0148499999999999 0.3847625  0.016075 0.671075  0.1934375 0.8469375  L 5.1827875 5.7915  C 5.1904375 5.7992625  5.2004125 5.8010875  5.2080375 5.80825  C 5.2097375 5.80995  5.2102125 5.81225  5.2120375 5.81405  C 5.3893125 5.9898125  5.675325 5.9885625  5.8510125 5.8113875  L 10.7959375 0.821550000000001  C 10.7993875 0.818225  10.8027625 0.8148  10.8060625 0.8113375  Z " fill-rule="nonzero" fill="#f2f2f2" stroke="none" transform="matrix(1 0 0 1 207 41 )" />
  </g>
</svg>