<?xml version="1.0" encoding="utf-8"?>
<svg version="1.1" xmlns:xlink="http://www.w3.org/1999/xlink" width="48px" height="48px" xmlns="http://www.w3.org/2000/svg">
  <g transform="matrix(1 0 0 1 -163 -567 )">
    <path d="M 187 572.5  C 197.36 572.5  205.5 580.64  205.5 591  C 205.5 601.36  197.36 609.5  187 609.5  C 176.64 609.5  168.5 601.36  168.5 591  C 168.5 580.64  176.64 572.5  187 572.5  Z " fill-rule="nonzero" fill="#ffffff" stroke="none" />
    <path d="M 187 570  C 198.76 570  208 579.24  208 591  C 208 602.76  198.76 612  187 612  C 175.24 612  166 602.76  166 591  C 166 579.24  175.24 570  187 570  Z " stroke-width="6" stroke="#797979" fill="none" stroke-opacity="0.737254901960784" />
  </g>
</svg>