<?xml version="1.0" encoding="utf-8"?>
<svg version="1.1" xmlns:xlink="http://www.w3.org/1999/xlink" width="23px" height="20px" xmlns="http://www.w3.org/2000/svg">
  <g transform="matrix(1 0 0 1 -330 -29 )">
    <path d="M 23 17.3962765957447  C 23 18.8218085106383  22.1934027777778 19.9015957446809  20.8943287037037 20  L 2.90960648148148 20  C 1.51736111111111 19.9015957446808  0.106481481481482 18.7313829787234  0.106481481481482 17.3962765957447  L 0.106481481481482 5.41223404255319  C 0.106481481481482 4.13031914893617  1.46145833333333 3.06914893617021  2.90960648148148 3.06914893617021  L 5.52905092592593 3.06914893617021  L 6.29837962962963 1.51329787234043  C 6.71898148148148 0.672872340425532  7.58148148148148 0.140957446808511  8.51319444444444 0.140957446808511  L 14.8488425925926 0.140957446808511  C 15.7645833333333 0.140957446808511  16.6430555555556 0.672872340425532  17.0636574074074 1.51329787234043  L 17.8329861111111 3.06914893617021  L 20.8730324074074 3.06914893617021  C 22.2280092592593 3.06914893617021  22.9787037037037 4.03989361702128  23 5.41223404255319  L 23 17.3962765957447  Z M 6.22384259259259 4.16755319148936  L 2.90960648148148 4.16755319148936  C 2.1775462962963 4.16755319148936  1.20590277777778 4.64361702127659  1.20590277777778 5.41223404255319  L 1.20590277777778 17.3962765957447  C 1.20590277777778 18.1090425531915  2.14027777777778 18.8058510638298  2.90960648148148 18.8058510638298  L 20.8756944444444 18.8058510638298  C 21.7009259259259 18.8058510638298  21.8819444444444 18.0744680851064  21.8819444444444 17.3962765957447  L 21.8819444444444 5.41223404255319  C 21.8819444444444 4.6436170212766  21.6077546296296 4.16755319148936  20.8756944444444 4.16755319148936  L 17.1381944444444 4.16755319148936  L 16.0574074074074 2.00797872340426  C 15.8204861111111 1.53191489361702  15.3439814814815 1.23936170212766  14.8302083333333 1.23936170212766  L 8.5318287037037 1.23936170212766  C 8.01805555555556 1.23936170212766  7.54421296296296 1.55053191489362  7.30462962962963 2.00797872340426  L 6.22384259259259 4.16755319148936  Z M 14.3856481481482 15.7207446808511  C 14.6758101851852 15.5558510638298  14.7503472222222 15.1702127659574  14.5480324074074 14.9148936170213  C 14.3829861111111 14.6941489361702  14.090162037037 14.6223404255319  13.8532407407407 14.75  C 12.4609953703704 15.5372340425532  10.6667824074074 15.5  9.36770833333333 14.5478723404255  C 8.30555555555556 13.7606382978723  7.70127314814815 12.5345744680851  7.70127314814815 11.2553191489362  L 9.47685185185185 11.2553191489362  C 9.51412037037037 11.2553191489362  9.53275462962963 11.1808510638298  9.51412037037037 11.1462765957447  L 7.24074074074074 8.21808510638298  C 7.22210648148148 8.19946808510638  7.18483796296296 8.18085106382979  7.1662037037037 8.21808510638298  L 4.89814814814815 11.1462765957447  C 4.87951388888889 11.1835106382979  4.89814814814815 11.2553191489362  4.93541666666667 11.2553191489362  L 6.60185185185185 11.2553191489362  C 6.60185185185185 12.9015957446809  7.37118055555556 14.438829787234  8.70752314814815 15.4281914893617  C 9.60462962962963 16.0877659574468  10.6854166666667 16.3989361702128  11.784837962963 16.3989361702128  C 12.6819444444444 16.3989361702128  13.5790509259259 16.1622340425532  14.3856481481482 15.7207446808511  Z M 18.756712962963 11.2952127659574  C 18.7780092592593 11.2553191489362  18.759375 11.2021276595745  18.7061342592593 11.2021276595745  L 16.9837962962963 11.2765957446809  C 17.0024305555556 9.63031914893617  16.2331018518518 8.00265957446808  14.878125 7.01329787234043  C 13.2303240740741 5.80585106382979  10.9782407407407 5.6968085106383  9.21863425925926 6.70212765957447  C 8.92581018518518 6.86702127659574  8.85127314814815 7.23404255319149  9.05358796296296 7.50797872340426  C 9.21863425925926 7.72872340425532  9.51145833333333 7.80053191489362  9.74837962962963 7.67287234042553  C 11.140625 6.88563829787234  12.934837962963 6.96010638297872  14.233912037037 7.90957446808511  C 15.3146990740741 8.71542553191489  15.9189814814815 10.0132978723404  15.9003472222222 11.3297872340426  L 14.1780092592593 11.4042553191489  C 14.1407407407407 11.4042553191489  14.1221064814815 11.4601063829787  14.1407407407407 11.4787234042553  L 16.5392361111111 14.2952127659574  C 16.5578703703704 14.313829787234  16.5951388888889 14.313829787234  16.6137731481482 14.2952127659574  L 18.756712962963 11.2952127659574  Z " fill-rule="nonzero" fill="#f2f2f2" stroke="none" transform="matrix(1 0 0 1 330 29 )" />
  </g>
</svg>