<?xml version="1.0" encoding="utf-8"?>
<svg version="1.1" xmlns:xlink="http://www.w3.org/1999/xlink" width="18px" height="10px" xmlns="http://www.w3.org/2000/svg">
  <g transform="matrix(1 0 0 1 -84 -591 )">
    <path d="M 17.6826681818182 1.35222916666667  C 17.9657386363636 1.0524375  17.9566159090909 0.5756875  17.6622340909091 0.287375  C 17.3678931818182 -0.000958333333333172  16.8998113636364 0.0083541666666657  16.6167409090909 0.3081875  L 9.04058181818182 8.09520833333334  L 1.35852954545455 0.341145833333333  C 1.06832045454545 0.0480625000000003  0.599829545454545 0.0501041666666661  0.312034090909091 0.345708333333333  C 0.0242999999999998 0.641270833333333  0.0263045454545455 1.11845833333333  0.316534090909091 1.4115625  L 8.480925 9.6525  C 8.49344318181818 9.6654375  8.50976590909091 9.66847916666667  8.52224318181818 9.68041666666667  C 8.525025 9.68325  8.52580227272727 9.68708333333334  8.52878863636364 9.69008333333334  C 8.818875 9.98302083333333  9.28689545454545 9.9809375  9.57438409090909 9.68564583333334  L 17.6660795454545 1.36925  C 17.671725 1.36370833333333  17.6772477272727 1.358  17.6826477272727 1.35222916666667  Z " fill-rule="nonzero" fill="#f2f2f2" stroke="none" transform="matrix(1 0 0 1 84 591 )" />
  </g>
</svg>