<?xml version="1.0" encoding="utf-8"?>
<svg version="1.1" xmlns:xlink="http://www.w3.org/1999/xlink" width="32px" height="32px" xmlns="http://www.w3.org/2000/svg">
  <g transform="matrix(1 0 0 1 -301 -421 )">
    <path d="M 31.99995978125 16  C 31.99995978125 7.1634599375  24.83649984375 4.021875E-05  16 4.021875E-05  C 7.1634599375 4.021875E-05  4.02187499997098E-05 7.1634599375  4.02187499997098E-05 16  C 4.02187499997098E-05 24.8365400625  7.1634599375 31.99995978125  16 31.99995978125  C 24.83649984375 31.99995978125  31.99995978125 24.83658028125  31.99995978125 16  Z M 24.36817578125 16.03961690625  C 24.36817578125 16.579613375  23.932349625 17.0153993125  23.392514 17.0153993125  L 16.968583 17.0153993125  L 16.968583 23.43916946875  C 16.968583 23.9791659375  16.53275684375 24.41499209375  15.99292125 24.41499209375  C 15.45292478125 24.41499209375  15.017098625 23.9791659375  15.017098625 23.43916946875  L 15.017098625 17.0153993125  L 8.59336871875 17.0153993125  C 8.05337225 17.0153993125  7.61754609375 16.57957315625  7.61754609375 16.0395766875  C 7.61754609375 15.49958021875  8.05337225 15.0637540625  8.59336871875 15.0637540625  L 15.02043690625 15.0637540625  L 15.02043690625 8.64002415625  C 15.02043690625 8.1000276875  15.45622284375 7.66420153125  15.9960584375 7.66420153125  C 16.53605490625 7.66420153125  16.9718810625 8.1000276875  16.9718810625 8.64002415625  L 16.9718810625 15.06379428125  L 23.39565121875 15.06379428125  C 23.93234965625 15.06379428125  24.36817578125 15.4996204375  24.36817578125 16.03961690625  Z " fill-rule="nonzero" fill="#f59a23" stroke="none" transform="matrix(1 0 0 1 301 421 )" />
  </g>
</svg>