<?xml version="1.0" encoding="utf-8"?>
<svg version="1.1" xmlns:xlink="http://www.w3.org/1999/xlink" width="24px" height="11px" xmlns="http://www.w3.org/2000/svg">
  <g transform="matrix(1 0 0 1 -49 -18 )">
    <path d="M 23.9931367265625 5.83836730948812  C 23.9899874924659 8.68775281811385  21.6808895956596 10.9968507013695  18.8315040703125 10.9999999354476  C 15.980813070037 10.9999999354476  13.6698714140625 8.68905829303461  13.6698714140625 5.83836730948812  C 13.6698714140625 2.98767632594164  15.980813070037 0.676734683528651  18.8315040703125 0.676734683528651  C 21.682195070588 0.676734683528651  23.9931367265625 2.98767632594164  23.9931367265625 5.83836730948812  Z M 22.8502796015625 5.83836730948812  C 22.8475799344201 3.62011027862667  21.0497616168666 1.82265717036945  18.8315040703125 1.82040815337962  C 16.6119957507014 1.82040815337961  14.8127286688473 3.61967522467495  14.8127286688473 5.83918363760833  C 14.8127286688473 8.05869205054171  16.6119957507014 9.85795912183704  18.8315041766598 9.85795912183704  C 21.0510126026181 9.85795912183704  22.8502796844723 8.05869205054171  22.8502796844723 5.83918363760833  Z M 10.324565296875 5.83836730948812  C 10.3214169475468 8.68743455063905  8.01281569302323 10.9964009617745  5.16374896875 10.9999999354476  C 2.31224164034952 11  0.00129998437499913 8.68905835758702  0.00129998437499913 5.83836737404053  C 0.00129998437499913 2.98767639049404  2.31224164034951 0.676734748081057  5.162932640625 0.676734748081057  C 8.01362364090048 0.676734748081057  10.324565296875 2.98767639049404  10.324565296875 5.83836737404053  Z M 9.181708171875 5.83836730948812  C 9.17900939407127 3.6204285651598  7.38168772610982 1.82310691822987  5.16374896875 1.82040815337962  C 2.9434243209971 1.82040807049143  1.14415723914295 3.61967514178676  1.14415723914295 5.83918355472015  C 1.14415723914295 8.05869196765352  2.9434243209971 9.85795903894886  5.16293274695545 9.85795903894886  C 7.38244117291379 9.85795903894886  9.18170825476795 8.05869196765352  9.18170825476795 5.83918355472015  Z " fill-rule="nonzero" fill="#f59a23" stroke="none" transform="matrix(1 0 0 1 49 18 )" />
  </g>
</svg>