<?xml version="1.0" encoding="utf-8"?>
<svg version="1.1" xmlns:xlink="http://www.w3.org/1999/xlink" width="15px" height="17px" xmlns="http://www.w3.org/2000/svg">
  <g transform="matrix(1 0 0 1 -56 -9 )">
    <path d="M 5.3139530703125 16.4081632578125  C 5.31396875214313 16.7215363867573  5.06159624160978 16.9764581195327  4.74823878125 16.97959184375  C 4.43264747712602 16.97959184375  4.1768101953125 16.7237545619365  4.1768101953125 16.40816328125  L 4.1768101953125 12.8653061328125  L 1.646197953125 10.3346938671875  C -0.0248163921388791 8.65884034032654  -0.0248163921388791 5.94687394092346  1.646197953125 4.2710204140625  L 4.235585703125 1.68244896875  C 4.7576474772471 1.16024527490208  5.46580037772005 0.866862361194435  6.20420757829974 0.866862361194435  C 6.94939336506825 0.866862361194435  7.66346681369956 1.16564099890535  8.1866061171875 1.6963265234375  L 10.5384428515625 4.0816326640625  L 14.2992591875 4.0816326640625  C 14.6148504681865 4.0816326640625  14.87068775 4.33746994587602  14.87068775 4.6530612265625  C 14.87068775 4.96865250724898  14.6148504681865 5.2244897890625  14.2992591875 5.2244897890625  L 10.2992591796875 5.2244897890625  C 10.1459348617298 5.2249421565055  9.99886080616737 5.16375934817541  9.8910959140625 5.0546938671875  L 7.3751775546875 2.5020408125  C 7.0687620714438 2.18943331102394  6.64964890640884 2.0129646112899  6.21191225 2.0122448984375  L 6.206197953125 2.0122448984375  C 5.7706116482115 2.01124850479656  5.352687434988 2.18435494904655  5.0453816328125 2.4930612265625  L 2.4568102109375 5.0816326484375  C 1.23081586147481 6.31060543215455  1.23081586147481 8.30000681784545  2.4568102109375 9.5289796015625  L 5.15068775 12.222857140625  C 5.25635375774393 12.3306939219619  5.31504942104926 12.4759656732651  5.3139530703125 12.626938765625  L 5.3139530703125 16.4081632578125  Z " fill-rule="nonzero" fill="#f59a23" stroke="none" transform="matrix(1 0 0 1 56 9 )" />
  </g>
</svg>