<?xml version="1.0" encoding="utf-8"?>
<svg version="1.1" xmlns:xlink="http://www.w3.org/1999/xlink" width="20px" height="20px" xmlns="http://www.w3.org/2000/svg">
  <g transform="matrix(1 0 0 1 -301 -6 )">
    <path d="M 19.8556055885636 19.3244392856916  C 19.8556055689932 19.304799342989  19.8545121333231 19.285490513449  19.8526035917743 19.2663886474614  C 19.6381909395306 14.7796018971829  17.4371859178962 11.0033094305268  13.5649153184007 9.52762283495146  C 14.5775752288051 8.5291518166481  15.2093023053283 7.11629651567722  15.2093023053283 5.54977773420341  C 15.2093023053283 2.52417008435461  12.8531289338736 0.0714322304631554  9.94665957893127 0.0714322304631554  C 7.04017034049384 0.0714322304631554  4.68399696903906 2.52417008435461  4.68399696903906 5.54977773420341  C 4.68399696903906 7.11631721406971  5.31576379298219 8.5291518166481  6.32838395596667 9.52762283495146  C 2.45615308432077 11.0033094305268  0.255068548276126 14.7796225752029  0.0406558960324134 19.2663886474614  C 0.0387274709884565 19.285490513449  0.0376539188135464 19.3047786445965  0.0376539188135464 19.3244392856916  C 0.0376539188135464 19.6269648715582  0.273279207400046 19.8722676326596  0.563914220625334 19.8722676326596  C 0.566538470147542 19.8722676326596  0.569083185689167 19.8718951227121  0.57168755171623 19.8718330275346  C 0.574291917743292 19.8718951227121  0.576836633284917 19.8722676326596  0.579460882807125 19.8722676326596  L 19.31379862457 19.8722676326596  C 19.3164228740922 19.8722676326596  19.3189278226435 19.8718951227121  19.3215520721657 19.8718330275346  C 19.3241763216879 19.8718951227121  19.3267011537344 19.8722676326596  19.3293254032566 19.8722676326596  C 19.6200001639018 19.8722676326596  19.8556055885636 19.6269648715582  19.8556055885636 19.3244392856916  Z M 1.12935925510282 18.7765902403311  C 1.49727027841908 14.7250901543848  3.70171465545448 11.4048004889384  7.37124255087532 10.3279766430049  C 7.44766370766761 10.3055428043928  7.52460177662258 10.284433479548  7.60179827230334 10.2639450249881  C 7.81921288219555 10.1964158879516  7.97793988838774 9.98701968359064  7.97793988838774 9.73877815820468  C 7.97793988838774 9.55531329110298  7.89100186958184 9.393330279166  7.75800042687868 9.29388880471113  C 7.73833848788319 9.27919506477797  7.71784153994343 9.26572234664969  7.69629094289427 9.25390525545122  C 7.64515795183855 9.22017172433551  7.59470090176592 9.18546551137992  7.54509870499197 9.14953827661945  C 6.45212102071707 8.35789724908483  5.73655732008256 7.04090308960688  5.73655732008256 5.54975701543849  C 5.73655732008256 3.12926261212797  7.62149999785949 1.16706820563425  9.9466993263512 1.16706820563425  C 12.2718787909181 1.16706820563425  14.1568214686951 3.12924193410791  14.1568214686951 5.54975701543849  C 14.1568214686951 7.04090308960688  13.4412776515557 8.35787655069234  12.3482800837856 9.14953827661945  C 12.2986779065821 9.18546551137991  12.2482208369391 9.22017172433551  12.1970878458833 9.25390525545122  C 12.175557112759 9.26572234664969  12.1550403008944 9.27919504440554  12.1353783618989 9.29388880471113  C 12.0023769191958 9.393330279166  11.9154389003899 9.55531329110298  11.9154389003899 9.73877815820468  C 11.9154389003899 9.98704036161069  12.0741658870117 10.1964158879516  12.2916401669597 10.2636966850231  C 12.3687571678006 10.2844127811555  12.4456952171852 10.3055428043928  12.5221163739775 10.3279766430049  C 16.1916442693984 11.4048004889384  18.3960687629386 14.7250901747573  18.7639797862549 18.7765902607035  L 1.12935925510282 18.7765902403311  Z " fill-rule="nonzero" fill="#333333" stroke="none" transform="matrix(1 0 0 1 301 6 )" />
  </g>
</svg>