<?xml version="1.0" encoding="utf-8"?>
<svg version="1.1" xmlns:xlink="http://www.w3.org/1999/xlink" width="23px" height="23px" xmlns="http://www.w3.org/2000/svg">
  <g transform="matrix(1 0 0 1 -176 -5 )">
    <path d="M 22.784375 11.4931547619048  C 22.7877976190476 5.28794642857143  17.708630952381 0.208779761904763  11.5 0.208779761904762  C 5.29136904761905 0.208779761904762  0.215625 5.28794642857143  0.215625 11.4931547619048  C 0.215625 17.7017857142857  5.29479166666667 22.7775297619048  11.5 22.7775297619048  C 17.708630952381 22.7775297619048  22.784375 17.6983630952381  22.784375 11.4931547619048  Z M 21.6583333333333 11.4931547619048  C 21.6583333333333 17.0822916666667  17.0857142857143 21.6514880952381  11.5 21.6514880952381  C 5.91428571428571 21.6514880952381  1.34166666666667 17.0822916666667  1.34166666666667 11.4931547619048  C 1.34166666666667 5.90744047619048  5.91086309523809 1.33482142857143  11.5 1.33482142857143  C 17.0857142857143 1.33482142857143  21.6583333333333 5.90401785714286  21.6583333333333 11.4931547619048  Z M 10.3705357142857 11.4931547619048  C 10.3705357142857 12.1160714285714  10.880505952381 12.622619047619  11.5 12.622619047619  C 12.119494047619 12.622619047619  12.6294642857143 12.1160714285714  12.6294642857143 11.4931547619048  C 12.6294642857143 10.8736607142857  12.1229166666667 10.3636904761905  11.5 10.3636904761905  C 10.880505952381 10.3636904761905  10.3705357142857 10.8702380952381  10.3705357142857 11.4931547619048  Z M 17.5956845238095 6.13675595238095  C 17.7633928571429 5.73973214285714  17.4827380952381 5.34613095238095  17.0857142857143 5.34613095238095  C 17.0309523809524 5.34613095238095  16.918005952381 5.34613095238095  16.8598214285714 5.40089285714286  L 9.58333333333333 8.27931547619047  C 9.01860119047619 8.50520833333333  8.56681547619048 8.95699404761905  8.34092261904762 9.52172619047619  L 5.4625 16.8016369047619  C 5.29479166666667 17.1952380952381  5.57544642857143 17.5922619047619  5.96904761904762 17.5922619047619  C 6.02380952380953 17.5922619047619  6.13675595238095 17.5922619047619  6.19494047619048 17.5375  L 13.4748511904762 14.6590773809524  C 14.0395833333333 14.4331845238095  14.491369047619 13.9813988095238  14.7172619047619 13.4166666666667  L 17.5956845238095 6.13675595238095  Z M 16.072619047619 6.98214285714286  L 13.6459821428571 13.0196428571429  C 13.5330357142857 13.3002976190476  13.3071428571429 13.5261904761905  13.0264880952381 13.6391369047619  L 6.9889880952381 16.0657738095238  L 9.41220238095238 10.0282738095238  C 9.52514880952381 9.74761904761905  9.75104166666667 9.52172619047619  10.0316964285714 9.40877976190476  L 16.072619047619 6.98214285714286  Z " fill-rule="nonzero" fill="#000000" stroke="none" transform="matrix(1 0 0 1 176 5 )" />
  </g>
</svg>