<?xml version="1.0" encoding="utf-8"?>
<svg version="1.1" xmlns:xlink="http://www.w3.org/1999/xlink" width="11px" height="11px" xmlns="http://www.w3.org/2000/svg">
  <g>
    <path d="M 10.8631883348214 10.8718755848214  C 10.9905511227679 10.7441484709821  10.9905762533482 10.5379282912946  10.8632008939732 10.4108921272321  L 7.81160701897321 7.359662578125  C 8.48486597209821 6.57901585491071  8.90694209821429 5.57572922991071  8.90694209821429 4.46469050892857  C 8.90694209821429 2.00643034821429  6.91428855022321 0.014128566964286  4.45601581808036 0.014128566964286  C 1.99776822879464 0.014128566964286  0.00510210937499941 2.00643036049107  0.00510210937499941 4.46469050892857  C 0.00510210937499941 6.92295065736607  1.99775565736607 8.91525245089286  4.45601581808036 8.91525246316964  C 5.5670545390625 8.91525246316964  6.57032860491071 8.49352810379464  7.35027180691964 7.81991738392857  L 10.4022300078125 10.8718755848214  C 10.5296053671875 10.9996026986607  10.735825546875 10.9996026986607  10.8631883348214 10.8718755848214  Z M 8.22227601004464 4.46470306808036  C 8.22226345089286 6.54476935602678  6.53574291071429 8.23093812946429  4.45602838950893 8.23093814174107  C 2.37597466071429 8.23093814174107  0.689793328125 6.54476936830357  0.689793315848214 4.46470306808036  C 0.689793315848214 2.38535287276786  2.37597466071429 0.698455435267857  4.45602838950893 0.698455447544642  C 6.53574291071429 0.698455447544642  8.22227602232143 2.38534031361607  8.22227601004464 4.46470306808036  Z " fill-rule="nonzero" fill="#f59a23" stroke="none" />
  </g>
</svg>