<?xml version="1.0" encoding="utf-8"?>
<svg version="1.1" xmlns:xlink="http://www.w3.org/1999/xlink" width="18px" height="16px" xmlns="http://www.w3.org/2000/svg">
  <g>
    <path d="M 16.2928947818648 9.20131980936087  C 18.5266039349872 7.19912012709275  18.5266039349872 3.72863546376634  16.4242994011976 1.59296101674203  C 14.3219794696322 -0.40923866552609  11.1685149700599 -0.542713430282292  9.06621043627032 1.45948625198582  C 6.83250128314799 -0.542713430282292  3.67903678357571 -0.40923866552609  1.57673224978614 1.59296101674203  C -0.525572284003421 3.72863546376635  -0.525572284003421 7.06564536233655  1.57673224978614 9.20131980936087  L 7.75227202737382 15.4748840278626  C 8.40923353293413 16.1422734938287  9.46039349871685 16.1422734938287  10.117370402053 15.4748840278626  L 16.2928947818648 9.20131980936087  Z M 15.7673224978614 2.39384088964927  C 17.2126655260907 4.12907540021997  17.2126655260907 6.79868019063913  15.6359332763045 8.40043993645362  L 9.46039349871685 14.6740041549554  C 9.1975996578272 14.9409536844678  8.93482121471343 14.9409536844678  8.67202737382378 14.6740041549554  L 2.36509837467921 8.40043993645362  C 0.656976903336185 6.79868019063913  0.656976903336185 3.99560063546377  2.36509837467921 2.39384088964927  C 3.94183062446535 0.79208114383478  6.56972284003422 0.79208114383478  8.27784431137725 2.26036612489307  L 9.06621043627032 2.9277555908591  L 9.85457656116339 2.26036612489307  C 11.5626980325064 0.658606379078578  14.0592010265184 0.79208114383478  15.7673224978614 2.39384088964927  Z " fill-rule="nonzero" fill="#f59a23" stroke="none" />
  </g>
</svg>