<?xml version="1.0" encoding="utf-8"?>
<svg version="1.1" xmlns:xlink="http://www.w3.org/1999/xlink" width="21px" height="16px" xmlns="http://www.w3.org/2000/svg">
  <g transform="matrix(1 0 0 1 -310 -264 )">
    <path d="M 20.1267820400391 4.77633447169811  C 19.5923583720703 3.84636152830189  18.8299662714844 3.01313928301887  17.8607594033203 2.29979832075472  C 15.8913916464844 0.850352660377358  13.27988025 0.0521159056603773  10.507261078125 0.0521159056603773  C 7.73352966503906 0.0521159056603773  5.12128376074219 0.850352660377358  3.1517900859375 2.29981762264151  C 2.18252025878906 3.01311996226415  1.42012815820312 3.84638083018868  0.885746469726562 4.77639239622641  C 0.327084249023437 5.74862983018868  0.0438602636718745 6.78282554716981  0.0438602636718745 7.85017252830189  C 0.0438602636718745 8.79678867924528  0.267988300781249 9.72170301886793  0.709990620117187 10.5992170566038  C 1.0925192578125 11.3586840188679  1.62832798242187 12.0638578490566  2.30505616113281 12.6990413773585  C 2.15834462402344 13.1584479433962  1.79776709765625 14.2023167924528  1.46128124707031 15.1523117924528  L 1.19522363378906 15.9035150754717  L 2.04474865136719 15.7882290188679  C 2.05631181738281 15.786626490566  3.21529301953125 15.6292303962264  4.37284720605469 15.464941490566  C 5.76777144726563 15.2670379245283  6.38458525195313 15.1734343773585  6.68184870117188 15.1134068490566  C 7.89975795410156 15.4695174150943  9.18582900292969 15.6499475283019  10.5073240371094 15.6499475283019  C 13.2797962910156 15.6499475283019  15.8913496669922 14.8513825471698  17.8608433417969 13.4013190377358  C 18.8300292304688 12.687785  19.5924633105469 11.8543503773585  20.1268659785156 10.9242229622642  C 20.6855491992188 9.9517731509434  20.9688990820312 8.91751950943396  20.9688990820312 7.85017252830189  C 20.9688571230469 6.78280624528302  20.6855491992188 5.74864913207547  20.1267820400391 4.77633447169811  Z M 10.5073030576172 14.6710682641509  C 9.24561747949219 14.6710682641509  8.02086686132813 14.4922406792453  6.86709013183594 14.1395282641509  L 6.61041316113281 14.061004  L 6.46573725 14.1560363207547  C 6.08444677148438 14.2315099811321  4.42770404589844 14.4706740188679  2.73715322753906 14.7037754528302  C 2.800698140625 14.5219358679245  2.87034991113281 14.321831245283  2.93966592773438 14.1211666792453  C 3.43165636816406 12.6971106037736  3.43035525 12.6404812264151  3.42802582910156 12.5377258301887  L 3.42336698730469 12.334126509434  L 3.2631406171875 12.1936439433962  C 2.57698983691406 11.5919592075472  2.04275504589844 10.9170211886792  1.67533615429688 10.1876162641509  C 1.2987674765625 9.44002350943396  1.107817921875 8.65358373584906  1.107817921875 7.85017252830189  C 1.107817921875 4.09006286792453  5.32438409179688 1.03103379245283  10.5072401191406 1.03103379245283  C 15.6890888232422 1.03103379245283  19.9048155673828 4.09006286792453  19.9048155673828 7.85017252830189  C 19.9048784853516 11.6112282641509  15.6891307617187 14.6710682641509  10.5073030576172 14.6710682641509  Z " fill-rule="nonzero" fill="#000000" stroke="none" transform="matrix(1 0 0 1 310 264 )" />
  </g>
</svg>