<?xml version="1.0" encoding="utf-8"?>
<svg version="1.1" xmlns:xlink="http://www.w3.org/1999/xlink" width="77px" height="29px" xmlns="http://www.w3.org/2000/svg">
  <g transform="matrix(1 0 0 1 -289 -32 )">
    <path d="M 0 14.0523255813954  C 0 6.38813953488372  6.21372093023256 0.174418604651162  13.8779069767442 0.174418604651162  L 63.1220930232558 0.174418604651162  C 70.7862790697674 0.174418604651162  77 6.38813953488372  77 14.0523255813954  L 77 14.9476744186047  C 77 22.6118604651163  70.7862790697674 28.8255813953488  63.1220930232558 28.8255813953488  L 13.8779069767442 28.8255813953488  C 6.21372093023256 28.8255813953488  0 22.6118604651163  0 14.9476744186047  L 0 14.0523255813954  Z M 63.1220930232558 1  L 13.8779069767442 1  C 6.7079534883721 1.06976744186046  0.895348837209304 6.88237209302326  0.895348837209304 14.0523255813954  L 0.895348837209304 14.9476744186047  C 0.895348837209304 22.1176279069767  6.7079534883721 27.9302325581395  13.8779069767442 28  L 63.1220930232558 28  C 70.2920465116279 27.9302325581395  76.1046511627907 22.1176279069767  76.1046511627907 14.9476744186047  L 76.1046511627907 14.0523255813954  C 76.1046511627907 6.88237209302326  70.2920465116279 1.06976744186046  63.1220930232558 1  Z " fill-rule="nonzero" fill="#dfdfdf" stroke="none" transform="matrix(1 0 0 1 289 32 )" />
  </g>
</svg>