<?xml version="1.0" encoding="utf-8"?>
<svg version="1.1" xmlns:xlink="http://www.w3.org/1999/xlink" width="17px" height="17px" xmlns="http://www.w3.org/2000/svg">
  <g transform="matrix(1 0 0 1 -338 -38 )">
    <path d="M 8.30232558139535 16.5581395348837  C 12.7527131585202 16.5581395348837  16.3604651162791 12.9503875771249  16.3604651162791 8.5  C 16.3604651162791 4.04961242287511  12.7527131585202 0.441860465116278  8.30232558139535 0.441860465116278  C 3.85193800427047 0.441860465116278  0.244186046511629 4.04961242287511  0.244186046511629 8.5  C 0.244186046511629 12.9503875771249  3.85193800427047 16.5581395348837  8.30232558139535 16.5581395348837  Z M 8.30232558139535 14.7674418604651  C 4.84091302140933 14.7674418604651  2.03488372093023 11.961412559986  2.03488372093023 8.5  C 2.03488372093023 5.03858744001398  4.84091302140933 2.23255813953489  8.30232558139535 2.23255813953489  C 11.7637381413814 2.23255813953489  14.5697674418605 5.03858744001398  14.5697674418605 8.5  C 14.5697674418605 11.961412559986  11.7637381413814 14.7674418604651  8.30232558139535 14.7674418604651  Z " fill-rule="nonzero" fill="#000000" stroke="none" transform="matrix(1 0 0 1 338 38 )" />
  </g>
</svg>