<?xml version="1.0" encoding="utf-8"?>
<svg version="1.1" xmlns:xlink="http://www.w3.org/1999/xlink" width="23px" height="11px" xmlns="http://www.w3.org/2000/svg">
  <g transform="matrix(1 0 0 1 -336 -9 )">
    <path d="M 22.9350282404661 4.58333332617187  C 22.9350282404661 4.07916667382812  22.4672316302966 3.66666667382813  21.8954802341102 3.66666667382813  L 21.8954802341102 1.83333334765625  C 21.8954802341102 0.825000021484376  20.9598870137712 0  19.8163841970339 0  L 2.14406779661017 0  C 1.00056497987288 0  0.0649717595338984 0.825  0.0649717595338984 1.83333332617187  L 0.0649717595338984 9.16666665234375  C 0.0649717595338984 10.1749999785156  1.00056497987288 10.9999999785156  2.14406779661017 11  L 19.8163841726695 11  C 20.9598869894068 10.9999999785156  21.8954802097458 10.1749999785156  21.8954802097458 9.16666665234375  L 21.8954802097458 7.33333332617187  C 22.4672316302966 7.33333332617187  22.9350282404661 6.92083332617187  22.9350282404661 6.41666665234375  L 22.9350282404661 4.58333332617187  Z M 20.8559322033898 1.83333332617187  L 20.8559322033898 4.58333332617187  L 20.8559322033898 6.41666665234375  L 20.8559322033898 9.16666665234375  C 20.8559322033898 9.67083332617188  20.3881355932203 10.0833333261719  19.8163841726695 10  L 2.14406779661017 10  C 1.57231637605932 10.0833333261719  1.10451976588983 9.67083332617188  1.10451976588983 9.16666665234375  L 1.10451976588983 1.83333332617187  C 1.10451976588983 1.32916665234375  1.57231637605932 0.916666652343749  2.14406779661017 1  L 19.8163841726695 1  C 20.3881355932203 0.916666652343749  20.8559322033898 1.32916665234375  20.8559322033898 1.83333332617187  Z M 2.14406779661017 2  L 2.14406779661017 9  L 15.6581920985169 9  L 15.6581920985169 2  L 2.14406779661017 2  Z " fill-rule="nonzero" fill="#515151" stroke="none" transform="matrix(1 0 0 1 336 9 )" />
  </g>
</svg>