<?xml version="1.0" encoding="utf-8"?>
<svg version="1.1" xmlns:xlink="http://www.w3.org/1999/xlink" width="18px" height="18px" xmlns="http://www.w3.org/2000/svg">
  <g transform="matrix(1 0 0 1 -24 -120 )">
    <path d="M 17.7761263660714 17.7903418660714  C 17.9845382008929 17.5813338616071  17.9845793236607 17.2438826584821  17.7761469174107 17.0360052991071  L 12.7826296674107 12.04308421875  C 13.8843261361607 10.7656623080357  14.5749961607143 9.12392055803571  14.5749961607143 7.30585719642857  C 14.5749961607143 3.28324966071429  11.3142903549107 0.0231194732142862  7.29166224776786 0.0231194732142862  C 3.26907528348214 0.0231194732142862  0.00834890624999904 3.28324968080357  0.00834890624999904 7.30585719642857  C 0.00834890624999904 11.3284647120536  3.26905471205357 14.5885949196429  7.29166224776786 14.5885949397321  C 9.109725609375 14.5885949397321  10.7514468080357 13.8985005334821  12.0277175022321 12.7962284464286  L 17.021830921875 17.7903418660714  C 17.230263328125 17.9993498705357  17.56771453125 17.9993498705357  17.7761263660714 17.7903418660714  Z M 13.4546334709821 7.30587774776786  C 13.4546129196429 10.7096225825893  10.6948520357143 13.4688078482143  7.29168281919643 13.4688078683036  C 3.88795853571429 13.4688078683036  1.12875271875 10.7096226026786  1.12875269866071 7.30587774776786  C 1.12875269866071 3.90330470089286  3.88795853571429 1.14292707589286  7.29168281919643 1.14292709598214  C 10.6948520357143 1.14292709598214  13.4546334910714 3.90328414955357  13.4546334709821 7.30587774776786  Z " fill-rule="nonzero" fill="#aaaaaa" stroke="none" transform="matrix(1 0 0 1 24 120 )" />
  </g>
</svg>