<?xml version="1.0" encoding="utf-8"?>
<svg version="1.1" xmlns:xlink="http://www.w3.org/1999/xlink" width="15px" height="15px" xmlns="http://www.w3.org/2000/svg">
  <g transform="matrix(1 0 0 1 -180 -615 )">
    <path d="M 14.6279032258065 13.4484677419355  L 8.63074596774193 7.5  L 14.6279032258065 1.50287298387097  C 14.9225201612903 1.20822580645161  14.9225201612903 0.716280241935484  14.6279032258065 0.372127016129032  L 14.5783366935484 0.3234375  C 14.2782018281749 0.0286771803223422  13.7972618815025 0.0286771803223422  13.497127016129 0.3234375  L 7.5 6.36925403225806  L 1.50287298387097 0.372096774193548  C 1.20273811849752 0.0773364545158883  0.721798171825064 0.07733645451589  0.421663306451612 0.372096774193548  L 0.372096774193548 0.421663306451612  C 0.077479838709676 0.716280241935484  0.077479838709676 1.2082560483871  0.372096774193548 1.55240927419355  L 6.36925403225806 7.5  L 0.372096774193548 13.497127016129  C 0.077479838709676 13.7917741935484  0.077479838709676 14.2837197580645  0.372096774193548 14.627872983871  L 0.421663306451612 14.677439516129  C 0.721798171825064 14.9721998358067  1.20273811849752 14.9721998358067  1.50287298387097 14.677439516129  L 7.5 8.63165322580645  L 13.497127016129 14.6287802419355  C 13.7972618815025 14.9235405616131  14.2782018281749 14.9235405616131  14.5783366935484 14.6287802419355  L 14.6279032258065 14.5792137096774  C 14.9225201612903 14.2845967741935  14.9225201612903 13.7926209677419  14.6279032258065 13.4484677419355  Z " fill-rule="nonzero" fill="#ffffff" stroke="none" transform="matrix(1 0 0 1 180 615 )" />
  </g>
</svg>