<?xml version="1.0" encoding="utf-8"?>
<svg version="1.1" xmlns:xlink="http://www.w3.org/1999/xlink" width="19px" height="14px" xmlns="http://www.w3.org/2000/svg">
  <g transform="matrix(1 0 0 1 -314 -7 )">
    <path d="M 8.50355896720168 10.1441991723097  C 7.8641703290629 10.1441991723097  7.25150899829695 10.4007077115985  6.80284717376134 10.8562517794836  L 8.50355896720168 12.5739706908583  L 10.204270760642 10.8562517794836  C 9.7556089361064 10.4007077115985  9.14294760534045 10.1441991723097  8.50355896720168 10.1441991723097  Z M 8.50355896720168 5.2851723946962  C 6.58549535850624 5.2851723946962  4.74757256429487 6.05448642001078  3.40142358688067 7.42081395673412  L 5.10213538032101 9.13853286810886  C 6.00043698298924 8.22926885914928  7.22539356032134 7.71751796955622  8.50355896720168 7.71751796955622  C 9.78172437408201 7.71751796955622  11.0066809514141 8.22926885914928  11.9049825540823 9.13853286810886  L 13.6056943475227 7.42081395673412  C 12.2595453701085 6.05448642001078  10.4216225758971 5.2851723946962  8.50355896720168 5.2851723946962  Z M 17.0071179344033 3.98416133984647  L 17.0071179344034 3.9829465457083  L 15.306406140963 5.70188025122121  C 13.5096405646577 3.88365546953573  11.0597882004534 2.86036404031385  8.50355896720167 2.86036404031385  C 5.94732973394993 2.86036404031385  3.4974773697456 3.88365546953574  1.70071179344033 5.70188025122121  L 0 3.98416133984647  C 2.2441260007767 1.70796352630951  5.30712689476333 0.426478089718232  8.50355896720167 0.426478089718232  C 11.69999103964 0.426478089718232  14.7629919336267 1.70796352630951  17.0071179344033 3.98416133984647  Z " fill-rule="nonzero" fill="#f2f2f2" stroke="none" transform="matrix(1 0 0 1 314 7 )" />
  </g>
</svg>