<?xml version="1.0" encoding="utf-8"?>
<svg version="1.1" xmlns:xlink="http://www.w3.org/1999/xlink" width="12px" height="12px" viewBox="19 302  12 12" xmlns="http://www.w3.org/2000/svg">
  <path d="M 25 302  C 28.36 302  31 304.64  31 308  C 31 311.36  28.36 314  25 314  C 21.64 314  19 311.36  19 308  C 19 304.64  21.64 302  25 302  Z " fill-rule="nonzero" fill="#f0f0f0" stroke="none" />
  <path d="M 25 302.5  C 28.08 302.5  30.5 304.92  30.5 308  C 30.5 311.08  28.08 313.5  25 313.5  C 21.92 313.5  19.5 311.08  19.5 308  C 19.5 304.92  21.92 302.5  25 302.5  Z " stroke-width="1" stroke="#f59a23" fill="none" />
  <path d="M 25 311  C 23.32 311  22 309.68  22 308  C 22 306.32  23.32 305  25 305  C 26.68 305  28 306.32  28 308  C 28 309.68  26.68 311  25 311  " fill-rule="nonzero" fill="#f59a23" stroke="none" />
</svg>