<?xml version="1.0" encoding="utf-8"?>
<svg version="1.1" xmlns:xlink="http://www.w3.org/1999/xlink" width="12px" height="12px" viewBox="19 598  12 12" xmlns="http://www.w3.org/2000/svg">
  <path d="M 25 598  C 28.36 598  31 600.64  31 604  C 31 607.36  28.36 610  25 610  C 21.64 610  19 607.36  19 604  C 19 600.64  21.64 598  25 598  Z " fill-rule="nonzero" fill="#f0f0f0" stroke="none" />
  <path d="M 25 598.5  C 28.08 598.5  30.5 600.92  30.5 604  C 30.5 607.08  28.08 609.5  25 609.5  C 21.92 609.5  19.5 607.08  19.5 604  C 19.5 600.92  21.92 598.5  25 598.5  Z " stroke-width="1" stroke="#797979" fill="none" />
  <path d="M 25 607  C 23.32 607  22 605.68  22 604  C 22 602.32  23.32 601  25 601  C 26.68 601  28 602.32  28 604  C 28 605.68  26.68 607  25 607  " fill-rule="nonzero" fill="#797979" stroke="none" />
</svg>