<?xml version="1.0" encoding="utf-8"?>
<svg version="1.1" xmlns:xlink="http://www.w3.org/1999/xlink" width="56px" height="53px" xmlns="http://www.w3.org/2000/svg">
  <g transform="matrix(1 0 0 1 -186 -340 )">
    <path d="M 30.24970703125 4  C 30.19228515625 3.51815104166666  29.862109375 3.44569010416666  29.632421875 3.47467447916667  C 29.30224609375 3.51815104166666  28.95771484375 3.48916666666667  28.6275390625 3.48916666666667  C 23.1724609375 3.48916666666667  17.7173828125 3.47467447916667  12.2623046875 3.50365885416667  C 10.683203125 3.50365885416667  9.11845703125 3.70654947916667  7.6111328125 4.24276041666667  C 4.941015625 5.18475260416666  3.333203125 7.06873697916666  2.6728515625 9.80776041666667  C 2.42880859375 10.8222135416667  2.3283203125 11.8511588541667  2.3283203125 12.8945963541667  C 2.3283203125 22.6333463541667  2.31396484375 32.3576041666667  2.34267578125 42.0963541666667  C 2.34267578125 44.0962760416667  2.471875 46.0961979166667  3.23271484375001 48.0091666666667  C 4.22324218750001 50.4873307291667  6.06074218750001 51.9510416666667  8.5873046875 52.6031901041667  C 9.49169921875 52.8350651041667  10.4248046875 52.9220182291667  11.35791015625 53  L 42.65283203125 53  C 43.8443359375 52.9220182291667  45.03583984375 52.8205729166667  46.21298828125 52.5886979166667  C 49.71572265625 51.9365494791667  52.01259765625 49.5888151041667  52.65859375 46.0672135416667  C 52.716015625 45.7483854166667  52.601171875 45.3136197916667  53 45.1686979166667  L 53 11.5468229166667  C 53.01748046875 11.4888541666667  53.003125 11.4163932291667  53.003125 11.3294401041667  C 52.78779296875 10.6338151041667  52.75908203125 9.90920572916666  52.52939453125 9.19908854166667  C 51.51015625 6.15572916666667  49.4142578125 4.35869791666667  46.38525390625 3.57611979166667  C 45.46650390625 3.34424479166667  44.54775390625 3.22830729166667  43.5859375 3.27178385416667  C 43.39931640625 3.28627604166667  43.1552734375 3.41670572916667  43.02607421875 4  L 30.24970703125 4  Z M 11.3435546875 9.35850260416667  C 22.167578125 9.34401041666667  32.9916015625 9.35850260416667  43.80126953125 9.37299479166666  C 44.37548828125 9.37299479166666  44.9640625 9.50342447916667  45.5095703125 9.67733072916666  C 46.50009765625 9.99615885416666  47.04560546875 10.7787369791667  47.04560546875 11.8656510416667  C 47.04560546875 22.7058072916667  47.0599609375 33.5459635416667  47.03125 44.3861197916667  C 47.03125 46.0092447916667  45.7966796875 46.9947135416667  44.00224609375 47.0092057291667  C 38.51845703125 47.0526822916667  33.0490234375 47.0236979166667  27.565234375 47  L 11.3435546875 47  C 10.69755859375 47.0236979166667  10.108984375 46.8352994791667  9.52041015624999 46.6324088541667  C 8.30019531249999 46.1831510416667  8.14228515624999 45.1107291666667  8.12792968749999 44.0383072916667  C 8.09921874999998 38.6037369791667  8.11357421874999 33.1691666666667  9 27.7345963541667  L 9 12.4453385416667  C 8.11357421874999 11.5033463541667  8.32890624999999 10.6338151041667  9.10410156249998 9.98166666666667  C 9.76445312499999 9.43096354166667  10.58271484375 9.35850260416667  11.3435546875 9.35850260416667  Z " fill-rule="nonzero" fill="#7f7f7f" stroke="none" transform="matrix(1 0 0 1 186 340 )" />
  </g>
</svg>