<?xml version="1.0" encoding="utf-8"?>
<svg version="1.1" xmlns:xlink="http://www.w3.org/1999/xlink" width="120px" height="56px" xmlns="http://www.w3.org/2000/svg">
  <g transform="matrix(1 0 0 1 -123 -340 )">
    <path d="M 94.0043658088235 3.09736328124999  C 93.8306525735294 3.39882812499999  93.5411305147059 3.22656249999999  93.2950367647059 3.2265625  C 87.5769761029412 3.24091796875  81.8589154411765 3.24091796875  76.1553308823529 3.24091796875  C 74.7945772058823 3.24091796875  73.4627757352941 3.38447265625  72.1454503676471 3.6859375  C 70.4662224264706 4.07353515625  68.946231617647 4.79130859375  67.8026194852941 6.08330078125  C 66.2681525735294 7.8203125  65.66015625 9.944921875  65.66015625 12.19873046875  C 65.6312040441176 22.19013671875  65.6312040441176 32.1958984375  65.66015625 42.1873046875  C 65.66015625 43.49365234375  65.7614889705882 44.81435546875  66.0654871323529 46.0919921875  C 66.4708180147059 47.77158203125  67.1656709558823 49.32197265625  68.4829963235294 50.47041015625  C 70.1767003676471 51.9490234375  72.2323069852941 52.62373046875  74.4905790441176 52.62373046875  C 85.2173713235294 52.6380859375  95.9586397058824 52.6380859375  106.685431985294 52.62373046875  C 108.031709558824 52.62373046875  109.392463235294 52.551953125  110.6953125 52.19306640625  C 113.445772058824 51.41787109375  115.559283088235 49.910546875  116.485753676471 47.05380859375  C 116.731847426471 46.29296875  116.746323529412 45.4890625  117.035845588235 44.742578125  C 116.572610294118 44.8861328125  116.673943014706 45.316796875  116.616038602941 45.6326171875  C 115.964613970588 49.1353515625  113.6484375 51.44658203125  110.116268382353 52.092578125  C 108.929227941176 52.30791015625  107.727711397059 52.42275390625  106.526194852941 52  L 74.9682904411765 52  C 74.02734375 52.42275390625  73.0863970588235 52.33662109375  72.1744025735294 52.10693359375  C 69.6410845588235 51.4609375  67.7736672794118 50.01103515625  66.7748161764706 47.55625  C 66.0075827205883 45.67568359375  65.8772977941177 43.6802734375  65.8772977941177 41.69921875  C 65.8483455882353 32.05234375  65.8628216911765 22.41982421875  65.8628216911765 12.77294921875  C 65.8628216911765 11.73935546875  65.9641544117647 10.7201171875  66.2102481617647 9.71523437499999  C 66.8761488970588 7.00205078124999  68.4974724264706 5.13583984374999  71.1900275735294 4.20273437499999  C 72.7100183823529 3.67158203124999  74.2879136029412 3.48496093749999  75.8802849264706 3.47060546874999  C 81.3812040441177 3.44189453124999  86.8821231617647 3.45624999999999  92.3830422794118 3.45624999999999  C 92.7159926470588 3.45624999999999  93.0634191176471 3.48496093749999  93.3963694852941 3.44189453124999  C 93.6424632352941 3.41318359374999  93.9609375 3.47060546874999  94.0043658088235 3.09736328124999  Z M 3 44.12529296875  C 3.39843750000002 44.2544921875  3.29710477941179 44.627734375  3.34053308823529 44.90048828125  C 3.63005514705882 46.694921875  4.13671875 48.40322265625  5.41061580882353 49.78134765625  C 7.07536764705882 51.6044921875  9.24678308823529 52.36533203125  11.6353400735294 52.3796875  C 22.5068933823529 52.42275390625  33.3784466911765 52.42275390625  44.2644761029412 52.3796875  C 45.6252297794118 52.3796875  47.0004595588235 52.2361328125  48.3322610294118 51.81982421875  C 51.87890625 50.714453125  53.9924172794118 47.90078125  53.9924172794118 44.1970703125  C 53.9924172794118 33.5740234375  53.9924172794118 22.96533203125  54.006893382353 12.34228515625  C 54.006893382353 11.42353515625  53.8910845588235 10.53349609375  53.6594669117647 9.64345703125  C 52.8198529411765 6.42783203125  50.1128216911765 4.03046875  46.7833180147059 3.57109375  C 46.1897977941177 3.4849609375  45.5962775735294 3.41318359375  44.98828125 3.41318359375  C 44.6987591911765 3.41318359375  44.3368566176471 3.49931640625  44.2355238970588 3  L 31.3517922794118 3  C 31.1636029411765 3.3701171875  30.874080882353 3.1978515625  30.6424632352941 3.1978515625  C 24.6927849264706 3.21220703125  18.7431066176471 3.169140625  12.7934283088236 3.2265625  C 10.6509650735294 3.24091796875  8.56640625000002 3.5998046875  6.68451286764708 4.76259765625  C 4.87500000000002 5.88232421875  3.81824448529414 7.5044921875  3.25367647058826 9.49990234375  C 3.13786764705885 9.8875  3.22472426470591 10.3181640625  3 10.67705078125  L 3 44.12529296875  Z M 9.05859374999999 44.22578125  C 9.04411764705882 33.41611328125  9.04411764705882 22.577734375  9.05859375 11.73935546875  C 9.05859375 10.5765625  9.95611213235294 9.64345703125  11.1576286764706 9.3994140625  C 11.7945772058824 9.27021484375  12.4315257352941 9.255859375  13.0684742647059 10  L 44.7711397058823 10  C 45.3936121323529 9.255859375  45.9871323529412 9.370703125  46.5661764705882 9.54296875  C 47.6518841911765 9.8875  48.1295955882353 10.53349609375  49 11.6388671875  L 49 44.01044921875  C 48.1295955882353 45.18759765625  47.5795036764706 45.9197265625  46.4503676470588 46.29296875  C 45.8713235294118 46.47958984375  45.2778033088235 46.59443359375  44.6553308823529 46.580078125  C 39.2702205882353 46.56572265625  33.8995863970588 46.56572265625  28.5144761029412 46.56572265625  C 23.0569852941176 46.56572265625  17.6139705882353 46.580078125  12.1564797794118 46.5513671875  C 11.2444852941176 46.5513671875  10.3324908088235 46.42216796875  9.65211397058822 45.67568359375  C 9.26125919117646 45.24501953125  9.05859374999999 44.7712890625  9.05859374999999 44.22578125  Z " fill-rule="nonzero" fill="#7f7f7f" stroke="none" transform="matrix(1 0 0 1 123 340 )" />
  </g>
</svg>