<?xml version="1.0" encoding="utf-8"?>
<svg version="1.1" xmlns:xlink="http://www.w3.org/1999/xlink" width="56px" height="116px" xmlns="http://www.w3.org/2000/svg">
  <g transform="matrix(1 0 0 1 -123 -340 )">
    <path d="M 2.95380859374999 44.3883996212121  C 3.14042968749999 44.4028172348485  3.08300781249999 44.5758285984849  3.0830078125 44.6911695075758  C 3.09736328125 45.9743371212121  3.45625 47.1854166666667  4.0017578125 48.309990530303  C 5.4947265625 51.3953598484848  8.15048828125 52.7794507575758  11.4091796875 52.8082859848485  C 22.10400390625 52.8947916666667  32.798828125 52.8371212121212  43.479296875 52.8371212121212  C 44.81435546875 52.8371212121212  46.1494140625 52.7217803030303  47.45576171875 52.4045928030303  C 51.34609375 51.4386126893939  53.71474609375 48.5983428030303  53.74345703125 44.5614109848485  C 53.815234375 33.9212121212121  53.77216796875 23.2810132575758  53.77216796875 12.6408143939394  C 53.77216796875 11.9343513257576  53.77216796875 11.2278882575758  53.64296875 10.5214251893939  C 53.2123046875 8.18577178030303  52.10693359375 6.28264678030303  50.1689453125 4.89855587121212  C 48.58984375 3.77398200757576  46.79541015625 3.31261837121212  44.87177734375 3.25494791666667  C 44.5416015625 3.24053030303031  44.168359375 3.42795928030303  43.88125 3.1251893939394  C 43.98173828125 3.55771780303031  44.35498046875 3.47121212121212  44.627734375 3.47121212121212  C 45.2306640625 3.47121212121212  45.81923828125 3.55771780303031  46.4078125 3.62980587121212  C 49.7095703125 4.09116950757576  52.39404296875 6.49891098484849  53.22666015625 9.72845643939394  C 53.45634765625 10.6223484848485  53.57119140625 11.516240530303  53.57119140625 12.4389678030303  C 53.5568359375 23.1080018939394  53.57119140625 33.7626183712121  53.5568359375 44.4316524621212  C 53.5568359375 48.1369791666667  51.4609375 50.962831439394  47.94384765625 52.0874053030303  C 46.62314453125 52.5055160984849  45.259375 52.6496922348485  43.9099609375 52.6496922348485  C 33.12900390625 52.6785274621212  22.348046875 52.6929450757576  11.552734375 52.6496922348485  C 9.18408203124999 52.6352746212121  7.04511718749999 51.8711410984849  5.37988281249999 50.0401041666667  C 4.11660156249999 48.6415956439394  3.61416015624999 46.9403172348485  3.32705078124999 45.138115530303  C 3.28398437499999 44.8641808712121  3.38447265624999 44.4749053030303  2.95380859374999 44.3883996212121  Z M 13.00263671875 113.549692234848  C 13.03134765625 113.218087121212  13.3041015625 113.232504734848  13.5337890625 113.203669507576  C 13.83525390625 113.160416666667  14.15107421875 113.189251893939  14.46689453125 113  L 44.03916015625 113  C 45.24501953125 113.189251893939  46.42216796875 113.045075757576  47.5849609375 112.742305871212  C 51.24560546875 111.790743371212  53.528125 108.86396780303  53.54248046875 105.072135416667  C 53.5568359375 101.424479166667  53.54248046875 97.7624053030303  53 94.1147490530303  L 53 72.7766808712121  C 53.54248046875 68.1197916666667  50.47041015625 64.6739820075758  45.84794921875 64.169365530303  C 44.21142578125 63.9963541666666  42.560546875 63.9242660984848  40.90966796875 63.8810132575758  C 35.95703125 63.7800899621212  31.00439453125 63.9531013257576  26.06611328125 64.0684422348485  C 21.32880859375 64.1837831439394  16.59150390625 64.0972774621212  11.8685546875 64.169365530303  C 10.21767578125 64.1982007575757  8.62421875 64.5586410984848  7.17431640625 65.3371922348485  C 5.22197265625 66.3752604166667  4.03046875 68.0044507575758  3.4849609375 70.1526751893939  C 3.38447265625 70.5563683712121  3.47060546875 71.0898200757576  3 71.306084280303  L 3 105.043300189394  C 3.24091796875 105.836268939394  3.26962890625 106.686908143939  3.513671875 107.508712121212  C 4.36064453125 110.493158143939  6.2986328125 112.309777462121  9.2271484375 113.117163825758  C 10.16025390625 113.376680871212  11.1220703125 113.448768939394  12.08388671875 113.419933712121  C 12.28486328125 113.419933712121  12.5576171875 113.261339962121  12.71552734375 113.549692234848  L 13.00263671875 113.549692234848  Z M 41.39775390625 107.364535984849  C 31.5642578125 107.335700757576  21.73076171875 107.350118371212  11.897265625 107.350118371212  C 10.1458984375 107.350118371212  8.92568359375 106.398555871212  8.9400390625 104.394507575758  C 8.9974609375 93.826396780303  8.96875 83.2582859848485  8.95439453125 72.6757575757576  C 8.95439453125 70.9744791666667  9.95927734375 70.0661695075758  11.5814453125 70.0084990530303  C 22.290625 69.6624763257576  32.98544921875 69.9364109848485  43.69462890625 69.8931581439394  C 44.61337890625 69.8931581439394  45.61826171875 69.835487689394  46.50830078125 70.3256865530303  C 47.28349609375 70.7582149621212  47.728515625 71.3637547348485  47.728515625 72.3008996212121  C 47.71416015625 77.7075047348485  47.728515625 83.1141098484849  47.728515625 88.5207149621212  C 47.728515625 93.8840672348485  47.6998046875 99.2330018939394  47.74287109375 104.596354166667  C 47.7572265625 106.340885416667  46.62314453125 107.133854166667  45.0583984375 107.378953598485  C 43.823828125 107.566382575758  42.61796875 107.378953598485  41.39775390625 107.364535984849  Z " fill-rule="nonzero" fill="#7f7f7f" stroke="none" transform="matrix(1 0 0 1 123 340 )" />
  </g>
</svg>