<?xml version="1.0" encoding="utf-8"?>
<svg version="1.1" xmlns:xlink="http://www.w3.org/1999/xlink" width="56px" height="53px" xmlns="http://www.w3.org/2000/svg">
  <g transform="matrix(1 0 0 1 -123 -403 )">
    <path d="M 12.98828125 50.5225260416667  C 13.20361328125 50.2471744791667  13.51943359375 50.4065885416667  13.77783203125 50.4065885416667  C 23.51083984375 50.3920963541667  33.258203125 50.3920963541667  42.9912109375 50.4065885416667  C 44.340625 50.4065885416667  45.67568359375 50.3776041666667  47.0107421875 50.1022526041667  C 48.80517578125 49.7399479166667  50.42734375 48.9718619791667  51.67626953125 47.6240885416667  C 53.06875 46.1169010416667  53.7578125 44.2329166666667  53.7578125 42.1750260416666  C 53.7865234375 31.4073307291667  53.77216796875 20.6251432291667  53.77216796875 9.85744791666666  C 53.77216796875 8.94444010416667  53.71474609375 8.06041666666667  53.48505859375 7.17639322916666  C 52.72421875 4.29244791666667  51.0015625 2.29252604166666  48.2166015625 1.19111979166667  C 46.30732421875 0.437526041666664  44.29755859375 0.466510416666669  42.330859375 0.423033854166674  C 39.01474609375 0.350572916666674  35.6986328125 0.292604166666677  32.38251953125 0.495494791666674  C 29.65498046875 0.669401041666679  26.89873046875 0.538971354166669  24.1568359375 0.640416666666674  C 20.1947265625 0.770846354166672  16.21826171875 0.683893229166669  12.241796875 0.669401041666679  C 11.323046875 0.669401041666679  10.41865234375 0.756354166666682  9.5142578125 0.959244791666679  C 6.8728515625 1.56791666666668  4.84873046875 2.95916666666667  3.6859375 5.49529947916667  C 3.3126953125 6.32135416666668  3.283984375 7.23436197916667  2.939453125 8.06041666666668  C 3.47060546875 7.84303385416668  3.3701171875 7.30682291666667  3.47060546875 6.90104166666668  C 4.01611328125 4.74170572916668  5.22197265625 3.10408854166667  7.1599609375 2.06065104166668  C 8.62421875 1.27807291666668  10.2033203125 0.915768229166684  11.85419921875 0.886783854166679  C 16.59150390625 0.814322916666679  21.314453125 0.901276041666682  26.0517578125 0.785338541666674  C 31.00439453125 0.669401041666679  35.94267578125 0.495494791666674  40.8953125 0.596940104166679  C 42.54619140625 0.625924479166684  44.1970703125 0.698385416666684  45.83359375 0.886783854166679  C 50.4560546875 1.39401041666668  53.51376953125 4.85764322916668  53 9.53861979166668  L 53 30.9870572916667  C 53.528125 34.6535807291667  53.54248046875 38.3345963541667  53.528125 42.0011197916667  C 53.4994140625 45.8270572916667  51.23125 48.7544791666667  47.57060546875 49.7109635416667  C 46.4078125 50.0152994791667  45.2306640625 50.1602213541667  44.0248046875 50  L 14.4525390625 50  C 14.13671875 50.1602213541667  13.83525390625 50.1457291666667  13.51943359375 50.1747135416667  C 13.28974609375 50.2036979166667  13.0169921875 50.1747135416667  12.98828125 50.5225260416667  Z " fill-rule="nonzero" fill="#7f7f7f" stroke="none" transform="matrix(1 0 0 1 123 403 )" />
  </g>
</svg>