<?xml version="1.0" encoding="utf-8"?>
<svg version="1.1" xmlns:xlink="http://www.w3.org/1999/xlink" width="120px" height="116px" xmlns="http://www.w3.org/2000/svg">
  <g transform="matrix(1 0 0 1 -123 -340 )">
    <path d="M 3.23920036764706 9.56986268939394  C 3.81824448529412 7.56581439393939  4.86052389705883 5.9366240530303  6.67003676470588 4.81205018939394  C 8.55193014705882 3.65864109848485  10.6364889705882 3.2837831439394  12.7789522058824 3.26936553030303  C 18.7286305147059 3.21169507575757  24.6783088235294 3.25494791666667  30.6279871323529 3.2405303030303  C 30.8596047794118 3.2405303030303  31.1491268382353 3.41354166666667  31.3373161764706 3.11077178030303  C 31.0912224264706 3.25494791666667  30.8161764705882 3.18285984848485  30.5556066176471 3.18285984848485  C 24.0703125 3.22611268939394  17.5850183823529 3.06751893939394  11.0997242647059 3.26936553030303  C 8.36374080882353 3.35587121212121  6.0475643382353 4.43719223484848  4.36833639705883 6.67192234848485  C 3.45634191176471 7.88300189393939  3.05101102941177 9.2670928030303  2.96415441176471 10.7521070075758  C 3.22472426470588 10.406084280303  3.13786764705883 9.97355587121212  3.23920036764706 9.56986268939394  Z M 106.917049632353 3.09635416666666  C 107.032858455882 3.3991240530303  107.293428308824 3.25494791666666  107.481617647059 3.2405303030303  C 108.437040441176 3.19727746212121  109.377987132353 3.31261837121212  110.304457720588 3.54330018939394  C 113.344439338235 4.32185132575758  115.472426470588 6.10963541666667  116.500229779412 9.13733428030303  C 116.731847426471 9.82937973484848  116.760799632353 10.564678030303  116.977941176471 11.2567234848485  L 116.977941176471 11.199053030303  C 117.035845588235 7.14770359848484  113.445772058824 3.52888257575757  109.349034926471 3.22611268939393  C 108.538373161765 3.16844223484848  107.727711397059 3.29820075757575  106.917049632353 3.09635416666666  Z M 12.8079044117647 113.535274621212  C 12.6486672794118 113.261339962121  12.3736213235294 113.405516098485  12.1709558823529 113.419933712121  C 11.2010569852941 113.448768939394  10.2311580882353 113.376680871212  9.29021139705882 113.117163825758  C 6.33708639705882 112.309777462121  4.3828125 110.493158143939  3.52872242647059 107.508712121212  C 3.29710477941176 106.686908143939  3.26815257352941 105.836268939394  2.9641544117647 105.043300189394  C 3.12339154411764 105.807433712121  3.07996323529412 106.600402462121  3.26815257352941 107.364535984849  C 4.06433823529411 110.651751893939  6.95955882352941 113.218087121212  10.3035386029412 113.419933712121  C 11.1431525735294 113.477604166667  11.9827665441176 113.333428030303  12.8079044117647 113.535274621212  Z " fill-rule="nonzero" fill="#7f7f7f" stroke="none" transform="matrix(1 0 0 1 123 340 )" />
  </g>
</svg>