<?xml version="1.0" encoding="utf-8"?>
<svg version="1.1" xmlns:xlink="http://www.w3.org/1999/xlink" width="99px" height="99px" xmlns="http://www.w3.org/2000/svg">
  <g transform="matrix(1 0 0 1 -141 -357 )">
    <path d="M 59.5263741629464 67.7924874441964  C 59.5263741629464 66.0522530691964  58.3082101004464 64.9065987723214  56.4084542410714 64.9356026785714  C 54.6247140066964 64.9646065848214  53.4500558035714 66.1392647879464  53 67.8359933035714  L 53 92.7503487723214  C 53.4500558035714 94.5340890066964  54.6827218191964 95.6652413504464  56.4664620535714 95.6362374441964  C 58.3372140066964 95.6072335379464  59.5118722098214 94.6356026785714  59.5263741629464 92.7793526785714  C 59.5553780691964 84.4552315848214  59.5408761160714 76.1166085379464  59.5263741629464 67.7924874441964  Z M 95.8102608816964 68.4015694754464  C 95.7957589285714 66.3132882254464  95.1431710379464 65.3416573660714  93.0983956473214 64.9646065848214  C 91.6627022879464 64.7035714285714  89.7194405691964 65.6752022879464  89.7194405691964 67.6039620535714  C 89.6904366629464 71.8385323660714  89.7194405691964 76.0586007254464  89 80.2931710379464  L 89 92.9098702566964  C 89.7194405691964 93.1419015066964  89.7049386160714 93.4029366629464  89.7774483816964 93.6204659598214  C 90.2560128348214 94.9836495535714  91.8657296316964 95.9697823660714  93.1854073660714 95.6507393973214  C 94.8386300223214 95.2591866629464  95.7812569754464 94.6065987723214  95.7957589285714 92.5473214285714  C 95.8247628348214 84.4987374441964  95.8102608816964 76.4501534598214  95.8102608816964 68.4015694754464  Z M 79.6985909598214 74.2748604910714  C 79.6985909598214 74.0863351004464  79.6985909598214 73.8543038504464  79.6550851004464 73.6512765066964  C 79.2780343191964 72.2880929129464  77.7698311941964 71.2149483816964  76.4501534598214 71.4614815848214  C 74.6519112723214 71.8095284598214  73.6367745535714 72.4186104910714  73.6222726004464 74.4923897879464  C 73.5787667410714 80.4526925223214  73.6077706473214 86.4274972098214  73.6077706473214 92.3877999441964  C 73.6077706473214 94.3890694754464  74.4343819754464 95.2881905691964  76.1456124441964 95.6072335379464  C 77.7553292410714 95.9117745535714  79.6840890066964 94.9546456473214  79.6985909598214 92.8373604910714  L 79.6985909598214 83.6286202566964  L 79.6985909598214 74.2748604910714  Z M 79.6985909598214 50.0711007254464  C 79.7420968191964 47.3157296316964  77.5813058035714 46.7646554129464  75.6380440848214 47.1852120535714  C 74.3763741629464 47.4607491629464  73.6077706473214 48.6644112723214  73 50.0565987723214  L 73 62.8763253348214  C 73.6077706473214 64.7760811941964  74.1878487723214 65.9217354910714  76.2326241629464 66.3132882254464  C 77.7263253348214 66.5888253348214  79.7130929129464 65.5591866629464  79.6985909598214 63.6304268973214  C 79.6840890066964 61.3391183035714  79.6985909598214 59.0478097098214  79.6985909598214 56.7419991629464  C 79.6985909598214 54.5232003348214  79.6695870535714 52.3044015066964  79.6985909598214 50.0711007254464  Z M 59.5263741629464 49.7520577566964  C 59.5263741629464 48.8674386160714  59.1783272879464 48.1133370535714  58.3807198660714 47.5622628348214  C 57.6701241629464 47.0691964285714  56.9160226004464 47.0836983816964  56.1474190848214 47.0836983816964  C 54.6247140066964 47.0836983816964  53.4645577566964 48.2293526785714  53.4645577566964 49.7375558035714  L 53.4645577566964 53.5080636160714  C 53.4645577566964 54.8132393973214  53.4500558035714 56.1184151785714  53.4645577566964 57.4235909598214  C 53.4790597098214 58.0906808035714  53.6530831473214 58.6852608816964  54.1751534598214 59.2073311941964  C 54.9292550223214 59.9614327566964  55.7993722098214 60.1789620535714  56.8145089285714 60.1499581473214  C 58.2502022879464 60.1064522879464  59.5408761160714 58.8592843191964  59.5408761160714 57.4380929129464  C 59.5553780691964 54.8712472098214  59.5698800223214 52.3189034598214  59.5263741629464 49.7520577566964  Z M 95.7957589285714 49.9550851004464  C 95.7957589285714 49.5345284598214  95.6797433035714 49.1574776785714  95.5492257254464 48.7949288504464  C 95.2301827566964 47.8958077566964  94.1280343191964 47.0836983816964  92.9533761160714 47.0546944754464  C 90.8795968191964 46.9821847098214  89.5309151785714 48.2003487723214  89.6904366629464 50.3611397879464  C 89.7629464285714 51.3762765066964  89.7049386160714 52.3914132254464  89.7049386160714 53.4065499441964  L 89.7049386160714 57.0320382254464  C 89.7049386160714 57.2495675223214  89.7049386160714 57.4670968191964  89.7629464285714 57.6701241629464  C 90.2270089285714 59.1638253348214  91.6336983816964 59.9179268973214  93.2289132254464 59.7003976004464  C 94.8241280691964 59.4683663504464  95.7522530691964 58.4822335379464  95.7812569754464 56.8435128348214  C 95.8247628348214 54.5522042410714  95.7957589285714 52.2463936941964  95.7957589285714 49.9550851004464  Z M 20 6.43472377232142  C 19.3414620535714 6.14468470982142  19.2979561941964 5.85464564732142  19.2254464285714 5.56460658482143  C 18.9499093191964 4.50596400669643  18.0797921316964 3.72285853794643  16.9921456473214 3.57783900669643  C 16.8036202566964 3.54883510044643  16.6005929129464 3.51983119419643  16.4120675223214 3.51983119419643  C 16.3250558035714 3.51983119419643  16.1945382254464 3.54883510044643  16.1655343191964 3.40381556919643  L 11.9889718191964 3.40381556919643  C 11.9309640066964 3.50532924107142  11.8294503348214 3.44732142857143  11.7569405691964 3.44732142857143  C 9.82818080357143 3.44732142857143  7.89942103794643 3.43281947544643  5.97066127232143 3.46182338169643  C 5.27456752232143 3.46182338169643  4.59297572544643 3.59234095982143  3.98389369419643 3.96939174107143  C 3.38931361607144 4.33194056919643  3.05576869419643 4.86851283482143  2.86724330357143 5.52110072544643  C 2.83823939732143 5.65161830357143  2.86724330357143 5.79663783482143  3 5.89815150669643  L 3 16.8471261160714  C 2.92525111607144 16.8761300223214  2.88174525669644 17.0066476004464  2.89624720982144 17.0936593191964  C 2.99776088169644 17.6882393973214  3.15728236607144 18.2393136160714  3.56333705357144 18.6888741629464  C 4.09990931919643 19.2834542410714  4.81050502232144 19.5299874441964  5.57910853794643 19.5444893973214  C 9.10308314732143 19.5589913504464  12.6415597098214 19.5589913504464  16.1655343191964 19.5444893973214  C 16.6150948660714 19.5444893973214  17.0501534598214 19.5009835379464  17.4852120535714 19.3559640066964  C 18.6308663504464 18.9934151785714  19.3269601004464 18.0652901785714  20 16.8616280691964  L 20 6.43472377232142  Z M 82 5.31807338169642  C 82.2219308035714 5.02803431919642  82.1639229910714 4.72349330357142  82.0914132254464 4.44795619419642  C 81.8158761160714 3.38931361607142  80.9457589285714 2.60620814732143  79.8581124441964 2.46118861607143  C 79.6695870535714 2.43218470982143  79.4665597098214 2.40318080357143  79.2780343191964 2.40318080357143  C 79.1910226004464 2.40318080357143  79.0605050223214 2.43218470982143  79.0315011160714 2.28716517857143  L 74.8549386160714 2.28716517857143  C 74.7969308035714 2.38867885044643  74.6954171316964 2.33067103794643  74.6229073660714 2.33067103794643  C 72.6941476004464 2.33067103794643  70.7653878348214 2.31616908482143  68.8366280691964 2.34517299107142  C 68.1405343191964 2.34517299107142  67.4589425223214 2.47569056919643  66.8498604910714 2.85274135044642  C 66.2552804129464 3.21529017857142  65.9217354910714 3.75186244419642  65.7332101004464 4.40445033482142  C 65.7042061941964 4.53496791294643  65.7332101004464 4.67998744419643  65 4.78150111607143  L 65 15.7304757254464  C 65.7912179129464 15.7594796316964  65.7477120535714 15.8899972098214  65.7622140066964 15.9770089285714  C 65.8637276785714 16.5715890066964  66.0232491629464 17.1226632254464  66.4293038504464 17.5722237723214  C 66.9658761160714 18.1668038504464  67.6764718191964 18.4133370535714  68.4450753348214 18.4278390066964  C 71.9690499441964 18.4423409598214  75.5075265066964 18.4423409598214  79.0315011160714 18.4278390066964  C 79.4810616629464 18.4278390066964  79.9161202566964 18.3843331473214  80.3511788504464 18.2393136160714  C 81.4968331473214 17.8767647879464  82.1929268973214 16.9486397879464  82 15.7449776785714  L 82 5.31807338169642  Z M 20 67.1689034598214  C 19.2544503348214 66.8788643973214  19.2109444754464 66.5888253348214  19.1384347098214 66.2987862723214  C 18.8628976004464 65.2401436941964  17.9927804129464 64.4570382254464  16.9051339285714 64.3120186941964  C 16.7166085379464 64.2830147879464  16.5135811941964 64.2540108816964  16.3250558035714 64.2540108816964  C 16.2380440848214 64.2540108816964  16.1075265066964 64.2830147879464  16.0785226004464 64.1379952566964  L 11.9019601004464 64.1379952566964  C 11.8439522879464 64.2395089285714  11.7424386160714 64.1815011160714  11.6699288504464 64.1815011160714  C 9.74116908482143 64.1815011160714  7.81240931919642 64.1669991629464  5.88364955357143 64.1960030691964  C 5.18755580357143 64.1960030691964  4.50596400669643 64.3265206473214  3.89688197544643 64.7035714285714  C 3.30230189732143 65.0661202566964  2.96875697544643 65.6026925223214  2.78023158482143 66.2552804129464  C 2.75122767857143 66.3857979910714  2.78023158482143 66.5308175223214  3 66.6323311941964  L 3 77.5813058035714  C 2.83823939732143 77.6103097098214  2.79473353794643 77.7408272879464  2.80923549107144 77.8278390066964  C 2.91074916294643 78.4224190848215  3.07027064732144 78.9734933035714  3.47632533482143 79.4230538504464  C 4.01289760044643 80.0176339285715  4.72349330357144 80.2641671316964  5.49209681919643 80.2786690848214  C 9.01607142857143 80.2931710379464  12.5545479910714 80.2931710379464  16.0785226004464 80.2786690848214  C 16.5280831473214 80.2786690848214  16.9631417410714 80.2351632254465  17.3982003348214 80.0901436941965  C 18.5438546316964 79.7275948660715  19.2399483816964 78.7994698660714  20 77.5958077566964  L 20 67.1689034598214  Z " fill-rule="nonzero" fill="#7f7f7f" stroke="none" transform="matrix(1 0 0 1 141 357 )" />
  </g>
</svg>