<?xml version="1.0" encoding="utf-8"?>
<svg version="1.1" xmlns:xlink="http://www.w3.org/1999/xlink" width="19px" height="19px" xmlns="http://www.w3.org/2000/svg">
  <g transform="matrix(1 0 0 1 -17 -282 )">
    <path d="M 17.8167222304688 16.6260555576172  L 10.4837777695312 9.29416667285156  L 17.8156666728516 1.96227776953125  C 18.1859333709472 1.58801000651948  18.1859333709472 0.985434435863331  17.8156666728516 0.611166672851563  L 17.7755555576172 0.573166672851563  C 17.4012877924059 0.202899962518382  16.7987122075941 0.202899962518382  16.4244444423828 0.573166672851563  L 9.09361111523438 7.9135  L 1.76066667285156 0.572111115234375  C 1.38639890764027 0.201844404901193  0.783823322828481 0.201844404901193  0.409555557617187 0.572111115234375  L 0.371555557617187 0.61222223046875  C 0.189522402895503 0.789640845649315  0.0868602614091208 1.03305827230117  0.0868602614091208 1.28725  C 0.0868602614091208 1.54144172769883  0.189522402895502 1.78485915435068  0.371555557617188 1.96227776953125  L 7.70344444238281 9.29416667285156  L 0.371555557617188 16.6260555576172  C 0.00128884728400673 17.0003233228285  0.00128884728400486 17.6028989076403  0.371555557617188 17.9771666728516  L 0.411666672851563 18.0162222304687  C 0.785934435863331 18.3864889285644  1.38851000651948 18.3864889285644  1.76277776953125 18.0162222304687  L 9.09361111523438 10.6843333271484  L 16.4265555576172 18.0162222304687  C 16.800697881258 18.3857932962793  17.4024687915935 18.3857932962793  17.7766111152344 18.0162222304687  L 17.8167222304688 17.9761111152344  C 18.1862932962793 17.6019687915935  18.1862932962793 17.000197881258  17.8167222304688 16.6260555576172  Z " fill-rule="nonzero" fill="#7f7f7f" stroke="none" transform="matrix(1 0 0 1 17 282 )" />
  </g>
</svg>