<?xml version="1.0" encoding="utf-8"?>
<svg version="1.1" xmlns:xlink="http://www.w3.org/1999/xlink" width="16px" height="15px" xmlns="http://www.w3.org/2000/svg">
  <g transform="matrix(1 0 0 1 -291 -691 )">
    <path d="M 8.6427734375 0.889062500000001  C 8.6263671875 0.995703124999999  8.53203125 0.975195312499999  8.46640625 0.9833984375  C 8.3720703125 0.995703124999999  8.2736328125 0.9875  8.179296875 0.9875  C 6.620703125 0.9875  5.062109375 0.9833984375  3.503515625 0.9916015625  C 3.05234375 0.9916015625  2.6052734375 1.0490234375  2.174609375 1.20078125  C 1.41171875 1.4673828125  0.952343750000001 2.0005859375  0.763671875 2.77578125  C 0.693945312499999 3.062890625  0.665234375000001 3.3541015625  0.665234375000001 3.6494140625  C 0.665234375000001 6.4056640625  0.6611328125 9.1578125  0.669335937500001 11.9140625  C 0.669335937500001 12.480078125  0.706250000000001 13.04609375  0.923632812500003 13.5875  C 1.206640625 14.2888671875  1.731640625 14.703125  2.453515625 14.8876953125  C 2.7119140625 14.9533203125  2.978515625 14.9779296875  3.2451171875 14.9779296875  L 12.1865234375 14.9779296875  C 12.526953125 14.9779296875  12.8673828125 14.94921875  13.2037109375 14.88359375  C 14.2044921875 14.6990234375  14.8607421875 14.0345703125  15.0453125 13.037890625  C 15.06171875 12.94765625  15.02890625 12.824609375  15.1642578125 12.78359375  L 15.1642578125 3.26796875  C 15.1478515625 3.2515625  15.14375 3.2310546875  15.14375 3.2064453125  C 15.0822265625 3.0095703125  15.0740234375 2.8044921875  15.0083984375 2.603515625  C 14.7171875 1.7421875  14.118359375 1.23359375  13.2529296875 1.012109375  C 12.9904296875 0.946484375000001  12.7279296875 0.913671874999999  12.453125 0.925976562500001  C 12.3998046875 0.930078125000001  12.330078125 0.966992187500001  12.2931640625 0.889062500000001  L 8.6427734375 0.889062500000001  Z M 3.241015625 2.6486328125  C 6.33359375 2.64453125  9.42617187499999 2.6486328125  12.5146484375 2.652734375  C 12.6787109375 2.652734375  12.846875 2.6896484375  13.002734375 2.7388671875  C 13.2857421875 2.8291015625  13.4416015625 3.0505859375  13.4416015625 3.358203125  C 13.4416015625 6.426171875  13.445703125 9.494140625  13.4375 12.562109375  C 13.4375 13.021484375  13.084765625 13.300390625  12.5720703125 13.3044921875  C 11.0052734375 13.316796875  9.442578125 13.30859375  7.87578125 13.30859375  L 3.241015625 13.30859375  C 3.0564453125 13.30859375  2.88828125 13.2552734375  2.7201171875 13.1978515625  C 2.371484375 13.070703125  2.3263671875 12.7671875  2.322265625 12.463671875  C 2.3140625 10.9255859375  2.3181640625 9.3875  2.3181640625 7.8494140625  L 2.3181640625 3.522265625  C 2.3181640625 3.2556640625  2.3796875 3.0095703125  2.601171875 2.825  C 2.78984375 2.669140625  3.02363281249999 2.6486328125  3.241015625 2.6486328125  Z " fill-rule="nonzero" fill="#f59a23" stroke="none" transform="matrix(1 0 0 1 291 691 )" />
  </g>
</svg>