<?xml version="1.0" encoding="utf-8"?>
<svg version="1.1" xmlns:xlink="http://www.w3.org/1999/xlink" width="16px" height="15px" xmlns="http://www.w3.org/2000/svg">
  <g transform="matrix(1 0 0 1 -273 -709 )">
    <path d="M 3.7109375 14.298828125  C 3.7724609375 14.2208984375  3.8626953125 14.266015625  3.9365234375 14.266015625  C 6.7173828125 14.2619140625  9.50234375 14.2619140625  12.283203125 14.266015625  C 12.66875 14.266015625  13.0501953125 14.2578125  13.431640625 14.1798828125  C 13.9443359375 14.07734375  14.4078125 13.8599609375  14.7646484375 13.478515625  C 15.1625 13.051953125  15.359375 12.51875  15.359375 11.936328125  C 15.367578125 8.8888671875  15.3634765625 5.8373046875  15.3634765625 2.78984375  C 15.3634765625 2.5314453125  15.3470703125 2.28125  15.2814453125 2.0310546875  C 15.0640625 1.21484375  14.571875 0.648828124999998  13.776171875 0.337109375000001  C 13.2306640625 0.123828124999999  12.6564453125 0.132031250000001  12.09453125 0.119726562500002  C 11.1470703125 0.0992187500000021  10.199609375 0.0828125000000028  9.2521484375 0.140234375000002  C 8.4728515625 0.189453125000004  7.6853515625 0.152539062500001  6.901953125 0.181250000000002  C 5.769921875 0.218164062500001  4.6337890625 0.193554687500001  3.49765625 0.189453125000004  C 3.23515625 0.189453125000004  2.9767578125 0.214062500000004  2.718359375 0.271484375000004  C 1.963671875 0.443750000000005  1.3853515625 0.837500000000002  1.053125 1.5552734375  C 0.946484375000001 1.7890625  0.938281250000001 2.0474609375  0.839843750000001 2.28125  C 0.991601562500001 2.2197265625  0.962890625000001 2.06796875  0.991601562500001 1.953125  C 1.1474609375 1.3419921875  1.4919921875 0.878515625000002  2.045703125 0.583203125000004  C 2.4640625 0.361718750000005  2.915234375 0.259179687500005  3.3869140625 0.250976562500004  C 4.7404296875 0.230468750000004  6.08984375 0.255078125000004  7.443359375 0.222265625000002  C 8.8583984375 0.189453125000004  10.2693359375 0.140234375000002  11.684375 0.168945312500004  C 12.1560546875 0.177148437500005  12.627734375 0.197656250000005  13.0953125 0.250976562500004  C 14.416015625 0.394531250000004  15.2896484375 1.3748046875  15.29375 2.699609375  L 15.29375 8.769921875  C 15.29375 9.8076171875  15.2978515625 10.8494140625  15.29375 11.887109375  C 15.285546875 12.969921875  14.6375 13.7984375  13.5916015625 14.069140625  C 13.259375 14.1552734375  12.923046875 14.1962890625  12.578515625 14.1962890625  L 4.129296875 14.1962890625  C 4.0390625 14.1962890625  3.9529296875 14.1921875  3.8626953125 14.200390625  C 3.7970703125 14.20859375  3.719140625 14.200390625  3.7109375 14.298828125  Z " fill-rule="nonzero" fill="#f59a23" stroke="none" transform="matrix(1 0 0 1 273 709 )" />
  </g>
</svg>