<?xml version="1.0" encoding="utf-8"?>
<svg version="1.1" xmlns:xlink="http://www.w3.org/1999/xlink" width="34px" height="16px" xmlns="http://www.w3.org/2000/svg">
  <g transform="matrix(1 0 0 1 -273 -691 )">
    <path d="M 26.6345703125 0.884960937499997  C 26.5853515625 0.971093749999997  26.5033203125 0.921874999999997  26.43359375 0.921875  C 24.8134765625 0.9259765625  23.193359375 0.9259765625  21.57734375 0.9259765625  C 21.191796875 0.9259765625  20.814453125 0.9669921875  20.4412109375 1.053125  C 19.9654296875 1.1638671875  19.534765625 1.3689453125  19.2107421875 1.7380859375  C 18.7759765625 2.234375  18.6037109375 2.84140625  18.6037109375 3.4853515625  C 18.5955078125 6.3400390625  18.5955078125 9.198828125  18.6037109375 12.053515625  C 18.6037109375 12.4267578125  18.632421875 12.8041015625  18.7185546875 13.169140625  C 18.8333984375 13.6490234375  19.0302734375 14.0919921875  19.403515625 14.4201171875  C 19.8833984375 14.842578125  20.4658203125 15.0353515625  21.1056640625 15.0353515625  C 24.144921875 15.039453125  27.18828125 15.039453125  30.2275390625 15.0353515625  C 30.608984375 15.0353515625  30.99453125 15.01484375  31.363671875 14.9123046875  C 32.14296875 14.6908203125  32.741796875 14.26015625  33.004296875 13.4439453125  C 33.0740234375 13.2265625  33.078125 12.996875  33.16015625 12.78359375  C 33.02890625 12.824609375  33.0576171875 12.94765625  33.0412109375 13.037890625  C 32.856640625 14.038671875  32.200390625 14.6990234375  31.199609375 14.88359375  C 30.86328125 14.9451171875  30.5228515625 14.9779296875  30.182421875 14.9779296875  L 21.241015625 14.9779296875  C 20.9744140625 14.9779296875  20.7078125 14.9533203125  20.4494140625 14.8876953125  C 19.731640625 14.703125  19.2025390625 14.2888671875  18.91953125 13.5875  C 18.7021484375 13.0501953125  18.665234375 12.480078125  18.665234375 11.9140625  C 18.65703125 9.1578125  18.6611328125 6.4056640625  18.6611328125 3.6494140625  C 18.6611328125 3.3541015625  18.68984375 3.062890625  18.7595703125 2.77578125  C 18.9482421875 2.0005859375  19.4076171875 1.4673828125  20.1705078125 1.20078125  C 20.601171875 1.0490234375  21.0482421875 0.995703124999997  21.4994140625 0.991601562499997  C 23.0580078125 0.983398437499997  24.6166015625 0.987499999999997  26.1751953125 0.987499999999997  C 26.26953125 0.987499999999997  26.36796875 0.995703124999998  26.4623046875 0.983398437499997  C 26.53203125 0.975195312499998  26.622265625 0.991601562499998  26.6345703125 0.884960937499997  Z M 0.843945312500006 12.6072265625  C 0.962890625000006 12.644140625  0.934179687500007 12.75078125  0.946484375 12.8287109375  C 1.028515625 13.34140625  1.1720703125 13.8294921875  1.5330078125 14.2232421875  C 2.0046875 14.744140625  2.619921875 14.9615234375  3.2966796875 14.965625  C 6.376953125 14.9779296875  9.4572265625 14.9779296875  12.5416015625 14.965625  C 12.9271484375 14.965625  13.316796875 14.924609375  13.694140625 14.8056640625  C 14.6990234375 14.48984375  15.2978515625 13.6859375  15.2978515625 12.627734375  C 15.2978515625 9.592578125  15.2978515625 6.5615234375  15.301953125 3.5263671875  C 15.301953125 3.2638671875  15.269140625 3.0095703125  15.203515625 2.7552734375  C 14.965625 1.8365234375  14.1986328125 1.1515625  13.2552734375 1.0203125  C 13.087109375 0.995703125000001  12.9189453125 0.975195312500001  12.7466796875 0.975195312500001  C 12.6646484375 0.975195312500001  12.562109375 0.999804687500001  12.5333984375 0.876757812500001  L 8.88300781250001 0.876757812500001  C 8.82968750000001 0.962890625000001  8.74765625000001 0.913671875000001  8.68203125000001 0.913671875000001  C 6.99628906250001 0.917773437500001  5.31054687500001 0.905468750000001  3.62480468750001 0.921875000000001  C 3.01777343750001 0.925976562500001  2.42714843750001 1.028515625  1.89394531250001 1.3607421875  C 1.38125000000001 1.6806640625  1.08183593750001 2.144140625  0.921875000000006 2.7142578125  C 0.889062500000007 2.825  0.913671875000007 2.948046875  0.843945312500006 3.0505859375  L 0.843945312500006 12.6072265625  Z M 2.5666015625 12.6359375  C 2.5625 9.5474609375  2.5625 6.45078125  2.5666015625 3.3541015625  C 2.5666015625 3.021875  2.8208984375 2.7552734375  3.161328125 2.685546875  C 3.341796875 2.6486328125  3.522265625 2.64453125  3.702734375 2.64453125  L 12.68515625 2.64453125  C 12.8615234375 2.64453125  13.0296875 2.67734375  13.19375 2.7265625  C 13.5013671875 2.825  13.63671875 3.0095703125  13.63671875 3.325390625  L 13.63671875 12.5744140625  C 13.63671875 12.9107421875  13.480859375 13.119921875  13.1609375 13.2265625  C 12.996875 13.2798828125  12.8287109375 13.3126953125  12.65234375 13.30859375  C 11.1265625 13.3044921875  9.6048828125 13.3044921875  8.0791015625 13.3044921875  C 6.5328125 13.3044921875  4.990625 13.30859375  3.4443359375 13.300390625  C 3.1859375 13.300390625  2.9275390625 13.2634765625  2.734765625 13.0501953125  C 2.6240234375 12.9271484375  2.5666015625 12.791796875  2.5666015625 12.6359375  Z " fill-rule="nonzero" fill="#f59a23" stroke="none" transform="matrix(1 0 0 1 273 691 )" />
  </g>
</svg>