<?xml version="1.0" encoding="utf-8"?>
<svg version="1.1" xmlns:xlink="http://www.w3.org/1999/xlink" width="16px" height="33px" xmlns="http://www.w3.org/2000/svg">
  <g transform="matrix(1 0 0 1 -273 -691 )">
    <path d="M 0.843945312499997 12.627734375  C 0.897265624999997 12.6318359375  0.880859374999997 12.6810546875  0.880859375 12.7138671875  C 0.8849609375 13.07890625  0.9875 13.4234375  1.143359375 13.743359375  C 1.569921875 14.62109375  2.3287109375 15.01484375  3.259765625 15.023046875  C 6.3154296875 15.04765625  9.37109375 15.03125  12.42265625 15.03125  C 12.8041015625 15.03125  13.185546875 14.9984375  13.5587890625 14.908203125  C 14.6703125 14.6333984375  15.3470703125 13.825390625  15.3552734375 12.676953125  C 15.37578125 9.65  15.3634765625 6.623046875  15.3634765625 3.59609375  C 15.3634765625 3.3951171875  15.3634765625 3.194140625  15.3265625 2.9931640625  C 15.203515625 2.3287109375  14.8876953125 1.7873046875  14.333984375 1.3935546875  C 13.8828125 1.0736328125  13.3701171875 0.942382812500001  12.8205078125 0.925976562500001  C 12.726171875 0.921875000000001  12.61953125 0.975195312500001  12.5375 0.889062500000001  C 12.5662109375 1.012109375  12.6728515625 0.987500000000001  12.75078125 0.987500000000001  C 12.923046875 0.987500000000001  13.0912109375 1.012109375  13.259375 1.0326171875  C 14.202734375 1.1638671875  14.9697265625 1.848828125  15.2076171875 2.767578125  C 15.2732421875 3.021875  15.3060546875 3.276171875  15.3060546875 3.538671875  C 15.301953125 6.573828125  15.3060546875 9.6048828125  15.301953125 12.6400390625  C 15.301953125 13.694140625  14.703125 14.498046875  13.6982421875 14.81796875  C 13.3208984375 14.9369140625  12.93125 14.9779296875  12.545703125 14.9779296875  C 9.4654296875 14.9861328125  6.38515625 14.990234375  3.30078125 14.9779296875  C 2.6240234375 14.973828125  2.012890625 14.7564453125  1.537109375 14.235546875  C 1.176171875 13.8376953125  1.0326171875 13.3537109375  0.950585937499997 12.841015625  C 0.938281249999997 12.7630859375  0.966992187499997 12.65234375  0.843945312499997 12.627734375  Z M 3.7150390625 32.3029296875  C 3.7232421875 32.20859375  3.801171875 32.2126953125  3.866796875 32.2044921875  C 3.9529296875 32.1921875  4.0431640625 32.200390625  4.1333984375 32.200390625  L 12.5826171875 32.200390625  C 12.9271484375 32.200390625  13.2634765625 32.159375  13.595703125 32.0732421875  C 14.6416015625 31.8025390625  15.29375 30.969921875  15.2978515625 29.8912109375  C 15.301953125 28.853515625  15.2978515625 27.81171875  15.2978515625 26.7740234375  L 15.2978515625 20.7037109375  C 15.2978515625 19.37890625  14.4201171875 18.3986328125  13.0994140625 18.255078125  C 12.6318359375 18.205859375  12.16015625 18.1853515625  11.6884765625 18.173046875  C 10.2734375 18.1443359375  8.8583984375 18.1935546875  7.4474609375 18.2263671875  C 6.0939453125 18.2591796875  4.7404296875 18.2345703125  3.391015625 18.255078125  C 2.9193359375 18.26328125  2.4640625 18.3658203125  2.0498046875 18.5873046875  C 1.4919921875 18.8826171875  1.1515625 19.34609375  0.995703124999999 19.9572265625  C 0.9669921875 20.0720703125  0.991601562500001 20.223828125  0.8439453125 20.2853515625  L 0.8439453125 29.8830078125  C 0.9259765625 30.10859375  0.934179687499999 30.3505859375  1.00390625 30.584375  C 1.2458984375 31.4333984375  1.799609375 31.9501953125  2.636328125 32.1798828125  C 2.9029296875 32.2537109375  3.177734375 32.27421875  3.4525390625 32.266015625  C 3.5099609375 32.266015625  3.587890625 32.2208984375  3.6330078125 32.3029296875  L 3.7150390625 32.3029296875  Z M 11.8279296875 30.543359375  C 9.018359375 30.53515625  6.2087890625 30.5392578125  3.39921875 30.5392578125  C 2.898828125 30.5392578125  2.5501953125 30.2685546875  2.554296875 29.6984375  C 2.570703125 26.6919921875  2.5625 23.685546875  2.5583984375 20.675  C 2.5583984375 20.191015625  2.8455078125 19.9326171875  3.308984375 19.9162109375  C 6.36875 19.8177734375  9.4244140625 19.895703125  12.4841796875 19.8833984375  C 12.7466796875 19.8833984375  13.0337890625 19.8669921875  13.2880859375 20.0064453125  C 13.5095703125 20.1294921875  13.63671875 20.3017578125  13.63671875 20.568359375  C 13.6326171875 22.1064453125  13.63671875 23.64453125  13.63671875 25.1826171875  C 13.63671875 26.7083984375  13.628515625 28.230078125  13.6408203125 29.755859375  C 13.644921875 30.2521484375  13.3208984375 30.477734375  12.873828125 30.5474609375  C 12.52109375 30.60078125  12.1765625 30.5474609375  11.8279296875 30.543359375  Z " fill-rule="nonzero" fill="#f59a23" stroke="none" transform="matrix(1 0 0 1 273 691 )" />
  </g>
</svg>