<?xml version="1.0" encoding="utf-8"?>
<svg version="1.1" xmlns:xlink="http://www.w3.org/1999/xlink" width="43px" height="37px" xmlns="http://www.w3.org/2000/svg">
  <g transform="matrix(1 0 0 1 -64 -691 )">
    <path d="M 29.3833333193359 10.6066666806818  C 29.3833333193359 11.8026262579545  30.5777777451172 12.9985858772727  31.7722222128906 12.9985858772727  C 33.2055555322266 12.9985858772727  34.1611111064453 12.0418181818182  34.1611111064453 10.6066666806818  C 34.1611111064453 9.17151517954545  33.2055555322266 8.21474748409091  31.7722222128906 8.21474748409091  C 30.3388888935547 8.21474748409091  29.3833333193359 9.17151517954545  29.3833333193359 10.6066666806818  Z M 18.1555555742187 12.0418181818182  L 5.49444442578125 31  L 37.9833333193359 31  L 29.1444444257812 17.0648484988636  L 24.1277777871094 20.174343425  L 18.1555555742187 12.0418181818182  Z M 0 6.54040405909091  C 0 2.95252528522727  2.86666668066406 0.082222240909091  6.45 0  L 36.55 0  C 40.1333333193359 0.082222240909091  43 2.95252524318182  43 6.54040405909091  L 43 30.4595959409091  C 43 34.0474747147727  40.1333333193359 36.9177777590909  36.55 37  L 6.45 37  C 2.86666668066406 36.9177777590909  0 34.0474747568182  0 30.4595959409091  L 0 6.54040405909091  Z " fill-rule="nonzero" fill="#f59a23" stroke="none" transform="matrix(1 0 0 1 64 691 )" />
  </g>
</svg>