<?xml version="1.0" encoding="utf-8"?>
<svg version="1.1" xmlns:xlink="http://www.w3.org/1999/xlink" width="36px" height="33px" xmlns="http://www.w3.org/2000/svg">
  <g transform="matrix(1 0 0 1 -167 -691 )">
    <path d="M 33 20.0813953648256  C 33 19.2337024929923  33.6715728752538 18.5465116438954  34.5 18.5465116438954  C 35.3284271247462 18.5465116438954  36 19.2337024929923  36 20.0813953648256  L 36 31.3372092863372  C 35.999968405732 32.1042127517301  35.4466071776903 32.7534549871441  34.704 32.8577674578488  L 34.5 32.8720930072674  L 1.5 32.8720930072674  C 0.67157287525381 32.8720930072674  0 32.1849021581705  0 31.3372092863372  L 0 20.0813953648256  C 0 19.2337024929923  0.67157287525381 18.5465116438954  1.5 18.5465116438954  C 2.32842712474619 18.5465116438954  3 19.2337024929923  3 20.0813953648256  L 3 29.8002790857558  L 33 29.802325565407  L 33 20.0813953648256  Z M 17.331999984375 0.43897674418605  C 17.65999996875 0.0706046511627938  18.168 0.0296744345930268  18.537999984375 0.316186046511627  L 18.668000015625 0.438976744186046  L 27.723999984375 10.5978604491279  C 27.9035736292701 10.8038843640458  28.0019375552416 11.07082953827  27.999999984375 11.3468837049419  C 27.999999984375 11.8666976424419  27.666 12.3005581395349  27.225999984375 12.3906046351744  L 27.056000015625 12.4069767601744  L 21 12.4069767601744  L 21 20.5930232398256  C 21 21.1581518601828  20.5522847568263 21.6162790857558  20.000000015625 21.6162790857558  L 15.999999984375 21.6162790857558  C 15.4477152431737 21.6162790857558  15 21.1581518601828  15 20.5930232877907  L 15 12.4069767601744  L 8.943999984375 12.4069767601744  C 8.74222768081625 12.4056550134009  8.546882730362 12.3342149452138  8.390000015625 12.2043721090116  L 8.276000015625 12.0959069607558  C 7.95906672405891 11.725712408934  7.910648139574 11.1889792695446  8.156000015625 10.7656744186047  L 8.276000015625 10.5978604491279  L 17.331999984375 0.43897674418605  Z " fill-rule="nonzero" fill="#f59a23" stroke="none" transform="matrix(1 0 0 1 167 691 )" />
  </g>
</svg>