<?xml version="1.0" encoding="utf-8"?>
<svg version="1.1" xmlns:xlink="http://www.w3.org/1999/xlink" width="34px" height="33px" xmlns="http://www.w3.org/2000/svg">
  <g transform="matrix(1 0 0 1 -273 -691 )">
    <path d="M 0.917773437500001 2.7224609375  C 1.0818359375 2.15234375  1.3771484375 1.6888671875  1.88984375 1.3689453125  C 2.423046875 1.0408203125  3.013671875 0.9341796875  3.620703125 0.930078125000001  C 5.3064453125 0.913671874999999  6.9921875 0.925976562500001  8.6779296875 0.921875  C 8.7435546875 0.921875  8.8255859375 0.971093750000001  8.87890625 0.8849609375  C 8.8091796875 0.9259765625  8.73125 0.90546875  8.657421875 0.90546875  C 6.819921875 0.917773437499999  4.982421875 0.872656249999999  3.144921875 0.930078125  C 2.3697265625 0.954687499999999  1.7134765625 1.2623046875  1.2376953125 1.898046875  C 0.979296875000001 2.242578125  0.864453125000001 2.636328125  0.839843750000001 3.0587890625  C 0.913671875 2.9603515625  0.889062500000001 2.8373046875  0.917773437500001 2.7224609375  Z M 30.2931640625 0.880859374999998  C 30.3259765625 0.966992187499998  30.3998046875 0.925976562499998  30.453125 0.921875  C 30.723828125 0.909570312500001  30.9904296875 0.9423828125  31.2529296875 1.0080078125  C 32.1142578125 1.2294921875  32.7171875 1.7380859375  33.0083984375 2.5994140625  C 33.0740234375 2.7962890625  33.0822265625 3.00546875  33.14375 3.20234375  L 33.14375 3.1859375  C 33.16015625 2.0333984375  32.14296875 1.00390625  30.9822265625 0.917773437499998  C 30.7525390625 0.901367187499998  30.5228515625 0.938281249999998  30.2931640625 0.880859374999998  Z M 3.62890625 32.298828125  C 3.5837890625 32.2208984375  3.505859375 32.2619140625  3.4484375 32.266015625  C 3.1736328125 32.27421875  2.898828125 32.2537109375  2.6322265625 32.1798828125  C 1.7955078125 31.9501953125  1.241796875 31.4333984375  0.999804687499999 30.584375  C 0.934179687499999 30.3505859375  0.9259765625 30.10859375  0.839843749999999 29.8830078125  C 0.884960937499999 30.100390625  0.872656249999999 30.3259765625  0.925976562499999 30.543359375  C 1.1515625 31.478515625  1.971875 32.20859375  2.9193359375 32.266015625  C 3.1572265625 32.282421875  3.3951171875 32.24140625  3.62890625 32.298828125  Z " fill-rule="nonzero" fill="#f59a23" stroke="none" transform="matrix(1 0 0 1 273 691 )" />
  </g>
</svg>