<?xml version="1.0" encoding="utf-8"?>
<svg version="1.1" xmlns:xlink="http://www.w3.org/1999/xlink" width="28px" height="28px" xmlns="http://www.w3.org/2000/svg">
  <g transform="matrix(1 0 0 1 -278 -696 )">
    <path d="M 16.8357421875 19.1736328125  C 16.8357421875 18.6814453125  16.4912109375 18.357421875  15.95390625 18.365625  C 15.4494140625 18.373828125  15.1171875 18.7060546875  15.1171875 19.1859375  L 15.1171875 26.232421875  C 15.1171875 26.7369140625  15.4658203125 27.0568359375  15.9703125 27.0486328125  C 16.4994140625 27.0404296875  16.831640625 26.765625  16.8357421875 26.240625  C 16.8439453125 23.886328125  16.83984375 21.5279296875  16.8357421875 19.1736328125  Z M 27.0978515625 19.3458984375  C 27.09375 18.7552734375  26.9091796875 18.48046875  26.330859375 18.373828125  C 25.9248046875 18.3  25.3751953125 18.5748046875  25.3751953125 19.1203125  C 25.3669921875 20.31796875  25.3751953125 21.5115234375  25.3751953125 22.7091796875  L 25.3751953125 26.2775390625  C 25.3751953125 26.3431640625  25.37109375 26.4169921875  25.3916015625 26.478515625  C 25.526953125 26.8640625  25.9822265625 27.14296875  26.35546875 27.052734375  C 26.823046875 26.9419921875  27.0896484375 26.757421875  27.09375 26.175  C 27.101953125 23.8986328125  27.0978515625 21.622265625  27.0978515625 19.3458984375  Z M 22.541015625 21.00703125  C 22.541015625 20.9537109375  22.541015625 20.8880859375  22.5287109375 20.8306640625  C 22.4220703125 20.4451171875  21.9955078125 20.1416015625  21.622265625 20.211328125  C 21.113671875 20.309765625  20.8265625 20.48203125  20.8224609375 21.0685546875  C 20.81015625 22.754296875  20.818359375 24.444140625  20.818359375 26.1298828125  C 20.818359375 26.6958984375  21.0521484375 26.9501953125  21.5361328125 27.0404296875  C 21.99140625 27.1265625  22.5369140625 26.855859375  22.541015625 26.25703125  L 22.541015625 23.6525390625  L 22.541015625 21.00703125  Z M 22.541015625 14.1615234375  C 22.5533203125 13.3822265625  21.9421875 13.2263671875  21.392578125 13.3453125  C 21.0357421875 13.4232421875  20.818359375 13.763671875  20.818359375 14.157421875  L 20.818359375 17.783203125  C 20.818359375 18.3205078125  20.982421875 18.64453125  21.5607421875 18.7552734375  C 21.983203125 18.833203125  22.5451171875 18.5419921875  22.541015625 17.996484375  C 22.5369140625 17.3484375  22.541015625 16.700390625  22.541015625 16.0482421875  C 22.541015625 15.420703125  22.5328125 14.7931640625  22.541015625 14.1615234375  Z M 16.8357421875 14.0712890625  C 16.8357421875 13.82109375  16.7373046875 13.6078125  16.51171875 13.451953125  C 16.3107421875 13.3125  16.0974609375 13.3166015625  15.880078125 13.3166015625  C 15.4494140625 13.3166015625  15.1212890625 13.640625  15.1212890625 14.0671875  L 15.1212890625 15.13359375  C 15.1212890625 15.502734375  15.1171875 15.871875  15.1212890625 16.241015625  C 15.125390625 16.4296875  15.174609375 16.5978515625  15.322265625 16.7455078125  C 15.535546875 16.9587890625  15.781640625 17.0203125  16.06875 17.012109375  C 16.4748046875 16.9998046875  16.83984375 16.6470703125  16.83984375 16.2451171875  C 16.8439453125 15.519140625  16.848046875 14.797265625  16.8357421875 14.0712890625  Z M 27.09375 14.1287109375  C 27.09375 14.009765625  27.0609375 13.903125  27.0240234375 13.8005859375  C 26.9337890625 13.5462890625  26.6220703125 13.3166015625  26.28984375 13.3083984375  C 25.7033203125 13.287890625  25.321875 13.632421875  25.3669921875 14.2435546875  C 25.3875 14.5306640625  25.37109375 14.8177734375  25.37109375 15.1048828125  L 25.37109375 16.1302734375  C 25.37109375 16.191796875  25.37109375 16.2533203125  25.3875 16.3107421875  C 25.51875 16.733203125  25.9166015625 16.946484375  26.3677734375 16.8849609375  C 26.8189453125 16.8193359375  27.0814453125 16.5404296875  27.0896484375 16.076953125  C 27.101953125 15.42890625  27.09375 14.7767578125  27.09375 14.1287109375  Z M 5.4662109375 1.819921875  C 5.4703125 1.737890625  5.4580078125 1.655859375  5.4375 1.573828125  C 5.3595703125 1.2744140625  5.1134765625 1.0529296875  4.805859375 1.0119140625  C 4.7525390625 1.0037109375  4.6951171875 0.995507812500001  4.641796875 0.995507812500001  C 4.6171875 0.995507812500001  4.5802734375 1.0037109375  4.5720703125 0.962695312500001  L 3.3908203125 0.962695312500001  C 3.3744140625 0.991406249999999  3.345703125 0.975000000000001  3.3251953125 0.975000000000001  C 2.7796875 0.975000000000001  2.2341796875 0.970898437500001  1.688671875 0.9791015625  C 1.491796875 0.9791015625  1.2990234375 1.016015625  1.1267578125 1.12265625  C 0.958593750000002 1.2251953125  0.864257812500002 1.376953125  0.810937500000001 1.5615234375  C 0.802734375000002 1.5984375  0.810937500000001 1.639453125  0.786328125000002 1.6681640625  L 0.786328125000002 4.76484375  C 0.827343750000002 4.773046875  0.815039062500002 4.8099609375  0.819140625000003 4.8345703125  C 0.847851562500002 5.002734375  0.892968750000003 5.15859375  1.0078125 5.2857421875  C 1.1595703125 5.45390625  1.360546875 5.5236328125  1.5779296875 5.527734375  C 2.574609375 5.5318359375  3.575390625 5.5318359375  4.5720703125 5.527734375  C 4.69921875 5.527734375  4.822265625 5.5154296875  4.9453125 5.4744140625  C 5.2693359375 5.371875  5.4662109375 5.109375  5.4662109375 4.7689453125  L 5.4662109375 1.819921875  Z M 23.246484375 1.5041015625  C 23.2546875 1.4220703125  23.23828125 1.3359375  23.2177734375 1.2580078125  C 23.13984375 0.958593749999999  22.89375 0.737109375000001  22.5861328125 0.696093750000001  C 22.5328125 0.687890625000001  22.475390625 0.6796875  22.4220703125 0.6796875  C 22.3974609375 0.6796875  22.360546875 0.687890625  22.35234375 0.646875  L 21.17109375 0.646875  C 21.1546875 0.675585937499999  21.1259765625 0.6591796875  21.10546875 0.6591796875  C 20.5599609375 0.6591796875  20.014453125 0.655078125000001  19.4689453125 0.663281249999999  C 19.2720703125 0.663281249999999  19.079296875 0.7001953125  18.90703125 0.806835937499999  C 18.7388671875 0.909374999999999  18.64453125 1.0611328125  18.5912109375 1.245703125  C 18.5830078125 1.2826171875  18.5912109375 1.3236328125  18.5666015625 1.35234375  L 18.5666015625 4.4490234375  C 18.6076171875 4.4572265625  18.5953125 4.494140625  18.5994140625 4.51875  C 18.628125 4.6869140625  18.6732421875 4.8427734375  18.7880859375 4.969921875  C 18.93984375 5.1380859375  19.1408203125 5.2078125  19.358203125 5.2119140625  C 20.3548828125 5.216015625  21.3556640625 5.216015625  22.35234375 5.2119140625  C 22.4794921875 5.2119140625  22.6025390625 5.199609375  22.7255859375 5.15859375  C 23.049609375 5.0560546875  23.246484375 4.7935546875  23.246484375 4.453125  L 23.246484375 1.5041015625  Z M 5.4416015625 18.997265625  C 5.445703125 18.915234375  5.4333984375 18.833203125  5.412890625 18.751171875  C 5.3349609375 18.4517578125  5.0888671875 18.2302734375  4.78125 18.1892578125  C 4.7279296875 18.1810546875  4.6705078125 18.1728515625  4.6171875 18.1728515625  C 4.592578125 18.1728515625  4.5556640625 18.1810546875  4.5474609375 18.1400390625  L 3.3662109375 18.1400390625  C 3.3498046875 18.16875  3.32109375 18.15234375  3.3005859375 18.15234375  C 2.755078125 18.15234375  2.2095703125 18.1482421875  1.6640625 18.1564453125  C 1.4671875 18.1564453125  1.2744140625 18.193359375  1.1021484375 18.3  C 0.933984375000001 18.4025390625  0.839648437500001 18.554296875  0.786328125000001 18.7388671875  C 0.778125000000001 18.77578125  0.786328125000001 18.816796875  0.761718750000002 18.8455078125  L 0.761718750000002 21.9421875  C 0.802734375000002 21.950390625  0.790429687500001 21.9873046875  0.794531250000002 22.0119140625  C 0.823242187500002 22.180078125  0.868359375000002 22.3359375  0.983203125000001 22.4630859375  C 1.1349609375 22.63125  1.3359375 22.7009765625  1.5533203125 22.705078125  C 2.55 22.7091796875  3.55078125 22.7091796875  4.5474609375 22.705078125  C 4.674609375 22.705078125  4.79765625 22.6927734375  4.920703125 22.6517578125  C 5.2447265625 22.54921875  5.4416015625 22.28671875  5.4416015625 21.9462890625  L 5.4416015625 18.997265625  Z " fill-rule="nonzero" fill="#f59a23" stroke="none" transform="matrix(1 0 0 1 278 696 )" />
  </g>
</svg>