<?xml version="1.0" encoding="utf-8"?>
<svg version="1.1" xmlns:xlink="http://www.w3.org/1999/xlink" width="12px" height="16px" xmlns="http://www.w3.org/2000/svg">
  <g transform="matrix(1 0 0 1 -251 -330 )">
    <path d="M 11.9383286938776 5.95409515146424  C 11.9383286938776 2.67084099829946  9.27395984693878 0  5.99896328571429 0  C 2.72431229081633 0  0.0620168877551026 2.67084099829946  0.0620168724489801 5.95409515146424  C 0.0620168724489801 8.52933479548316  3.71818060714286 13.5337662319287  5.29157508673469 15.6454627287742  C 5.46063576749666 15.8693794278633  5.72202562291708 16.0003856042947  5.99896328571429 15.9999991473815  C 6.27645851020408 15.9999991473815  6.54220425 15.8680622169122  6.70807934693878 15.6454627287742  C 8.28009153061225 13.5341189975349  11.9383286938776 8.52933477985816  11.9383286938776 5.95409515146424  Z M 8.53547006632653 5.57662851532893  C 8.53547006632653 6.97925219058499  7.39853445918367 8.11835475488374  5.99896328571429 8.11835477050874  C 4.60008324489796 8.11835477050874  3.4614197755102 6.97925219058499  3.4614197755102 5.57662851532893  C 3.4614197755102 4.17471038691027  4.60008324489796 3.03384394770552  5.99896328571429 3.03384396333052  C 7.39853447448979 3.03384396333052  8.53547006632653 4.17471040253527  8.53547006632653 5.57662851532893  Z " fill-rule="nonzero" fill="#f59a23" stroke="none" transform="matrix(1 0 0 1 251 330 )" />
  </g>
</svg>