<?xml version="1.0" encoding="utf-8"?>
<svg version="1.1" xmlns:xlink="http://www.w3.org/1999/xlink" width="104px" height="104px" xmlns="http://www.w3.org/2000/svg">
  <g transform="matrix(1 0 0 1 -20 -245 )">
    <path d="M 20 245  L 124 245  L 124 349  L 20 349  L 20 245  " fill-rule="nonzero" fill="#cccccc" stroke="none" />
    <path d="M 27 252  L 117 252  L 117 342  L 27 342  L 27 252  " fill-rule="nonzero" fill="#ffffff" stroke="none" />
    <path d="M 81.88 276.2  C 77.512 276.2  74.08 272.768  74.08 268.4  C 74.08 264.032  77.512 260.6  81.88 260.6  C 86.248 260.6  89.68 264.032  89.68 268.4  C 89.68 272.768  86.248 276.2  81.88 276.2  " fill-rule="nonzero" fill="#cccccc" stroke="none" />
    <path d="M 30 340  L 30 293.25  L 51.25 272  L 81 289  L 98 284.75  L 115 289  L 115 340  L 30 340  " fill-rule="nonzero" fill="#169bd5" stroke="none" />
  </g>
</svg>